M48
;Layer_Color=9474304
;FILE_FORMAT=2:4
INCH,LZ
;TYPE=PLATED
T1F00S00C0.0080
T2F00S00C0.0200
T3F00S00C0.0354
T4F00S00C0.0540
T5F00S00C0.1260
%
T01
X000783Y-002217
Y-001917
Y-001617
X00235Y-0012
X00205Y00045
X0052Y-0005
Y-0008
Y-00115
Y-0015
Y-0018
X005365Y0017
Y00195
Y0022
X00455Y0023
Y00275
Y00315
X0048Y00335
Y0066
X0045
X0042
X0039
X0036
X0033
X003
X0025
X0021Y00665
X00175Y0066
X00125
X00145Y00695
X001318Y007968
X001528Y008178
X00175Y0084
X001Y00765
X000693Y007343
X00055Y0065
Y00615
X00005Y00485
X-0008Y0066
Y00705
X-00035Y0023
X0051Y0066
X005315Y0105
Y01075
Y011
X00575Y0108
Y0105
X00788Y00974
X0081Y009957
X00833Y00973
X00811Y00951
X00789Y00929
X00766Y00952
X00836Y00926
X00858Y00948
X00881Y00925
X00859Y00903
X00837Y00881
X00814Y00904
X009043Y0109
X0098Y010243
X0102Y00735
X01045
Y007085
X0102
X00995Y007069
X01Y0062
X0097
X0094
X0091
X0088
X0085
X0082
X0079
X0076
X0073
X007
X00745Y00505
X01025Y0058
X01055Y0061
Y0064
X01205Y0066
Y00695
X00595Y00765
X006035Y002185
Y00195
Y0017
X00595Y00025
X0055Y00035
Y-0005
Y-0008
Y-00115
Y-0015
X005507Y-0018
X00992Y-00176
X009917Y-00145
Y-0021
X0079Y012
X00575Y01145
Y01115
X00585Y0132
X00575Y01365
X00595Y01385
X0064
X0054Y0133
X005315Y0115
Y01125
T02
X005115Y003715
X0051Y0043
T03
X-000687Y-0001
X0001
Y000687
Y001475
X-000687
Y000687
T04
X0008Y-001
X0099Y-00093
X00721Y01383
X00221
T05
X0005Y011
X0105
M30
