%FSLAX24Y24*%
%MOIN*%
G70*
G01*
G75*
G04 Layer_Physical_Order=1*
G04 Layer_Color=255*
%ADD10C,0.0060*%
%ADD11C,0.0100*%
%ADD12C,0.0140*%
%ADD13C,0.0200*%
%ADD14R,0.0197X0.1417*%
%ADD15R,0.0433X0.0394*%
%ADD16R,0.0276X0.0571*%
%ADD17R,0.0394X0.0433*%
%ADD18R,0.0400X0.1000*%
G04:AMPARAMS|DCode=19|XSize=31.5mil|YSize=74.8mil|CornerRadius=0mil|HoleSize=0mil|Usage=FLASHONLY|Rotation=135.000|XOffset=0mil|YOffset=0mil|HoleType=Round|Shape=Round|*
%AMOVALD19*
21,1,0.0433,0.0315,0.0000,0.0000,225.0*
1,1,0.0315,0.0153,0.0153*
1,1,0.0315,-0.0153,-0.0153*
%
%ADD19OVALD19*%

G04:AMPARAMS|DCode=20|XSize=31.5mil|YSize=74.8mil|CornerRadius=0mil|HoleSize=0mil|Usage=FLASHONLY|Rotation=45.000|XOffset=0mil|YOffset=0mil|HoleType=Round|Shape=Round|*
%AMOVALD20*
21,1,0.0433,0.0315,0.0000,0.0000,135.0*
1,1,0.0315,0.0153,-0.0153*
1,1,0.0315,-0.0153,0.0153*
%
%ADD20OVALD20*%

G04:AMPARAMS|DCode=21|XSize=39.4mil|YSize=43.3mil|CornerRadius=0mil|HoleSize=0mil|Usage=FLASHONLY|Rotation=45.000|XOffset=0mil|YOffset=0mil|HoleType=Round|Shape=Rectangle|*
%AMROTATEDRECTD21*
4,1,4,0.0014,-0.0292,-0.0292,0.0014,-0.0014,0.0292,0.0292,-0.0014,0.0014,-0.0292,0.0*
%
%ADD21ROTATEDRECTD21*%

%ADD22C,0.0705*%
%ADD23R,0.0530X0.0530*%
%ADD24C,0.0530*%
%ADD25C,0.0240*%
%ADD26C,0.0400*%
%ADD27C,0.1500*%
G36*
X9100Y9200D02*
X8400Y8500D01*
X7392Y9508D01*
Y9692D01*
X8000Y10300D01*
X9100Y9200D01*
D02*
G37*
D10*
X10000Y6290D02*
G03*
X10153Y6353I0J217D01*
G01*
X10154Y6354D02*
G03*
X10090Y6200I154J-154D01*
G01*
X9336Y6264D02*
G03*
X9400Y6417I-154J154D01*
G01*
D02*
G03*
X9464Y6264I217J0D01*
G01*
X9036D02*
G03*
X9100Y6417I-154J154D01*
G01*
D02*
G03*
X9164Y6264I217J0D01*
G01*
X8736D02*
G03*
X8800Y6417I-154J154D01*
G01*
D02*
G03*
X8864Y6264I217J0D01*
G01*
X8436D02*
G03*
X8500Y6417I-154J154D01*
G01*
D02*
G03*
X8564Y6264I217J0D01*
G01*
X8136D02*
G03*
X8200Y6417I-154J154D01*
G01*
D02*
G03*
X8264Y6264I217J0D01*
G01*
X7836D02*
G03*
X7900Y6417I-154J154D01*
G01*
D02*
G03*
X7964Y6264I217J0D01*
G01*
X7536D02*
G03*
X7600Y6417I-154J154D01*
G01*
D02*
G03*
X7664Y6264I217J0D01*
G01*
X7236D02*
G03*
X7300Y6417I-154J154D01*
G01*
D02*
G03*
X7364Y6264I217J0D01*
G01*
X6936D02*
G03*
X7000Y6417I-154J154D01*
G01*
D02*
G03*
X7064Y6264I217J0D01*
G01*
X5036Y6664D02*
G03*
X5100Y6817I-154J154D01*
G01*
D02*
G03*
X5164Y6664I217J0D01*
G01*
X4736D02*
G03*
X4800Y6817I-154J154D01*
G01*
D02*
G03*
X4864Y6664I217J0D01*
G01*
X4436D02*
G03*
X4500Y6817I-154J154D01*
G01*
D02*
G03*
X4564Y6664I217J0D01*
G01*
X4136D02*
G03*
X4200Y6817I-154J154D01*
G01*
D02*
G03*
X4264Y6664I217J0D01*
G01*
X3836D02*
G03*
X3860Y6721I-57J57D01*
G01*
Y6769D02*
G03*
X3921Y6621I209J0D01*
G01*
X3860Y6914D02*
G03*
X3964Y6664I354J0D01*
G01*
X3536D02*
G03*
X3560Y6721I-57J57D01*
G01*
Y6769D02*
G03*
X3621Y6621I209J0D01*
G01*
X3560Y6914D02*
G03*
X3664Y6664I354J0D01*
G01*
X3236D02*
G03*
X3300Y6817I-154J154D01*
G01*
D02*
G03*
X3364Y6664I217J0D01*
G01*
X2936D02*
G03*
X3000Y6817I-154J154D01*
G01*
D02*
G03*
X3064Y6664I217J0D01*
G01*
X9636Y6264D02*
G03*
X9700Y6417I-154J154D01*
G01*
D02*
G03*
X9764Y6264I217J0D01*
G01*
X1160Y6600D02*
G03*
X1096Y6754I-217J0D01*
G01*
X1096Y6754D02*
G03*
X1250Y6690I154J154D01*
G01*
X1360Y6950D02*
G03*
X1330Y7023I-104J0D01*
G01*
X1319Y7034D02*
G03*
X1450Y6980I131J131D01*
G01*
X1216Y7137D02*
G03*
X1450Y7040I234J234D01*
G01*
X1686Y6664D02*
G03*
X1750Y6817I-154J154D01*
G01*
D02*
G03*
X1814Y6664I217J0D01*
G01*
X4890Y3350D02*
G03*
X4954Y3196I217J0D01*
G01*
X4954Y3196D02*
G03*
X4800Y3260I-154J-154D01*
G01*
X4738Y3042D02*
G03*
X4550Y3120I-188J-188D01*
G01*
X4841Y2940D02*
G03*
X4550Y3060I-291J-291D01*
G01*
X4572Y2321D02*
G03*
X4384Y2400I-187J-182D01*
G01*
X4529Y2279D02*
G03*
X4242Y2400I-286J-279D01*
G01*
X4485Y2237D02*
G03*
X4100Y2400I-385J-375D01*
G01*
X4486Y2686D02*
G03*
X4333Y2750I-154J-154D01*
G01*
D02*
G03*
X4486Y2814I0J217D01*
G01*
X10229Y5821D02*
G03*
X10150Y5631I190J-190D01*
G01*
X10271Y5779D02*
G03*
X10150Y5486I293J-293D01*
G01*
X10314Y5736D02*
G03*
X10150Y5341I395J-395D01*
G01*
X111Y7457D02*
G03*
X158Y7342I163J0D01*
G01*
X171Y7457D02*
G03*
X261Y7239I308J0D01*
G01*
X158Y7342D02*
G03*
X43Y7390I-115J-115D01*
G01*
X261Y7239D02*
G03*
X43Y7330I-218J-218D01*
G01*
X521Y7781D02*
G03*
X557Y7650I135J-33D01*
G01*
X557Y7650D02*
G03*
X427Y7687I-98J-98D01*
G01*
X878Y8164D02*
G03*
X907Y8093I101J0D01*
G01*
X909Y8091D02*
G03*
X750Y8157I-159J-159D01*
G01*
X1012Y7988D02*
G03*
X750Y8097I-261J-261D01*
G01*
X1114Y7886D02*
G03*
X750Y8037I-364J-364D01*
G01*
X2586Y9932D02*
G03*
X2633Y9817I163J0D01*
G01*
X2646Y9932D02*
G03*
X2736Y9714I308J0D01*
G01*
X2633Y9817D02*
G03*
X2518Y9864I-115J-115D01*
G01*
X2736Y9714D02*
G03*
X2518Y9804I-218J-218D01*
G01*
X2939Y10285D02*
G03*
X2987Y10170I163J0D01*
G01*
X2999Y10285D02*
G03*
X3089Y10068I308J0D01*
G01*
X2987Y10170D02*
G03*
X2872Y10218I-115J-115D01*
G01*
X3089Y10068D02*
G03*
X2872Y10158I-218J-218D01*
G01*
X3293Y10639D02*
G03*
X3340Y10524I163J0D01*
G01*
X3353Y10639D02*
G03*
X3443Y10421I308J0D01*
G01*
X3340Y10524D02*
G03*
X3225Y10572I-115J-115D01*
G01*
X3443Y10421D02*
G03*
X3225Y10512I-218J-218D01*
G01*
X3646Y10993D02*
G03*
X3694Y10877I163J0D01*
G01*
X3706Y10993D02*
G03*
X3796Y10775I308J0D01*
G01*
X3694Y10877D02*
G03*
X3579Y10925I-115J-115D01*
G01*
X3796Y10775D02*
G03*
X3579Y10865I-218J-218D01*
G01*
X4000Y11346D02*
G03*
X4048Y11231I163J0D01*
G01*
X4060Y11346D02*
G03*
X4150Y11128I308J0D01*
G01*
X4048Y11231D02*
G03*
X3932Y11279I-115J-115D01*
G01*
X4150Y11128D02*
G03*
X3932Y11219I-218J-218D01*
G01*
X4413Y11695D02*
G03*
X4493Y11493I272J-10D01*
G01*
X4493Y11493D02*
G03*
X4291Y11572I-192J-192D01*
G01*
X4763Y12023D02*
G03*
X4800Y11893I135J-33D01*
G01*
X4800Y11893D02*
G03*
X4669Y11929I-98J-98D01*
G01*
X5100Y12275D02*
G03*
X5030Y12444I-238J0D01*
G01*
X5100Y12130D02*
G03*
X4988Y12401I-383J0D01*
G01*
X5100Y11986D02*
G03*
X4945Y12359I-528J0D01*
G01*
X5100Y11841D02*
G03*
X4903Y12317I-673J0D01*
G01*
X6307Y12339D02*
G03*
X6192Y12292I0J-163D01*
G01*
X6307Y12279D02*
G03*
X6089Y12189I0J-308D01*
G01*
X6192Y12292D02*
G03*
X6240Y12407I-115J115D01*
G01*
X6089Y12189D02*
G03*
X6180Y12407I-218J218D01*
G01*
X6661Y11986D02*
G03*
X6545Y11938I0J-163D01*
G01*
X6661Y11926D02*
G03*
X6443Y11836I0J-308D01*
G01*
X6545Y11938D02*
G03*
X6593Y12053I-115J115D01*
G01*
X6443Y11836D02*
G03*
X6533Y12053I-218J218D01*
G01*
X7014Y11632D02*
G03*
X6899Y11584I0J-163D01*
G01*
X7014Y11572D02*
G03*
X6796Y11482I0J-308D01*
G01*
X6899Y11584D02*
G03*
X6947Y11700I-115J115D01*
G01*
X6796Y11482D02*
G03*
X6887Y11700I-218J218D01*
G01*
X7368Y11279D02*
G03*
X7252Y11231I0J-163D01*
G01*
X7368Y11219D02*
G03*
X7150Y11128I0J-308D01*
G01*
X7252Y11231D02*
G03*
X7300Y11346I-115J115D01*
G01*
X7150Y11128D02*
G03*
X7240Y11346I-218J218D01*
G01*
X7721Y10925D02*
G03*
X7606Y10877I0J-163D01*
G01*
X7721Y10865D02*
G03*
X7504Y10775I0J-308D01*
G01*
X7606Y10877D02*
G03*
X7654Y10993I-115J115D01*
G01*
X7504Y10775D02*
G03*
X7594Y10993I-218J218D01*
G01*
X8075Y10572D02*
G03*
X7960Y10524I0J-163D01*
G01*
X8075Y10512D02*
G03*
X7857Y10421I0J-308D01*
G01*
X7960Y10524D02*
G03*
X8007Y10639I-115J115D01*
G01*
X7857Y10421D02*
G03*
X7947Y10639I-218J218D01*
G01*
X9489Y9157D02*
G03*
X9374Y9110I0J-163D01*
G01*
X9489Y9097D02*
G03*
X9271Y9007I0J-308D01*
G01*
X9374Y9110D02*
G03*
X9422Y9225I-115J115D01*
G01*
X9271Y9007D02*
G03*
X9362Y9225I-218J218D01*
G01*
X9843Y8804D02*
G03*
X9727Y8756I0J-163D01*
G01*
X9843Y8744D02*
G03*
X9625Y8654I0J-308D01*
G01*
X9727Y8756D02*
G03*
X9775Y8871I-115J115D01*
G01*
X9625Y8654D02*
G03*
X9715Y8871I-218J218D01*
G01*
X10196Y8450D02*
G03*
X10081Y8402I0J-163D01*
G01*
X10196Y8390D02*
G03*
X9978Y8300I0J-308D01*
G01*
X10081Y8402D02*
G03*
X10129Y8518I-115J115D01*
G01*
X9978Y8300D02*
G03*
X10069Y8518I-218J218D01*
G01*
X10550Y8097D02*
G03*
X10434Y8049I0J-163D01*
G01*
X10550Y8037D02*
G03*
X10332Y7946I0J-308D01*
G01*
X10434Y8049D02*
G03*
X10482Y8164I-115J115D01*
G01*
X10332Y7946D02*
G03*
X10422Y8164I-218J218D01*
G01*
X11257Y7390D02*
G03*
X11142Y7342I0J-163D01*
G01*
X11257Y7330D02*
G03*
X11039Y7239I0J-308D01*
G01*
X11142Y7342D02*
G03*
X11189Y7457I-115J115D01*
G01*
X11039Y7239D02*
G03*
X11129Y7457I-218J218D01*
G01*
X11630Y5837D02*
G03*
X11678Y5722I163J0D01*
G01*
X11690Y5837D02*
G03*
X11781Y5619I308J0D01*
G01*
X11678Y5722D02*
G03*
X11563Y5769I-115J-115D01*
G01*
X11781Y5619D02*
G03*
X11563Y5709I-218J-218D01*
G01*
X11277Y5483D02*
G03*
X11325Y5368I163J0D01*
G01*
X11337Y5483D02*
G03*
X11427Y5266I308J0D01*
G01*
X11325Y5368D02*
G03*
X11209Y5416I-115J-115D01*
G01*
X11427Y5266D02*
G03*
X11209Y5356I-218J-218D01*
G01*
X10923Y5130D02*
G03*
X10971Y5014I163J0D01*
G01*
X10983Y5130D02*
G03*
X11073Y4912I308J0D01*
G01*
X10971Y5014D02*
G03*
X10856Y5062I-115J-115D01*
G01*
X11073Y4912D02*
G03*
X10856Y5002I-218J-218D01*
G01*
X10106Y5173D02*
G03*
X10150Y5279I-106J106D01*
G01*
Y5357D02*
G03*
X10244Y5130I320J0D01*
G01*
X10150Y5501D02*
G03*
X10286Y5173I465J0D01*
G01*
X10570Y4776D02*
G03*
X10618Y4661I163J0D01*
G01*
X10630Y4776D02*
G03*
X10720Y4559I308J0D01*
G01*
X10618Y4661D02*
G03*
X10502Y4709I-115J-115D01*
G01*
X10720Y4559D02*
G03*
X10502Y4649I-218J-218D01*
G01*
X10216Y4423D02*
G03*
X10264Y4307I163J0D01*
G01*
X10276Y4423D02*
G03*
X10366Y4205I308J0D01*
G01*
X10264Y4307D02*
G03*
X10149Y4355I-115J-115D01*
G01*
X10366Y4205D02*
G03*
X10149Y4295I-218J-218D01*
G01*
X9863Y4069D02*
G03*
X9910Y3954I163J0D01*
G01*
X9923Y4069D02*
G03*
X10013Y3851I308J0D01*
G01*
X9910Y3954D02*
G03*
X9795Y4002I-115J-115D01*
G01*
X10013Y3851D02*
G03*
X9795Y3942I-218J-218D01*
G01*
X9509Y3715D02*
G03*
X9557Y3600I163J0D01*
G01*
X9569Y3715D02*
G03*
X9659Y3498I308J0D01*
G01*
X9557Y3600D02*
G03*
X9442Y3648I-115J-115D01*
G01*
X9659Y3498D02*
G03*
X9442Y3588I-218J-218D01*
G01*
X9195Y3293D02*
G03*
X9200Y3250I29J-19D01*
G01*
D02*
G03*
X9157Y3255I-24J-24D01*
G01*
X4988Y1199D02*
G03*
X5050Y1349I-150J150D01*
G01*
X4945Y1241D02*
G03*
X5050Y1494I-253J253D01*
G01*
X4903Y1283D02*
G03*
X5050Y1639I-355J355D01*
G01*
Y1363D02*
G03*
X5083Y1283I113J0D01*
G01*
X4793Y659D02*
G03*
X4682Y881I-277J0D01*
G01*
X4793Y539D02*
G03*
X4646Y833I-368J0D01*
G01*
X4793Y419D02*
G03*
X4610Y785I-459J0D01*
G01*
X4639Y1614D02*
G03*
X4755Y1662I0J163D01*
G01*
X4639Y1674D02*
G03*
X4857Y1764I0J308D01*
G01*
X4755Y1662D02*
G03*
X4707Y1547I115J-115D01*
G01*
X4857Y1764D02*
G03*
X4767Y1547I218J-218D01*
G01*
X4423Y1150D02*
G03*
X4400Y1094I56J-56D01*
G01*
Y1061D02*
G03*
X4328Y1235I-246J0D01*
G01*
X4400Y916D02*
G03*
X4286Y1193I-391J0D01*
G01*
X4400Y772D02*
G03*
X4243Y1150I-536J0D01*
G01*
X4086Y1366D02*
G03*
X3975Y1588I-277J0D01*
G01*
X4086Y1246D02*
G03*
X3939Y1540I-368J0D01*
G01*
X4086Y1126D02*
G03*
X3903Y1492I-459J0D01*
G01*
X3977Y2373D02*
G03*
X4100Y2400I41J109D01*
G01*
X4100Y2400D02*
G03*
X4058Y2273I105J-105D01*
G01*
X3622Y2728D02*
G03*
X3721Y2750I32J90D01*
G01*
D02*
G03*
X3699Y2650I68J-68D01*
G01*
X2183Y3238D02*
G03*
X2050Y3200I-32J-138D01*
G01*
X2050Y3200D02*
G03*
X2088Y3333I-100J100D01*
G01*
X1864Y3710D02*
G03*
X1760Y3460I251J-251D01*
G01*
X1906Y3668D02*
G03*
X1760Y3315I353J-353D01*
G01*
X1948Y3625D02*
G03*
X1760Y3170I455J-455D01*
G01*
X1510Y4064D02*
G03*
X1450Y3919I145J-145D01*
G01*
X1552Y4021D02*
G03*
X1450Y3774I247J-247D01*
G01*
X1595Y3979D02*
G03*
X1450Y3629I350J-350D01*
G01*
Y3894D02*
G03*
X1415Y3979I-121J0D01*
G01*
X1151Y4355D02*
G03*
X1036Y4307I0J-163D01*
G01*
X1151Y4295D02*
G03*
X934Y4205I0J-308D01*
G01*
X1036Y4307D02*
G03*
X1084Y4423I-115J115D01*
G01*
X934Y4205D02*
G03*
X1024Y4423I-218J218D01*
G01*
X803Y4771D02*
G03*
X700Y4522I249J-249D01*
G01*
X845Y4728D02*
G03*
X700Y4377I351J-351D01*
G01*
X888Y4686D02*
G03*
X700Y4233I453J-453D01*
G01*
X492Y5082D02*
G03*
X400Y4860I222J-222D01*
G01*
X534Y5040D02*
G03*
X400Y4715I324J-324D01*
G01*
Y4928D02*
G03*
X354Y5040I-157J0D01*
G01*
X-215Y5789D02*
G03*
X-300Y5584I205J-205D01*
G01*
X-173Y5747D02*
G03*
X-300Y5440I307J-307D01*
G01*
Y5618D02*
G03*
X-353Y5747I-181J0D01*
G01*
X9554Y-2553D02*
G03*
X9602Y-2440I-111J113D01*
G01*
D02*
G03*
X9650Y-2553I158J0D01*
G01*
X8924D02*
G03*
X8972Y-2440I-111J113D01*
G01*
D02*
G03*
X9020Y-2553I158J0D01*
G01*
X9239Y-2554D02*
G03*
X9287Y-2437I-117J117D01*
G01*
D02*
G03*
X9335Y-2554I165J0D01*
G01*
X8299Y-2549D02*
G03*
X8342Y-2458I-75J92D01*
G01*
D02*
G03*
X8385Y-2549I118J0D01*
G01*
X8609Y-2553D02*
G03*
X8657Y-2440I-111J113D01*
G01*
D02*
G03*
X8705Y-2553I158J0D01*
G01*
X7989Y-2546D02*
G03*
X8027Y-2473I-50J73D01*
G01*
D02*
G03*
X8066Y-2546I88J0D01*
G01*
X7705Y-2495D02*
G03*
X7661Y-2602I108J-108D01*
G01*
X7808Y-2392D02*
G03*
X7721Y-2602I210J-210D01*
G01*
X7910Y-2290D02*
G03*
X7781Y-2602I312J-312D01*
G01*
X7680Y-2542D02*
G03*
X7712Y-2488I-29J54D01*
G01*
D02*
G03*
X7745Y-2542I62J0D01*
G01*
X4199Y-2554D02*
G03*
X4248Y-2437I-117J117D01*
G01*
D02*
G03*
X4296Y-2554I165J0D01*
G01*
X2624D02*
G03*
X2673Y-2437I-117J117D01*
G01*
D02*
G03*
X2721Y-2554I165J0D01*
G01*
X2309D02*
G03*
X2350Y-2456I-98J98D01*
G01*
Y-2418D02*
G03*
X2406Y-2554I192J0D01*
G01*
X3254D02*
G03*
X3303Y-2437I-117J117D01*
G01*
D02*
G03*
X3351Y-2554I165J0D01*
G01*
X2939D02*
G03*
X2988Y-2437I-117J117D01*
G01*
D02*
G03*
X3036Y-2554I165J0D01*
G01*
X3569D02*
G03*
X3618Y-2437I-117J117D01*
G01*
D02*
G03*
X3666Y-2554I165J0D01*
G01*
X3884D02*
G03*
X3933Y-2437I-117J117D01*
G01*
D02*
G03*
X3981Y-2554I165J0D01*
G01*
X1050D02*
G03*
X1098Y-2437I-117J117D01*
G01*
D02*
G03*
X1146Y-2554I165J0D01*
G01*
X1680D02*
G03*
X1750Y-2384I-170J170D01*
G01*
Y-2490D02*
G03*
X1776Y-2554I90J0D01*
G01*
X1365D02*
G03*
X1413Y-2437I-117J117D01*
G01*
D02*
G03*
X1461Y-2554I165J0D01*
G01*
X1995D02*
G03*
X2043Y-2437I-117J117D01*
G01*
D02*
G03*
X2091Y-2554I165J0D01*
G01*
X3320Y-2052D02*
Y698D01*
X3200Y-1670D02*
Y649D01*
X3080Y-1620D02*
Y599D01*
X2960Y-1499D02*
Y549D01*
X2840Y-1449D02*
Y499D01*
X2720Y-1400D02*
Y450D01*
X1760Y2258D02*
X3320Y698D01*
X1760Y2258D02*
Y3617D01*
X1450Y2399D02*
X3200Y649D01*
X1450Y2399D02*
Y4014D01*
X900Y2779D02*
X3080Y599D01*
X900Y2779D02*
Y4171D01*
X700Y2809D02*
X2960Y549D01*
X700Y2809D02*
Y4678D01*
X400Y2939D02*
X2840Y499D01*
X400Y2939D02*
Y5086D01*
X-180Y3350D02*
X2720Y450D01*
X-180Y3350D02*
Y5250D01*
X1098Y-3213D02*
Y-2152D01*
X1350Y-1900D01*
X2050D01*
X2600Y-1350D01*
Y400D01*
X-300Y3300D02*
X2600Y400D01*
X-300Y3300D02*
Y5800D01*
X-110Y5990D01*
X1750Y-2250D02*
X1800Y-2200D01*
X1854Y-2146D01*
X10150Y5128D02*
Y5800D01*
X1403Y6950D02*
X1450D01*
X790Y7563D02*
X1403Y6950D01*
X703Y7650D02*
X790Y7563D01*
X557Y7650D02*
X703D01*
X244Y7964D02*
X557Y7650D01*
X1000Y6850D02*
X1250Y6600D01*
X650Y6850D02*
X1000D01*
X-110Y7610D02*
X650Y6850D01*
X1242Y7758D02*
X1750Y7250D01*
X1231Y7758D02*
X1242D01*
X1108Y7881D02*
X1231Y7758D01*
X1108Y7881D02*
Y7892D01*
X683Y8317D02*
X1108Y7892D01*
X1750Y6600D02*
Y7250D01*
X597Y8317D02*
X683D01*
X10150Y5800D02*
X10250D01*
X10150Y5128D02*
X10349Y4929D01*
X4800Y3350D02*
X5050Y3100D01*
Y1250D02*
Y3100D01*
X4840Y1040D02*
X5050Y1250D01*
X6460Y1040D02*
X6700Y800D01*
X3426Y2454D02*
X3721Y2750D01*
X4550D01*
X4450Y2400D02*
X4550Y2300D01*
X4100Y2400D02*
X4450D01*
X3801Y2101D02*
X4100Y2400D01*
X3779Y2101D02*
X3801D01*
X4910Y1817D02*
Y2870D01*
X4630Y3150D02*
X4910Y2870D01*
X4550Y3150D02*
X4630D01*
X4486Y1394D02*
X4910Y1817D01*
X2050Y3200D02*
X2365Y3515D01*
X2050Y2150D02*
Y3200D01*
Y2150D02*
X3440Y760D01*
Y-2101D02*
Y760D01*
X3303Y-2239D02*
X3440Y-2101D01*
X3303Y-3213D02*
Y-2239D01*
X2988Y-3213D02*
Y-2384D01*
X3320Y-2052D01*
X1760Y3617D02*
X2011Y3869D01*
X1450Y4014D02*
X1658Y4222D01*
X2673Y-2197D02*
X3200Y-1670D01*
X2673Y-3213D02*
Y-2197D01*
X2350Y-3205D02*
X2358Y-3213D01*
X2350Y-3205D02*
Y-2350D01*
X3080Y-1620D01*
X900Y4171D02*
X1304Y4576D01*
X700Y4678D02*
X951Y4929D01*
X2043Y-2416D02*
X2960Y-1499D01*
X2043Y-3213D02*
Y-2416D01*
X400Y5086D02*
X597Y5283D01*
X2143Y-2146D02*
X2840Y-1449D01*
X1854Y-2146D02*
X2143D01*
X1750Y-3191D02*
Y-2250D01*
X1728Y-3213D02*
X1750Y-3191D01*
X1703Y-2020D02*
X2100D01*
X206Y5636D02*
X244D01*
X-180Y5250D02*
X206Y5636D01*
X2100Y-2020D02*
X2720Y-1400D01*
X1413Y-2310D02*
X1703Y-2020D01*
X4086Y1700D02*
X4133Y1747D01*
X4086Y1138D02*
Y1700D01*
Y-1714D02*
Y1138D01*
X3618Y-2182D02*
X4086Y-1714D01*
X3618Y-3213D02*
Y-2182D01*
X4400Y1307D02*
X4486Y1394D01*
X4400Y-1700D02*
Y1307D01*
X3933Y-2167D02*
X4400Y-1700D01*
X3933Y-3213D02*
Y-2167D01*
X4793Y993D02*
X4840Y1040D01*
X4793Y431D02*
Y993D01*
Y-1707D02*
Y431D01*
X4248Y-2252D02*
X4793Y-1707D01*
X4248Y-3213D02*
Y-2252D01*
X7167Y1747D02*
X7400Y1514D01*
X6814Y1394D02*
X7050Y1157D01*
X7521Y2101D02*
X7750Y1872D01*
X9400Y-2238D02*
Y-2206D01*
Y-2238D02*
X9407Y-2245D01*
X9602Y-2440D01*
X9280Y-2288D02*
X9287Y-2295D01*
X9280Y-2288D02*
Y-2157D01*
X10703Y5283D02*
X11160Y4826D01*
Y3481D02*
Y4826D01*
X9160Y1481D02*
X11160Y3481D01*
X9160Y-511D02*
Y1481D01*
Y-1514D02*
Y-511D01*
Y-1719D02*
Y-1514D01*
Y-1849D02*
Y-1719D01*
Y-1979D02*
Y-1849D01*
Y-2107D02*
Y-1979D01*
Y-2252D02*
Y-2107D01*
X8972Y-2440D02*
X9160Y-2252D01*
X8972Y-3213D02*
Y-2440D01*
X9280Y-2157D02*
Y-2029D01*
X9400Y-2079D02*
Y-1949D01*
Y-2206D02*
Y-2079D01*
X9280Y-2029D02*
Y-1899D01*
X9287Y-3213D02*
Y-2295D01*
X9400Y-1949D02*
Y-1818D01*
X9280Y-1564D02*
Y-461D01*
Y1431D01*
Y-1769D02*
Y-1564D01*
Y-1899D02*
Y-1769D01*
X9400Y-1818D02*
Y-1613D01*
Y-411D01*
Y1382D01*
X10349Y4929D02*
X10760Y4518D01*
Y3251D02*
Y4518D01*
X9040Y1531D02*
X10760Y3251D01*
X9040Y-560D02*
Y1531D01*
Y-1464D02*
Y-560D01*
Y-1669D02*
Y-1464D01*
Y-1799D02*
Y-1669D01*
Y-1930D02*
Y-1799D01*
Y-2057D02*
Y-1930D01*
X8657Y-2440D02*
X9040Y-2057D01*
X8657Y-3213D02*
Y-2440D01*
X9996Y4576D02*
X10460Y4111D01*
Y3121D02*
Y4111D01*
X8920Y1581D02*
X10460Y3121D01*
X8920Y-610D02*
Y1581D01*
Y-1415D02*
Y-610D01*
Y-1619D02*
Y-1415D01*
Y-1750D02*
Y-1619D01*
Y-1880D02*
Y-1750D01*
X8342Y-2458D02*
X8920Y-1880D01*
X8342Y-3213D02*
Y-2458D01*
X11410Y5990D02*
X11860Y5540D01*
Y3842D02*
Y5540D01*
X9400Y1382D02*
X11860Y3842D01*
X9602Y-3213D02*
Y-2440D01*
X9642Y4222D02*
X10060Y3804D01*
Y2890D02*
Y3804D01*
X8800Y1630D02*
X10060Y2890D01*
X8800Y-660D02*
Y1630D01*
Y-1365D02*
Y-660D01*
Y-1570D02*
Y-1365D01*
Y-1700D02*
Y-1570D01*
X8027Y-2473D02*
X8800Y-1700D01*
X8027Y-3213D02*
Y-2473D01*
X9289Y3869D02*
X9760Y3397D01*
Y2760D02*
Y3397D01*
X8680Y1680D02*
X9760Y2760D01*
X8680Y-709D02*
Y1680D01*
Y-1315D02*
Y-709D01*
Y-1520D02*
Y-1315D01*
X7712Y-2488D02*
X8680Y-1520D01*
X7712Y-3213D02*
Y-2488D01*
X8380Y1890D02*
X8390D01*
X8935Y3515D02*
X9200Y3250D01*
X8581Y3161D02*
X8800Y2943D01*
X9280Y1431D02*
X11560Y3711D01*
X7874Y2454D02*
X8050Y2279D01*
X6452Y-3213D02*
Y-2548D01*
X7900Y12000D02*
Y12027D01*
X1413Y-3213D02*
Y-2310D01*
X-270Y5830D02*
X-110Y5990D01*
X10Y5403D02*
X244Y5636D01*
X1120Y4391D02*
X1304Y4576D01*
X780Y4758D02*
X951Y4929D01*
X370Y5056D02*
X597Y5283D01*
X2150Y3300D02*
X2365Y3515D01*
X7300Y6200D02*
Y8070D01*
X5960Y12060D02*
X6460Y12560D01*
X5960Y9050D02*
Y12060D01*
Y9050D02*
X7000Y8010D01*
Y6200D02*
Y8010D01*
X6360Y11753D02*
X6814Y12206D01*
X6360Y9010D02*
Y11753D01*
Y9010D02*
X7300Y8070D01*
X6760Y11446D02*
X7167Y11853D01*
X6760Y9031D02*
Y11446D01*
Y9031D02*
X7600Y8191D01*
Y6200D02*
Y8191D01*
X7060Y11038D02*
X7521Y11499D01*
X7060Y8901D02*
Y11038D01*
Y8901D02*
X7900Y8061D01*
Y6200D02*
Y8061D01*
X7180Y10451D02*
X7874Y11146D01*
X7180Y8950D02*
Y10451D01*
Y8950D02*
X8200Y7930D01*
Y6200D02*
Y7930D01*
X7300Y9864D02*
X8228Y10792D01*
X7300Y9000D02*
Y9864D01*
Y9000D02*
X8500Y7800D01*
Y6200D02*
Y7800D01*
X8800Y8536D02*
X9642Y9378D01*
X8800Y6200D02*
Y8536D01*
X9100Y8129D02*
X9996Y9024D01*
X9100Y6200D02*
Y8129D01*
X9400Y7722D02*
X10349Y8671D01*
X9400Y6200D02*
Y7722D01*
X9700Y7314D02*
X10703Y8317D01*
X9700Y6200D02*
Y7314D01*
X197Y8011D02*
X244Y7964D01*
X89Y8011D02*
X197D01*
X2365Y10085D02*
X3000Y9450D01*
Y6600D02*
Y9450D01*
X2719Y10439D02*
X3300Y9857D01*
Y6600D02*
Y9857D01*
X3072Y10792D02*
X3560Y10304D01*
Y6640D02*
X3600Y6600D01*
X3560Y6640D02*
Y10304D01*
X3426Y11146D02*
X3860Y10711D01*
Y6640D02*
X3900Y6600D01*
X3860Y6640D02*
Y10711D01*
X3779Y11499D02*
X4189Y11089D01*
X4200Y6600D02*
Y11078D01*
X4189Y11089D02*
X4200Y11078D01*
X4133Y11853D02*
X4493Y11493D01*
X4500Y6600D02*
Y11493D01*
X4486Y12206D02*
X4800Y11893D01*
Y6600D02*
Y11307D01*
Y11893D01*
X4840Y12560D02*
X5100Y12300D01*
Y6600D02*
Y11100D01*
Y12300D01*
X10000Y6200D02*
X11410Y7610D01*
X11763Y7257D02*
Y7263D01*
Y6321D02*
Y6343D01*
X11560Y3711D02*
Y5133D01*
X11056Y5636D02*
X11560Y5133D01*
X8228Y2808D02*
X8435Y2601D01*
X3379Y2407D02*
X3426Y2454D01*
X1778Y3635D02*
X2011Y3869D01*
X6460Y12560D02*
X6487D01*
X7258Y6242D02*
X7300Y6200D01*
X10000D02*
Y6200D01*
D11*
X9800Y10313D02*
G03*
X9919Y10362I0J169D01*
G01*
X9919Y10362D02*
G03*
X9870Y10243I120J-120D01*
G01*
X10294Y10476D02*
G03*
X9959Y10402I-109J-299D01*
G01*
X10260Y10382D02*
G03*
X9849Y10291I-134J-368D01*
G01*
X9940Y10383D02*
G03*
X9984Y10734I-204J204D01*
G01*
X9849Y10291D02*
G03*
X9898Y10683I-228J228D01*
G01*
X7850Y12049D02*
G03*
X7887Y12137I-87J87D01*
G01*
Y12201D02*
G03*
X7950Y12049I215J0D01*
G01*
X-301Y2350D02*
G03*
X-162Y2292I139J139D01*
G01*
X-200D02*
G03*
X-301Y2251I0J-142D01*
G01*
X1980Y450D02*
G03*
X1930Y569I-169J0D01*
G01*
X1930Y569D02*
G03*
X2050Y520I120J120D01*
G01*
X644Y-1129D02*
G03*
X263Y-950I-381J-316D01*
G01*
X567Y-1193D02*
G03*
X50Y-950I-517J-429D01*
G01*
X432D02*
G03*
X657Y-857I0J318D01*
G01*
X190Y-950D02*
G03*
X586Y-786I0J560D01*
G01*
X-839Y1627D02*
G03*
X-737Y1873I-246J246D01*
G01*
D02*
G03*
X-606Y1556I448J0D01*
G01*
X-737Y2115D02*
G03*
X-535Y1627I690J0D01*
G01*
X-687Y802D02*
G03*
X-491Y884I0J278D01*
G01*
X-687Y902D02*
G03*
X-320Y1054I0J519D01*
G01*
X-491Y884D02*
G03*
X-572Y687I196J-196D01*
G01*
X-320Y1054D02*
G03*
X-472Y687I367J-367D01*
G01*
X-572D02*
G03*
X-491Y491I278J0D01*
G01*
X-472Y687D02*
G03*
X-320Y320I519J0D01*
G01*
X-491Y491D02*
G03*
X-687Y572I-196J-196D01*
G01*
X-320Y320D02*
G03*
X-687Y472I-367J-367D01*
G01*
X181Y769D02*
G03*
X378Y687I196J196D01*
G01*
X252Y839D02*
G03*
X619Y687I367J367D01*
G01*
X378D02*
G03*
X181Y606I0J-278D01*
G01*
X619Y687D02*
G03*
X252Y535I0J-519D01*
G01*
X7296Y12947D02*
G03*
X7079Y13037I-217J-217D01*
G01*
X7011D02*
G03*
X7296Y13154I0J402D01*
G01*
X8004Y12446D02*
G03*
X7887Y12161I284J-284D01*
G01*
Y12229D02*
G03*
X7797Y12446I-307J0D01*
G01*
X-370Y7763D02*
G03*
X-446Y7947I-259J0D01*
G01*
D02*
G03*
X-263Y7871I183J183D01*
G01*
X-17Y8117D02*
G03*
X-93Y8300I-259J0D01*
G01*
D02*
G03*
X91Y8224I183J183D01*
G01*
X368Y8546D02*
G03*
X400Y8623I-77J77D01*
G01*
Y8836D02*
G03*
X520Y8546I410J0D01*
G01*
X6613Y12820D02*
G03*
X6797Y12896I0J259D01*
G01*
D02*
G03*
X6721Y12713I183J-183D01*
G01*
X9200Y3074D02*
G03*
X9083Y3357I-400J0D01*
G01*
X9200Y2832D02*
G03*
X9012Y3286I-642J0D01*
G01*
X8800Y2832D02*
G03*
X8729Y3003I-242J0D01*
G01*
X8800Y2591D02*
G03*
X8659Y2932I-483J0D01*
G01*
X8435Y2507D02*
G03*
X8376Y2650I-202J0D01*
G01*
X8435Y2265D02*
G03*
X8305Y2579I-443J0D01*
G01*
X8103Y2225D02*
G03*
X8050Y2096I129J-129D01*
G01*
Y1987D02*
G03*
X7951Y2225I-337J0D01*
G01*
X7750Y1746D02*
G03*
X7669Y1942I-278J0D01*
G01*
X7750Y1504D02*
G03*
X7598Y1872I-519J0D01*
G01*
X7400Y1384D02*
G03*
X7315Y1589I-290J0D01*
G01*
X7400Y1142D02*
G03*
X7244Y1518I-531J0D01*
G01*
X7050Y1022D02*
G03*
X6961Y1235I-302J0D01*
G01*
X7050Y780D02*
G03*
X6891Y1165I-544J0D01*
G01*
X6700Y659D02*
G03*
X6608Y882I-314J0D01*
G01*
X6700Y418D02*
G03*
X6537Y811I-556J0D01*
G01*
X1996Y-788D02*
G03*
X1745Y-685I-251J-251D01*
G01*
D02*
G03*
X1996Y-581I0J355D01*
G01*
X1842Y58D02*
G03*
X2100Y-49I258J258D01*
G01*
X1671Y229D02*
G03*
X2100Y51I429J429D01*
G01*
X1501Y399D02*
G03*
X2100Y151I599J599D01*
G01*
X2237Y38D02*
G03*
X2315Y-15I79J31D01*
G01*
D02*
G03*
X2237Y-69I0J-84D01*
G01*
X2328Y-28D02*
G03*
X2076Y12I-154J-154D01*
G01*
X2426Y-126D02*
G03*
X2121Y-77I-187J-187D01*
G01*
X997Y13515D02*
G03*
X1076Y13324I270J0D01*
G01*
X1160Y13239D02*
G03*
X850Y13368I-311J-311D01*
G01*
X954Y12742D02*
G03*
X850Y12491I251J-251D01*
G01*
D02*
G03*
X746Y12742I-355J0D01*
G01*
X254D02*
G03*
X150Y12491I251J-251D01*
G01*
D02*
G03*
X46Y12742I-355J0D01*
G01*
X61Y13671D02*
G03*
X150Y13850I-135J179D01*
G01*
D02*
G03*
X239Y13671I224J0D01*
G01*
X-652Y13660D02*
G03*
X-550Y13900I-231J240D01*
G01*
D02*
G03*
X-448Y13660I333J0D01*
G01*
X-446Y12762D02*
G03*
X-550Y12511I251J-251D01*
G01*
D02*
G03*
X-654Y12762I-355J0D01*
G01*
X1613Y12087D02*
G03*
X1849Y11997I218J218D01*
G01*
X1456Y12244D02*
G03*
X1843Y12097I358J358D01*
G01*
X1298Y12402D02*
G03*
X1837Y12197I499J499D01*
G01*
X2431Y12154D02*
G03*
X2535Y12405I-251J251D01*
G01*
D02*
G03*
X2638Y12154I355J0D01*
G01*
X1633Y12567D02*
G03*
X1881Y12560I128J128D01*
G01*
X1558Y12642D02*
G03*
X1814Y12635I132J132D01*
G01*
X1483Y12717D02*
G03*
X1748Y12710I137J137D01*
G01*
X1716Y12530D02*
G03*
X1600Y12600I-116J-63D01*
G01*
D02*
G03*
X1716Y12670I0J132D01*
G01*
X2431Y12704D02*
G03*
X2535Y12955I-251J251D01*
G01*
D02*
G03*
X2638Y12704I355J0D01*
G01*
Y12496D02*
G03*
X2535Y12245I251J-251D01*
G01*
D02*
G03*
X2431Y12496I-355J0D01*
G01*
X1780Y13270D02*
G03*
X1865Y13435I-117J165D01*
G01*
D02*
G03*
X1950Y13270I202J0D01*
G01*
X2658Y13254D02*
G03*
X2909Y13150I251J251D01*
G01*
D02*
G03*
X2658Y13046I0J-355D01*
G01*
X2638D02*
G03*
X2535Y12795I251J-251D01*
G01*
D02*
G03*
X2431Y13046I-355J0D01*
G01*
Y13254D02*
G03*
X2535Y13505I-251J251D01*
G01*
D02*
G03*
X2638Y13254I355J0D01*
G01*
X-675Y4140D02*
G03*
X-737Y3990I150J-150D01*
G01*
D02*
G03*
X-799Y4140I-212J0D01*
G01*
Y2552D02*
G03*
X-737Y2702I-150J150D01*
G01*
D02*
G03*
X-675Y2552I212J0D01*
G01*
Y2132D02*
G03*
X-737Y1983I150J-150D01*
G01*
D02*
G03*
X-799Y2132I-212J0D01*
G01*
X-283Y2292D02*
G03*
X-12Y2404I0J383D01*
G01*
X3042Y13046D02*
G03*
X2791Y13150I-251J-251D01*
G01*
D02*
G03*
X3042Y13254I0J355D01*
G01*
X208Y-846D02*
G03*
X459Y-950I251J251D01*
G01*
D02*
G03*
X208Y-1054I0J-355D01*
G01*
X-548Y-713D02*
G03*
X-616Y-963I185J-185D01*
G01*
X-424Y-589D02*
G03*
X-520Y-938I258J-258D01*
G01*
X-300Y-465D02*
G03*
X-423Y-914I332J-332D01*
G01*
X-617Y-813D02*
G03*
X-550Y-715I-37J97D01*
G01*
Y-715D02*
G03*
X-489Y-825I128J0D01*
G01*
X6574Y-2426D02*
G03*
X6501Y-2602I176J-176D01*
G01*
X6103Y-2568D02*
G03*
X6137Y-2485I-83J83D01*
G01*
D02*
G03*
X6172Y-2568I117J0D01*
G01*
X6125Y-2484D02*
G03*
X6087Y-2613I99J-99D01*
G01*
X6255Y-2355D02*
G03*
X6185Y-2592I183J-183D01*
G01*
X7048Y-2568D02*
G03*
X7082Y-2485I-83J83D01*
G01*
D02*
G03*
X7117Y-2568I117J0D01*
G01*
X6781Y-2446D02*
G03*
X6716Y-2602I157J-157D01*
G01*
X6951Y-2275D02*
G03*
X6816Y-2602I327J-327D01*
G01*
X6733Y-2568D02*
G03*
X6767Y-2485I-83J83D01*
G01*
D02*
G03*
X6802Y-2568I117J0D01*
G01*
X7363D02*
G03*
X7397Y-2485I-83J83D01*
G01*
D02*
G03*
X7431Y-2568I117J0D01*
G01*
X4528D02*
G03*
X4563Y-2485I-83J83D01*
G01*
D02*
G03*
X4597Y-2568I117J0D01*
G01*
X4843D02*
G03*
X4878Y-2485I-83J83D01*
G01*
D02*
G03*
X4912Y-2568I117J0D01*
G01*
X5823Y-2477D02*
G03*
X5771Y-2602I125J-125D01*
G01*
X5993Y-2307D02*
G03*
X5871Y-2602I296J-296D01*
G01*
X5788Y-2568D02*
G03*
X5822Y-2485I-83J83D01*
G01*
D02*
G03*
X5857Y-2568I117J0D01*
G01*
X10500Y10943D02*
Y11040D01*
X9800Y10243D02*
X10500Y10943D01*
X-550Y-950D02*
Y-715D01*
X7887Y12013D02*
X7900Y12000D01*
X7887Y12013D02*
Y12563D01*
X6937Y13037D02*
X7413D01*
X6850Y12950D02*
X6937Y13037D01*
X6850Y12950D02*
Y12950D01*
X6460Y12560D02*
X6850Y12950D01*
X783Y-1000D02*
X1098Y-685D01*
X2100D01*
X733Y-950D02*
X783Y-1000D01*
X50Y-950D02*
X733D01*
X-550Y-715D02*
X-300Y-465D01*
Y300D01*
X-687Y687D02*
X-300Y300D01*
X256Y1100D02*
X1400D01*
X2050Y450D01*
X255Y1100D02*
X256Y1100D01*
X-275Y1100D02*
X255D01*
X-687Y687D02*
X-275Y1100D01*
X1915Y-15D02*
X2100D01*
X1213Y687D02*
X1915Y-15D01*
X100Y687D02*
X1213D01*
X2315Y-15D02*
X2407Y-107D01*
X2350Y-1200D02*
X2407Y-1143D01*
Y-107D01*
X2100Y-15D02*
X2315D01*
X-350Y2300D02*
X-342Y2292D01*
X50D01*
X-737D02*
Y4300D01*
Y1525D02*
Y2292D01*
Y1525D02*
X-687Y1475D01*
X-550Y8050D02*
X-110Y7610D01*
X-550Y8050D02*
Y12865D01*
X-360Y8567D02*
Y11910D01*
Y8567D02*
X244Y7964D01*
X150Y12420D02*
Y12865D01*
X-360Y11910D02*
X150Y12420D01*
X1500Y10050D02*
Y11650D01*
X850Y12300D02*
X1500Y11650D01*
X400Y8514D02*
X597Y8317D01*
X400Y8514D02*
Y8950D01*
X1500Y10050D01*
X850Y12300D02*
Y12865D01*
X1240Y14060D02*
X1865Y13435D01*
X-550Y13535D02*
Y13900D01*
X-390Y14060D01*
X1240D01*
X1865Y13150D02*
Y13435D01*
X1360Y12840D02*
X1600Y12600D01*
X150Y13535D02*
Y13850D01*
X200Y13900D01*
X1100D01*
X1360Y13640D01*
Y12840D02*
Y13640D01*
X1600Y12600D02*
X1865D01*
X1200Y12500D02*
X1650Y12050D01*
X850Y13535D02*
X865D01*
X1200Y13200D01*
Y12500D02*
Y13200D01*
X1650Y12050D02*
X1865D01*
Y13150D02*
Y13335D01*
X1846Y12600D02*
X1865D01*
X2535Y13150D02*
Y13505D01*
X2210Y13830D02*
X2535Y13505D01*
Y12600D02*
Y13150D01*
Y12050D02*
Y12600D01*
Y13150D02*
X3165D01*
X4957D02*
X5193Y12913D01*
X-800Y6600D02*
X-750D01*
X-493Y6343D02*
X-463D01*
X7190Y13850D02*
X7210Y13830D01*
X5850Y13170D02*
Y13200D01*
X5193Y12913D02*
Y13093D01*
X11763Y6343D02*
X11793D01*
X12050Y6950D02*
Y6970D01*
X6700Y-1100D02*
Y800D01*
X5750Y-2050D02*
X6700Y-1100D01*
X4800Y-2050D02*
X5750D01*
X4563Y-2287D02*
X4800Y-2050D01*
X4563Y-3213D02*
Y-2287D01*
X4878Y-3213D02*
Y-2422D01*
X5050Y-2250D01*
X5800D01*
X5822Y-3213D02*
Y-2478D01*
X6137Y-3213D02*
Y-2472D01*
X6255Y-2355D02*
X6309Y-2300D01*
X6137Y-2472D02*
X6255Y-2355D01*
X7750Y-859D01*
X7400Y-900D02*
Y1514D01*
X5822Y-2478D02*
X7400Y-900D01*
X7050Y-1000D02*
Y1157D01*
X5800Y-2250D02*
X7050Y-1000D01*
X7750Y-859D02*
Y1872D01*
X6452Y-2548D02*
X8050Y-950D01*
X6767Y-2459D02*
X8220Y-1006D01*
X6767Y-3213D02*
Y-2459D01*
X7082Y-2418D02*
X8380Y-1120D01*
X7082Y-3213D02*
Y-2418D01*
X7497Y-2300D02*
X8540Y-1257D01*
X7397Y-2400D02*
X7497Y-2300D01*
X7397Y-3213D02*
Y-2400D01*
X8540Y-767D02*
Y1814D01*
Y-1257D02*
Y-767D01*
X8380Y-834D02*
Y1890D01*
Y-1120D02*
Y-834D01*
X8220Y-1006D02*
Y1956D01*
X8050Y-950D02*
Y2279D01*
X8800Y2400D02*
Y2943D01*
Y2300D02*
Y2400D01*
X8390Y1890D02*
X8800Y2300D01*
X9200Y2474D02*
Y3250D01*
X8540Y1814D02*
X9200Y2474D01*
X8435Y2161D02*
Y2601D01*
X8324Y2050D02*
X8435Y2161D01*
X8314Y2050D02*
X8324D01*
X8220Y1956D02*
X8314Y2050D01*
D12*
X9800Y10193D02*
G03*
X9715Y10158I0J-121D01*
G01*
X9715Y10158D02*
G03*
X9750Y10243I-85J85D01*
G01*
X8897Y9340D02*
G03*
X8860Y9250I90J-90D01*
G01*
X9043Y10850D02*
G03*
X8958Y10815I0J-121D01*
G01*
X8958Y10815D02*
G03*
X8993Y10900I-85J85D01*
G01*
X8100Y10007D02*
G03*
X8185Y10042I0J121D01*
G01*
X8185Y10042D02*
G03*
X8150Y9957I85J-85D01*
G01*
X5008Y4208D02*
G03*
X4786Y4300I-222J-222D01*
G01*
D02*
G03*
X5008Y4392I0J314D01*
G01*
X2465Y6635D02*
G03*
X2500Y6721I-85J85D01*
G01*
D02*
G03*
X2535Y6635I121J0D01*
G01*
X2065Y6685D02*
G03*
X2100Y6771I-85J85D01*
G01*
D02*
G03*
X2135Y6685I121J0D01*
G01*
X5023Y3623D02*
G03*
X4802Y3715I-222J-222D01*
G01*
D02*
G03*
X5023Y3807I0J314D01*
G01*
X5915Y285D02*
G03*
X6000Y491I-206J206D01*
G01*
X1898Y9225D02*
G03*
X1960Y9075I211J0D01*
G01*
X1960Y9075D02*
G03*
X1811Y9137I-149J-149D01*
G01*
X2252Y9578D02*
G03*
X2314Y9429I211J0D01*
G01*
X2314Y9429D02*
G03*
X2165Y9491I-149J-149D01*
G01*
X4978Y13005D02*
G03*
X4628Y13150I-351J-351D01*
G01*
X8735Y10679D02*
G03*
X8884Y10741I0J211D01*
G01*
X8884Y10741D02*
G03*
X8822Y10592I149J-149D01*
G01*
X8428Y10198D02*
G03*
X8279Y10136I0J-211D01*
G01*
X8279Y10136D02*
G03*
X8341Y10285I-149J149D01*
G01*
X9088Y10326D02*
G03*
X9237Y10387I0J211D01*
G01*
X9237Y10387D02*
G03*
X9176Y10238I149J-149D01*
G01*
X9442Y9972D02*
G03*
X9591Y10034I0J211D01*
G01*
X9591Y10034D02*
G03*
X9529Y9885I149J-149D01*
G01*
X9135Y9491D02*
G03*
X8986Y9429I0J-211D01*
G01*
X8986Y9429D02*
G03*
X9048Y9578I-149J149D01*
G01*
X6240Y725D02*
G03*
X6000Y459I27J-266D01*
G01*
X6254Y586D02*
G03*
X6000Y304I29J-282D01*
G01*
X3225Y3048D02*
G03*
X3375Y3110I0J211D01*
G01*
X3375Y3110D02*
G03*
X3313Y2961I149J-149D01*
G01*
X2872Y3402D02*
G03*
X3021Y3464I0J211D01*
G01*
X3021Y3464D02*
G03*
X2959Y3315I149J-149D01*
G01*
X9400Y13033D02*
G03*
X9307Y13257I-317J0D01*
G01*
X9400Y12695D02*
G03*
X9208Y13158I-655J0D01*
G01*
X3944Y13240D02*
G03*
X4161Y13150I217J217D01*
G01*
D02*
G03*
X3944Y13060I0J-306D01*
G01*
X3835Y13150D02*
X4957D01*
X6000Y250D02*
Y580D01*
X5950Y250D02*
X6000D01*
Y580D02*
X6107Y687D01*
X3980Y3715D02*
X5115D01*
X3072Y2808D02*
X3980Y3715D01*
X3857Y4300D02*
X5100D01*
X3392Y3835D02*
X3857Y4300D01*
X2719Y3161D02*
X3392Y3835D01*
X1658Y9378D02*
X2100Y8936D01*
Y6650D02*
Y8936D01*
X2011Y9731D02*
X2500Y9243D01*
Y6600D02*
Y9243D01*
X9400Y10550D02*
Y13670D01*
X8935Y10085D02*
X9400Y10550D01*
X8100Y9957D02*
X8581Y10439D01*
X9043Y10900D01*
X8757Y9200D02*
X9289Y9731D01*
X9800Y10243D01*
X6060Y687D02*
X6107D01*
X6113D01*
X6137D01*
D13*
X-680Y6531D02*
G03*
X-800Y6580I-120J-120D01*
G01*
Y7070D02*
G03*
X-544Y7176I0J362D01*
G01*
X10079Y-1109D02*
G03*
X9917Y-1499I390J-390D01*
G01*
Y-1580D02*
G03*
X9721Y-1109I-667J0D01*
G01*
X7031Y13651D02*
G03*
X6552Y13850I-479J-479D01*
G01*
X6649D02*
G03*
X7031Y14009I0J541D01*
G01*
X5040Y13124D02*
G03*
X5354Y13254I0J443D01*
G01*
X11763Y6401D02*
G03*
X11913Y6463I0J211D01*
G01*
X-613D02*
G03*
X-463Y6401I149J149D01*
G01*
X50Y4300D02*
Y4850D01*
X-800Y7050D02*
X-670D01*
X-463Y7257D01*
X-750Y6600D02*
X-493Y6343D01*
X6400Y13850D02*
X7190D01*
X5950D02*
X6400D01*
X5750Y13650D02*
X5950Y13850D01*
X5400Y13300D02*
X5750Y13650D01*
X5850Y13170D02*
X6107Y12913D01*
X5193Y13093D02*
X5400Y13300D01*
X11793Y6343D02*
X12050Y6600D01*
X11763Y7257D02*
X12050Y6970D01*
X5500Y350D02*
Y380D01*
X5193Y687D02*
X5500Y380D01*
X783Y-1617D02*
Y-1000D01*
X-585Y7135D02*
X-463Y7257D01*
X783Y-1917D02*
Y-1617D01*
Y-2217D02*
Y-1917D01*
X9917Y-3213D02*
Y-1000D01*
X783Y-3213D02*
Y-2217D01*
D14*
X2043Y-3213D02*
D03*
X1413D02*
D03*
X1728D02*
D03*
X783D02*
D03*
X1098D02*
D03*
X3933D02*
D03*
X3618D02*
D03*
X2988D02*
D03*
X3303D02*
D03*
X2358D02*
D03*
X2673D02*
D03*
X5822D02*
D03*
X5507D02*
D03*
X4878D02*
D03*
X5193D02*
D03*
X4248D02*
D03*
X4563D02*
D03*
X7712D02*
D03*
X7397D02*
D03*
X6767D02*
D03*
X7082D02*
D03*
X6137D02*
D03*
X6452D02*
D03*
X8027D02*
D03*
X8657D02*
D03*
X8342D02*
D03*
X9287D02*
D03*
X8972D02*
D03*
X9602D02*
D03*
X9917D02*
D03*
D15*
X-585Y-950D02*
D03*
X85D02*
D03*
X3835Y13150D02*
D03*
X3165D02*
D03*
X2535D02*
D03*
X1865D02*
D03*
X2535Y12600D02*
D03*
X1865D02*
D03*
X2535Y12050D02*
D03*
X1865D02*
D03*
X-550Y12865D02*
D03*
D16*
X50Y4350D02*
D03*
Y2342D02*
D03*
X-737D02*
D03*
Y4350D02*
D03*
D17*
X-550Y13535D02*
D03*
X150D02*
D03*
Y12865D02*
D03*
X850D02*
D03*
Y13535D02*
D03*
X2100Y-15D02*
D03*
Y-685D02*
D03*
D18*
X11900Y13550D02*
D03*
X9300D02*
D03*
D19*
X-463Y6343D02*
D03*
X-110Y5990D02*
D03*
X244Y5636D02*
D03*
X597Y5283D02*
D03*
X951Y4929D02*
D03*
X1304Y4576D02*
D03*
X1658Y4222D02*
D03*
X2011Y3869D02*
D03*
X2365Y3515D02*
D03*
X2719Y3161D02*
D03*
X3072Y2808D02*
D03*
X3426Y2454D02*
D03*
X3779Y2101D02*
D03*
X4133Y1747D02*
D03*
X4486Y1394D02*
D03*
X4840Y1040D02*
D03*
X5193Y687D02*
D03*
X11763Y7257D02*
D03*
X11410Y7610D02*
D03*
X11056Y7964D02*
D03*
X10703Y8317D02*
D03*
X10349Y8671D02*
D03*
X9996Y9024D02*
D03*
X9642Y9378D02*
D03*
X9289Y9731D02*
D03*
X8935Y10085D02*
D03*
X8581Y10439D02*
D03*
X8228Y10792D02*
D03*
X7874Y11146D02*
D03*
X7521Y11499D02*
D03*
X7167Y11853D02*
D03*
X6814Y12206D02*
D03*
X6460Y12560D02*
D03*
X6107Y12913D02*
D03*
D20*
Y687D02*
D03*
X6460Y1040D02*
D03*
X6814Y1394D02*
D03*
X7167Y1747D02*
D03*
X7521Y2101D02*
D03*
X7874Y2454D02*
D03*
X8228Y2808D02*
D03*
X8581Y3161D02*
D03*
X8935Y3515D02*
D03*
X9289Y3869D02*
D03*
X9642Y4222D02*
D03*
X9996Y4576D02*
D03*
X10349Y4929D02*
D03*
X10703Y5283D02*
D03*
X11056Y5636D02*
D03*
X11410Y5990D02*
D03*
X11763Y6343D02*
D03*
X5193Y12913D02*
D03*
X4840Y12560D02*
D03*
X4486Y12206D02*
D03*
X4133Y11853D02*
D03*
X3779Y11499D02*
D03*
X3426Y11146D02*
D03*
X3072Y10792D02*
D03*
X2719Y10439D02*
D03*
X2365Y10085D02*
D03*
X2011Y9731D02*
D03*
X1658Y9378D02*
D03*
X1304Y9024D02*
D03*
X951Y8671D02*
D03*
X597Y8317D02*
D03*
X244Y7964D02*
D03*
X-110Y7610D02*
D03*
X-463Y7257D02*
D03*
D21*
X7887Y12563D02*
D03*
X7413Y13037D02*
D03*
D22*
X7210Y13830D02*
D03*
X2210D02*
D03*
X800Y-1000D02*
D03*
X9900Y-930D02*
D03*
D23*
X100Y-100D02*
D03*
D24*
X-687D02*
D03*
X100Y687D02*
D03*
X-687D02*
D03*
X100Y1475D02*
D03*
X-687D02*
D03*
D25*
X2050Y450D02*
D03*
X2350Y-1200D02*
D03*
X-350Y2300D02*
D03*
X50Y4850D02*
D03*
X1528Y8178D02*
D03*
X1750Y8400D02*
D03*
X1318Y7968D02*
D03*
X1000Y7650D02*
D03*
X693Y7343D02*
D03*
X550Y6500D02*
D03*
Y6150D02*
D03*
X-800Y7050D02*
D03*
Y6600D02*
D03*
X5750Y11150D02*
D03*
Y10800D02*
D03*
Y11450D02*
D03*
X5315Y11500D02*
D03*
Y11250D02*
D03*
Y11000D02*
D03*
Y10750D02*
D03*
Y10500D02*
D03*
X5750D02*
D03*
X6400Y13850D02*
D03*
X5950D02*
D03*
X5750Y13650D02*
D03*
X5850Y13200D02*
D03*
X5400Y13300D02*
D03*
X9950Y7069D02*
D03*
X10450Y7350D02*
D03*
X10200D02*
D03*
X10450Y7085D02*
D03*
X10200D02*
D03*
X10550Y6100D02*
D03*
Y6400D02*
D03*
X10250Y5800D02*
D03*
X12050Y6600D02*
D03*
Y6950D02*
D03*
X6035Y1700D02*
D03*
Y1950D02*
D03*
Y2185D02*
D03*
X5365Y1700D02*
D03*
Y1950D02*
D03*
Y2200D02*
D03*
X5950Y250D02*
D03*
X5500Y350D02*
D03*
X9917Y-1450D02*
D03*
Y-2100D02*
D03*
X5200Y-1800D02*
D03*
Y-1500D02*
D03*
Y-1150D02*
D03*
Y-800D02*
D03*
Y-500D02*
D03*
X5500Y-1500D02*
D03*
Y-1150D02*
D03*
Y-800D02*
D03*
X5507Y-1800D02*
D03*
X5500Y-500D02*
D03*
X4550Y2750D02*
D03*
Y2300D02*
D03*
Y3150D02*
D03*
X4800Y3350D02*
D03*
X2100Y6650D02*
D03*
X2500Y6600D02*
D03*
X1750D02*
D03*
X1450Y6950D02*
D03*
X1250Y6600D02*
D03*
X7900Y12000D02*
D03*
X783Y-2217D02*
D03*
X9700Y6200D02*
D03*
X3000Y6600D02*
D03*
X3300D02*
D03*
X3600D02*
D03*
X3900D02*
D03*
X4200D02*
D03*
X4500D02*
D03*
X4800D02*
D03*
X5100D02*
D03*
X7000Y6200D02*
D03*
X7300D02*
D03*
X7600D02*
D03*
X7900D02*
D03*
X8200D02*
D03*
X8100Y9957D02*
D03*
X9043Y10900D02*
D03*
X8810Y9250D02*
D03*
X9800Y10243D02*
D03*
X8500Y6200D02*
D03*
X8800D02*
D03*
X9100D02*
D03*
X9400D02*
D03*
X7450Y5050D02*
D03*
X5950Y7650D02*
D03*
X783Y-1617D02*
D03*
Y-1917D02*
D03*
X8590Y9030D02*
D03*
X8360Y9260D02*
D03*
X8580Y9480D02*
D03*
X8330Y9730D02*
D03*
X8110Y9510D02*
D03*
X7880Y9740D02*
D03*
X7660Y9520D02*
D03*
X7890Y9290D02*
D03*
X8140Y9040D02*
D03*
X8370Y8810D02*
D03*
X9920Y-1760D02*
D03*
X10000Y6200D02*
D03*
D26*
X5115Y3715D02*
D03*
X5100Y4300D02*
D03*
D27*
X10500Y11000D02*
D03*
X500D02*
D03*
M02*
