%FSLAX24Y24*%
%MOIN*%
G70*
G01*
G75*
G04 Layer_Physical_Order=4*
G04 Layer_Color=16711680*
%ADD10C,0.0060*%
%ADD11C,0.0100*%
%ADD12C,0.0140*%
%ADD13C,0.0200*%
%ADD14R,0.0197X0.1417*%
%ADD15R,0.0433X0.0394*%
%ADD16R,0.0276X0.0571*%
%ADD17R,0.0394X0.0433*%
%ADD18R,0.0400X0.1000*%
G04:AMPARAMS|DCode=19|XSize=31.5mil|YSize=74.8mil|CornerRadius=0mil|HoleSize=0mil|Usage=FLASHONLY|Rotation=135.000|XOffset=0mil|YOffset=0mil|HoleType=Round|Shape=Round|*
%AMOVALD19*
21,1,0.0433,0.0315,0.0000,0.0000,225.0*
1,1,0.0315,0.0153,0.0153*
1,1,0.0315,-0.0153,-0.0153*
%
%ADD19OVALD19*%

G04:AMPARAMS|DCode=20|XSize=31.5mil|YSize=74.8mil|CornerRadius=0mil|HoleSize=0mil|Usage=FLASHONLY|Rotation=45.000|XOffset=0mil|YOffset=0mil|HoleType=Round|Shape=Round|*
%AMOVALD20*
21,1,0.0433,0.0315,0.0000,0.0000,135.0*
1,1,0.0315,0.0153,-0.0153*
1,1,0.0315,-0.0153,0.0153*
%
%ADD20OVALD20*%

G04:AMPARAMS|DCode=21|XSize=39.4mil|YSize=43.3mil|CornerRadius=0mil|HoleSize=0mil|Usage=FLASHONLY|Rotation=45.000|XOffset=0mil|YOffset=0mil|HoleType=Round|Shape=Rectangle|*
%AMROTATEDRECTD21*
4,1,4,0.0014,-0.0292,-0.0292,0.0014,-0.0014,0.0292,0.0292,-0.0014,0.0014,-0.0292,0.0*
%
%ADD21ROTATEDRECTD21*%

%ADD22C,0.0705*%
%ADD23R,0.0530X0.0530*%
%ADD24C,0.0530*%
%ADD25C,0.0240*%
%ADD26C,0.0400*%
%ADD27C,0.1500*%
%ADD28C,0.0400*%
G04:AMPARAMS|DCode=29|XSize=94mil|YSize=94mil|CornerRadius=0mil|HoleSize=0mil|Usage=FLASHONLY|Rotation=0.000|XOffset=0mil|YOffset=0mil|HoleType=Round|Shape=Relief|Width=8mil|Gap=10mil|Entries=4|*
%AMTHD29*
7,0,0,0.0940,0.0740,0.0080,45*
%
%ADD29THD29*%
%ADD30C,0.0780*%
%ADD31C,0.0594*%
G04:AMPARAMS|DCode=32|XSize=75.433mil|YSize=75.433mil|CornerRadius=0mil|HoleSize=0mil|Usage=FLASHONLY|Rotation=0.000|XOffset=0mil|YOffset=0mil|HoleType=Round|Shape=Relief|Width=8mil|Gap=10mil|Entries=4|*
%AMTHD32*
7,0,0,0.0754,0.0554,0.0080,45*
%
%ADD32THD32*%
%ADD33C,0.0320*%
%ADD34C,0.0440*%
%ADD35R,0.0669X0.0827*%
G36*
X11550Y7361D02*
X11540D01*
Y7085D01*
X11460D01*
Y7361D01*
X11243D01*
D01*
D01*
X11243Y7361D01*
X11207D01*
Y7361D01*
X10990D01*
Y7085D01*
X10950D01*
Y7045D01*
X10693D01*
Y6950D01*
X9800D01*
Y7500D01*
X11550D01*
Y7361D01*
D02*
G37*
%LPC*%
G36*
X10910D02*
X10693D01*
Y7125D01*
X10910D01*
Y7361D01*
D02*
G37*
%LPD*%
D10*
X10064Y6136D02*
G03*
X10000Y5983I154J-154D01*
G01*
D02*
G03*
X9936Y6136I-217J0D01*
G01*
X6014Y7586D02*
G03*
X5950Y7433I154J-154D01*
G01*
D02*
G03*
X5886Y7586I-217J0D01*
G01*
X7514Y4986D02*
G03*
X7450Y4833I154J-154D01*
G01*
D02*
G03*
X7386Y4986I-217J0D01*
G01*
X9464Y6136D02*
G03*
X9400Y5983I154J-154D01*
G01*
D02*
G03*
X9336Y6136I-217J0D01*
G01*
X9164D02*
G03*
X9100Y5983I154J-154D01*
G01*
D02*
G03*
X9036Y6136I-217J0D01*
G01*
X8864D02*
G03*
X8800Y5983I154J-154D01*
G01*
D02*
G03*
X8736Y6136I-217J0D01*
G01*
X8564D02*
G03*
X8500Y5983I154J-154D01*
G01*
D02*
G03*
X8436Y6136I-217J0D01*
G01*
X8264D02*
G03*
X8200Y5983I154J-154D01*
G01*
D02*
G03*
X8136Y6136I-217J0D01*
G01*
X7964D02*
G03*
X7900Y5983I154J-154D01*
G01*
D02*
G03*
X7836Y6136I-217J0D01*
G01*
X7664D02*
G03*
X7600Y5983I154J-154D01*
G01*
D02*
G03*
X7536Y6136I-217J0D01*
G01*
X7364D02*
G03*
X7300Y5983I154J-154D01*
G01*
D02*
G03*
X7236Y6136I-217J0D01*
G01*
X5100Y6510D02*
G03*
X4946Y6446I0J-217D01*
G01*
X4946Y6446D02*
G03*
X5010Y6600I-154J154D01*
G01*
X4800Y6510D02*
G03*
X4646Y6446I0J-217D01*
G01*
X4646Y6446D02*
G03*
X4710Y6600I-154J154D01*
G01*
X4500Y6510D02*
G03*
X4346Y6446I0J-217D01*
G01*
X4346Y6446D02*
G03*
X4410Y6600I-154J154D01*
G01*
X4200Y6510D02*
G03*
X4046Y6446I0J-217D01*
G01*
X4046Y6446D02*
G03*
X4110Y6600I-154J154D01*
G01*
X3900Y6510D02*
G03*
X3746Y6446I0J-217D01*
G01*
X3746Y6446D02*
G03*
X3810Y6600I-154J154D01*
G01*
X3600Y6510D02*
G03*
X3446Y6446I0J-217D01*
G01*
X3446Y6446D02*
G03*
X3510Y6600I-154J154D01*
G01*
X3300Y6510D02*
G03*
X3146Y6446I0J-217D01*
G01*
X3146Y6446D02*
G03*
X3210Y6600I-154J154D01*
G01*
X3000Y6510D02*
G03*
X2846Y6446I0J-217D01*
G01*
X2846Y6446D02*
G03*
X2910Y6600I-154J154D01*
G01*
X9764Y6136D02*
G03*
X9700Y5983I154J-154D01*
G01*
D02*
G03*
X9636Y6136I-217J0D01*
G01*
X7900Y11970D02*
G03*
X7757Y11911I0J-202D01*
G01*
X7900Y11910D02*
G03*
X7655Y11809I0J-346D01*
G01*
X7784Y11938D02*
G03*
X7810Y12000I-62J62D01*
G01*
X1314Y6536D02*
G03*
X1243Y6365I172J-172D01*
G01*
Y6401D02*
G03*
X1186Y6536I-192J0D01*
G01*
X1514Y6886D02*
G03*
X1450Y6733I154J-154D01*
G01*
D02*
G03*
X1386Y6886I-217J0D01*
G01*
X1814Y6536D02*
G03*
X1750Y6383I154J-154D01*
G01*
D02*
G03*
X1686Y6536I-217J0D01*
G01*
X4736Y3414D02*
G03*
X4800Y3567I-154J154D01*
G01*
D02*
G03*
X4864Y3414I217J0D01*
G01*
X4486Y3214D02*
G03*
X4530Y3319I-105J105D01*
G01*
Y3271D02*
G03*
X4571Y3171I141J0D01*
G01*
X4530Y3416D02*
G03*
X4614Y3214I286J0D01*
G01*
X4600Y2107D02*
G03*
X4529Y2279I-243J0D01*
G01*
X4600Y1962D02*
G03*
X4486Y2236I-388J0D01*
G01*
X4640Y2750D02*
G03*
X4704Y2596I217J0D01*
G01*
X4704Y2596D02*
G03*
X4550Y2660I-154J-154D01*
G01*
X10186Y5864D02*
G03*
X10210Y5921I-57J57D01*
G01*
Y5969D02*
G03*
X10271Y5821I209J0D01*
G01*
X10210Y6114D02*
G03*
X10314Y5864I354J0D01*
G01*
X7374Y4480D02*
G03*
X7450Y4662I-182J182D01*
G01*
X7332Y4522D02*
G03*
X7450Y4807I-285J285D01*
G01*
Y4662D02*
G03*
X7526Y4480I258J0D01*
G01*
X7450Y4807D02*
G03*
X7568Y4522I403J0D01*
G01*
X5874Y7130D02*
G03*
X5950Y7312I-182J182D01*
G01*
X5832Y7172D02*
G03*
X5950Y7457I-285J285D01*
G01*
Y7312D02*
G03*
X6026Y7130I258J0D01*
G01*
X5950Y7457D02*
G03*
X6068Y7172I403J0D01*
G01*
X5997Y6346D02*
G03*
X6098Y6102I344J0D01*
G01*
X6057Y6346D02*
G03*
X6200Y6000I489J0D01*
G01*
X6117Y6346D02*
G03*
X6302Y5898I634J0D01*
G01*
X6072Y6129D02*
G03*
X5950Y6179I-121J-121D01*
G01*
X6376Y5621D02*
G03*
X6463Y5737I-35J116D01*
G01*
D02*
G03*
X6550Y5621I121J0D01*
G01*
X1050Y-2554D02*
G03*
X1098Y-2437I-117J117D01*
G01*
D02*
G03*
X1146Y-2554I165J0D01*
G01*
X1680D02*
G03*
X1728Y-2437I-117J117D01*
G01*
D02*
G03*
X1776Y-2554I165J0D01*
G01*
X1365D02*
G03*
X1413Y-2437I-117J117D01*
G01*
D02*
G03*
X1461Y-2554I165J0D01*
G01*
X9554D02*
G03*
X9602Y-2437I-117J117D01*
G01*
D02*
G03*
X9650Y-2554I165J0D01*
G01*
X8924D02*
G03*
X8972Y-2437I-117J117D01*
G01*
D02*
G03*
X9020Y-2554I165J0D01*
G01*
X9239D02*
G03*
X9287Y-2437I-117J117D01*
G01*
D02*
G03*
X9335Y-2554I165J0D01*
G01*
X8294D02*
G03*
X8342Y-2437I-117J117D01*
G01*
D02*
G03*
X8391Y-2554I165J0D01*
G01*
X8609D02*
G03*
X8657Y-2437I-117J117D01*
G01*
D02*
G03*
X8705Y-2554I165J0D01*
G01*
X7979Y-2553D02*
G03*
X8027Y-2440I-111J113D01*
G01*
D02*
G03*
X8075Y-2553I158J0D01*
G01*
X6405D02*
G03*
X6452Y-2440I-111J113D01*
G01*
D02*
G03*
X6500Y-2553I158J0D01*
G01*
X6089Y-2554D02*
G03*
X6137Y-2437I-117J117D01*
G01*
D02*
G03*
X6186Y-2554I165J0D01*
G01*
X7035Y-2553D02*
G03*
X7082Y-2440I-111J113D01*
G01*
D02*
G03*
X7130Y-2553I158J0D01*
G01*
X6720D02*
G03*
X6767Y-2440I-111J113D01*
G01*
D02*
G03*
X6815Y-2553I158J0D01*
G01*
X7349D02*
G03*
X7397Y-2440I-111J113D01*
G01*
D02*
G03*
X7445Y-2553I158J0D01*
G01*
X7664D02*
G03*
X7712Y-2440I-111J113D01*
G01*
D02*
G03*
X7760Y-2553I158J0D01*
G01*
X4514Y-2554D02*
G03*
X4563Y-2437I-117J117D01*
G01*
D02*
G03*
X4611Y-2554I165J0D01*
G01*
X4199D02*
G03*
X4248Y-2437I-117J117D01*
G01*
D02*
G03*
X4296Y-2554I165J0D01*
G01*
X4829D02*
G03*
X4878Y-2437I-117J117D01*
G01*
D02*
G03*
X4926Y-2554I165J0D01*
G01*
X5774D02*
G03*
X5822Y-2437I-117J117D01*
G01*
D02*
G03*
X5871Y-2554I165J0D01*
G01*
X2624D02*
G03*
X2673Y-2437I-117J117D01*
G01*
D02*
G03*
X2721Y-2554I165J0D01*
G01*
X3254D02*
G03*
X3303Y-2437I-117J117D01*
G01*
D02*
G03*
X3351Y-2554I165J0D01*
G01*
X2939D02*
G03*
X2988Y-2437I-117J117D01*
G01*
D02*
G03*
X3036Y-2554I165J0D01*
G01*
X3569D02*
G03*
X3618Y-2437I-117J117D01*
G01*
D02*
G03*
X3666Y-2554I165J0D01*
G01*
X3884D02*
G03*
X3933Y-2437I-117J117D01*
G01*
D02*
G03*
X3981Y-2554I165J0D01*
G01*
X-687Y1590D02*
G03*
X-491Y1671I0J278D01*
G01*
X-687Y1650D02*
G03*
X-389Y1774I0J422D01*
G01*
X-687Y1710D02*
G03*
X-286Y1876I0J567D01*
G01*
X-491Y1671D02*
G03*
X-572Y1475I196J-196D01*
G01*
X-389Y1774D02*
G03*
X-512Y1475I299J-299D01*
G01*
X-286Y1876D02*
G03*
X-452Y1475I401J-401D01*
G01*
X19Y1556D02*
G03*
X100Y1752I-196J196D01*
G01*
X-24Y1599D02*
G03*
X100Y1897I-299J299D01*
G01*
X-66Y1641D02*
G03*
X100Y2042I-401J401D01*
G01*
Y1752D02*
G03*
X181Y1556I278J0D01*
G01*
X100Y1897D02*
G03*
X224Y1599I422J0D01*
G01*
X100Y2042D02*
G03*
X266Y1641I567J0D01*
G01*
X10200Y5850D02*
X10300D01*
X10200D02*
X10210Y5860D01*
X4800Y3350D02*
Y5700D01*
X5600Y6500D01*
Y6633D01*
Y6700D01*
X4830Y7470D02*
X5600Y6700D01*
X4731Y7470D02*
X4830D01*
X1250D02*
X4731D01*
X850Y7070D02*
X1250Y7470D01*
X850Y3012D02*
Y7070D01*
X-687Y1475D02*
X850Y3012D01*
X4530Y3250D02*
X4638Y3142D01*
X4530Y3250D02*
Y5733D01*
X5187Y6390D01*
X5310Y6513D01*
Y6800D01*
X4760Y7350D02*
X5310Y6800D01*
X1300Y7350D02*
X4760D01*
X1000Y7050D02*
X1300Y7350D01*
X1000Y2993D02*
Y7050D01*
X100Y2093D02*
X1000Y2993D01*
X100Y1475D02*
Y2093D01*
X7847Y12000D02*
X7900D01*
X7300Y11453D02*
X7847Y12000D01*
X7300Y9200D02*
Y11453D01*
Y9200D02*
X10210Y6290D01*
Y5860D02*
Y6290D01*
X10250Y5800D02*
X10300Y5850D01*
X5500Y-1500D02*
X5507Y-1507D01*
X4950Y-250D02*
X5600D01*
X4550Y2750D02*
X4850Y2450D01*
Y150D02*
Y2450D01*
X5650Y-130D02*
X6137Y-618D01*
Y-3213D02*
Y-618D01*
X4850Y150D02*
X5130Y-130D01*
X5650D01*
X5822Y-478D02*
X5825Y-475D01*
X5822Y-3213D02*
Y-478D01*
X5600Y-250D02*
X5825Y-475D01*
X4600Y100D02*
X4950Y-250D01*
X4600Y100D02*
Y2250D01*
X4550Y2300D02*
X4600Y2250D01*
X4300Y377D02*
Y5800D01*
X4180Y-1280D02*
Y5980D01*
X4060Y-1330D02*
Y6160D01*
X3933Y-3213D02*
Y6333D01*
X4300Y-1200D02*
Y377D01*
X3933Y6333D02*
X4200Y6600D01*
X4060Y-1330D02*
X4248Y-1517D01*
X4060Y6160D02*
X4500Y6600D01*
X4180Y-1280D02*
X4563Y-1663D01*
X4180Y5980D02*
X4800Y6600D01*
X4300Y-1200D02*
X4878Y-1778D01*
X4300Y5800D02*
X5100Y6600D01*
X1450Y6697D02*
Y6950D01*
Y6697D02*
X1460Y6687D01*
Y6130D02*
Y6687D01*
X1413Y6083D02*
X1460Y6130D01*
X1413Y-3213D02*
Y6083D01*
X4878Y-3213D02*
Y-1778D01*
X1750Y5889D02*
Y6600D01*
X1550Y5689D02*
X1750Y5889D01*
X1550Y-1972D02*
Y5689D01*
Y-1972D02*
X1728Y-2149D01*
Y-3213D02*
Y-2149D01*
X1243Y6593D02*
X1250Y6600D01*
X1243Y-1183D02*
Y6593D01*
X1098Y-1328D02*
X1243Y-1183D01*
X1098Y-3213D02*
Y-1328D01*
X9287Y-3213D02*
Y364D01*
X9420Y497D01*
Y5078D01*
X9700Y5358D01*
Y6200D01*
X6463Y5250D02*
Y5737D01*
X5950Y6250D02*
X6463Y5737D01*
X5950Y6250D02*
Y6365D01*
X2673Y-3213D02*
Y6273D01*
X3000Y6600D01*
X2988Y-3213D02*
Y6288D01*
X3300Y6600D01*
X3303Y6303D02*
X3600Y6600D01*
X3303Y-3213D02*
Y6303D01*
X3618Y-3213D02*
Y6318D01*
X3900Y6600D01*
X4248Y-3213D02*
Y-1517D01*
X4563Y-3213D02*
Y-1663D01*
X6452Y-3213D02*
Y-2440D01*
X7000Y-1892D01*
Y-396D01*
Y6070D02*
Y6200D01*
Y-396D02*
X8340Y944D01*
X7000Y6070D02*
X8340Y4730D01*
Y944D02*
Y4730D01*
X6767Y-3213D02*
Y-2440D01*
X7300Y-1907D01*
Y-265D01*
Y5939D02*
Y6200D01*
Y-265D02*
X8460Y895D01*
X7300Y5939D02*
X8460Y4779D01*
Y895D02*
Y4779D01*
X7082Y-3213D02*
Y-2440D01*
X7600Y-1922D01*
Y-135D01*
Y5809D02*
Y6200D01*
Y-135D02*
X8580Y845D01*
X7600Y5809D02*
X8580Y4829D01*
Y845D02*
Y4829D01*
X7397Y-3213D02*
Y-2440D01*
X7900Y-1937D01*
Y-5D01*
Y5679D02*
Y6200D01*
Y-5D02*
X8700Y795D01*
X7900Y5679D02*
X8700Y4879D01*
Y795D02*
Y4879D01*
X7712Y-3213D02*
Y-2440D01*
X8200Y-1952D01*
Y126D01*
Y5549D02*
Y6200D01*
Y126D02*
X8820Y746D01*
X8200Y5549D02*
X8820Y4929D01*
Y746D02*
Y4929D01*
X8027Y-3213D02*
Y-2440D01*
X8500Y-1967D01*
Y256D02*
X8940Y696D01*
X8500Y-1967D02*
Y256D01*
Y5418D02*
Y6200D01*
X8940Y696D02*
Y4978D01*
X8500Y5418D02*
X8940Y4978D01*
X8342Y-3213D02*
Y-2295D01*
X8620Y-2017D01*
Y206D01*
X9060Y646D01*
X8800Y5288D02*
X9060Y5028D01*
X8800Y5288D02*
Y6200D01*
X9060Y646D02*
Y5028D01*
X8657Y-3213D02*
Y-2149D01*
X8740Y-2067D01*
Y156D01*
X9180Y596D01*
X9100Y5158D02*
X9180Y5078D01*
X9100Y5158D02*
Y6200D01*
X9180Y596D02*
Y5078D01*
X8972Y-3213D02*
Y219D01*
X9300Y547D01*
Y5127D01*
X9400Y5227D01*
Y6200D01*
X7450Y4385D02*
Y5050D01*
X5950Y7035D02*
Y7650D01*
X9602Y-3213D02*
Y-1902D01*
X9420Y-1720D02*
X9602Y-1902D01*
X9420Y-1720D02*
Y218D01*
X9602Y400D01*
Y5090D01*
X9640Y5128D01*
X10000Y5488D01*
Y6200D01*
D11*
X9950Y7069D02*
X9965Y7085D01*
X10550Y6400D02*
X10565Y6415D01*
D12*
X5192Y4392D02*
G03*
X5414Y4300I222J222D01*
G01*
D02*
G03*
X5192Y4208I0J-314D01*
G01*
X2535Y6565D02*
G03*
X2500Y6479I85J-85D01*
G01*
D02*
G03*
X2465Y6565I-121J0D01*
G01*
X2135Y6615D02*
G03*
X2100Y6529I85J-85D01*
G01*
D02*
G03*
X2065Y6615I-121J0D01*
G01*
X5214Y3800D02*
G03*
X5400Y3715I186J161D01*
G01*
D02*
G03*
X5214Y3630I0J-247D01*
G01*
X2358Y-1340D02*
G03*
X2315Y-1235I-148J0D01*
G01*
Y-1165D02*
G03*
X2358Y-1060I-104J104D01*
G01*
X2085Y415D02*
G03*
X2043Y312I102J-102D01*
G01*
Y588D02*
G03*
X2085Y485I145J0D01*
G01*
X7360Y3626D02*
G03*
X7144Y3715I-217J-217D01*
G01*
D02*
G03*
X7360Y3805I0J306D01*
G01*
X5213Y3193D02*
G03*
X5400Y3645I-452J452D01*
G01*
D02*
G03*
X5587Y3193I639J0D01*
G01*
X6650Y4984D02*
G03*
X6463Y4532I452J-452D01*
G01*
D02*
G03*
X6276Y4984I-639J0D01*
G01*
X2043Y-3213D02*
Y5992D01*
X5950Y250D02*
X6035Y335D01*
X5193Y-3213D02*
X5200Y-3205D01*
X2043Y5992D02*
X2100Y6049D01*
Y6650D01*
X2358Y-3213D02*
Y6258D01*
X2500Y6400D01*
Y6600D01*
X5115Y3715D02*
X5400D01*
Y2927D02*
Y3715D01*
X5100Y4300D02*
X6326D01*
X6463Y4437D01*
Y5250D01*
X5400Y3715D02*
X7450D01*
D13*
X5365Y723D02*
G03*
X5514Y364I508J0D01*
G01*
X5936Y264D02*
G03*
X6035Y503I-238J238D01*
G01*
X12036Y6936D02*
G03*
X11677Y7085I-359J-359D01*
G01*
X5414Y13286D02*
G03*
X5315Y13047I238J-238D01*
G01*
X5985Y12827D02*
G03*
X5836Y13186I-508J0D01*
G01*
X-786Y6614D02*
G03*
X-547Y6515I238J238D01*
G01*
X-427Y7185D02*
G03*
X-786Y7036I0J-508D01*
G01*
X6103Y732D02*
G03*
X6035Y566I165J-165D01*
G01*
X6035Y566D02*
G03*
X5966Y732I-234J0D01*
G01*
Y868D02*
G03*
X6035Y1034I-165J165D01*
G01*
Y1034D02*
G03*
X6103Y868I234J0D01*
G01*
X5434Y732D02*
G03*
X5365Y566I165J-165D01*
G01*
D02*
G03*
X5297Y732I-234J-0D01*
G01*
X5297Y868D02*
G03*
X5365Y1034I-165J165D01*
G01*
D02*
G03*
X5434Y868I234J-0D01*
G01*
X82Y6447D02*
G03*
X-84Y6515I-165J-165D01*
G01*
D02*
G03*
X82Y6584I0J234D01*
G01*
X218D02*
G03*
X384Y6515I165J165D01*
G01*
D02*
G03*
X218Y6447I0J-234D01*
G01*
X82Y7116D02*
G03*
X-84Y7185I-165J-165D01*
G01*
D02*
G03*
X82Y7253I0J234D01*
G01*
X218D02*
G03*
X384Y7185I165J165D01*
G01*
D02*
G03*
X218Y7116I0J-234D01*
G01*
X5384Y12482D02*
G03*
X5315Y12316I165J-165D01*
G01*
X5315Y12316D02*
G03*
X5247Y12482I-234J-0D01*
G01*
Y12618D02*
G03*
X5315Y12784I-165J165D01*
G01*
D02*
G03*
X5384Y12618I234J-0D01*
G01*
X6053Y12482D02*
G03*
X5985Y12316I165J-165D01*
G01*
X5985Y12316D02*
G03*
X5916Y12482I-234J0D01*
G01*
X5916Y12618D02*
G03*
X5985Y12784I-165J165D01*
G01*
Y12784D02*
G03*
X6053Y12618I234J0D01*
G01*
X10882Y7016D02*
G03*
X10716Y7085I-165J-165D01*
G01*
D02*
G03*
X10882Y7153I0J234D01*
G01*
X11018D02*
G03*
X11184Y7085I165J165D01*
G01*
D02*
G03*
X11018Y7016I0J-234D01*
G01*
Y6484D02*
G03*
X11184Y6415I165J165D01*
G01*
X11184D02*
G03*
X11018Y6347I0J-234D01*
G01*
X10882D02*
G03*
X10716Y6415I-165J-165D01*
G01*
X10716D02*
G03*
X10882Y6484I0J234D01*
G01*
X11432Y7016D02*
G03*
X11266Y7085I-165J-165D01*
G01*
D02*
G03*
X11432Y7153I0J234D01*
G01*
X11568D02*
G03*
X11734Y7085I165J165D01*
G01*
D02*
G03*
X11568Y7016I0J-234D01*
G01*
X11432Y6347D02*
G03*
X11266Y6415I-165J-165D01*
G01*
D02*
G03*
X11432Y6484I0J234D01*
G01*
X11568D02*
G03*
X11734Y6415I165J165D01*
G01*
D02*
G03*
X11568Y6347I0J-234D01*
G01*
X5966Y1418D02*
G03*
X6035Y1584I-165J165D01*
G01*
D02*
G03*
X6103Y1418I234J0D01*
G01*
Y1282D02*
G03*
X6035Y1116I165J-165D01*
G01*
D02*
G03*
X5966Y1282I-234J0D01*
G01*
X5297Y1418D02*
G03*
X5365Y1584I-165J165D01*
G01*
D02*
G03*
X5434Y1418I234J0D01*
G01*
Y1282D02*
G03*
X5365Y1116I165J-165D01*
G01*
D02*
G03*
X5297Y1282I-234J0D01*
G01*
X5384Y11932D02*
G03*
X5315Y11766I165J-165D01*
G01*
D02*
G03*
X5247Y11932I-234J0D01*
G01*
Y12068D02*
G03*
X5315Y12234I-165J165D01*
G01*
D02*
G03*
X5384Y12068I234J0D01*
G01*
X6053Y11932D02*
G03*
X5985Y11766I165J-165D01*
G01*
D02*
G03*
X5916Y11932I-234J0D01*
G01*
Y12068D02*
G03*
X5985Y12234I-165J165D01*
G01*
D02*
G03*
X6053Y12068I234J0D01*
G01*
X-468Y6447D02*
G03*
X-634Y6515I-165J-165D01*
G01*
D02*
G03*
X-468Y6584I-0J234D01*
G01*
X-332Y6584D02*
G03*
X-166Y6515I165J165D01*
G01*
D02*
G03*
X-332Y6447I-0J-234D01*
G01*
X-468Y7116D02*
G03*
X-634Y7185I-165J-165D01*
G01*
D02*
G03*
X-468Y7253I0J234D01*
G01*
X-332Y7253D02*
G03*
X-166Y7185I165J165D01*
G01*
X-166Y7185D02*
G03*
X-332Y7116I0J-234D01*
G01*
X-381Y7266D02*
G03*
X-674Y7176I-61J-324D01*
G01*
X-349Y7275D02*
G03*
X-611Y7239I-107J-191D01*
G01*
X-447Y7100D02*
G03*
X-798Y7052I-143J-255D01*
G01*
X50Y4850D02*
Y5150D01*
X550Y5650D01*
Y6150D01*
X150Y6515D02*
X535D01*
X-715D02*
X150D01*
X550Y6150D02*
Y6500D01*
X535Y6515D02*
X550Y6500D01*
X-800Y6600D02*
X-715Y6515D01*
X150Y7185D02*
X535D01*
X-665D02*
X150D01*
X535D02*
X1750Y8400D01*
X-800Y7050D02*
X-665Y7185D01*
X5850Y13200D02*
X5985Y13065D01*
Y11685D02*
Y13065D01*
X5750Y11450D02*
X5985Y11685D01*
X5750Y10500D02*
Y11450D01*
X5315Y10500D02*
Y13215D01*
X5400Y13300D01*
X9965Y7085D02*
X10950D01*
X10550Y6100D02*
Y6400D01*
X10565Y6415D02*
X10950D01*
X11865D01*
X12050Y6600D01*
X11500Y7085D02*
X11915D01*
X10950D02*
X11500D01*
X11915D02*
X12050Y6950D01*
X6035Y335D02*
Y1350D01*
Y2185D01*
X5365Y1350D02*
Y2200D01*
Y485D02*
Y1350D01*
Y485D02*
X5500Y350D01*
X5200Y-3205D02*
Y-500D01*
X5500Y-1500D02*
Y-500D01*
X5507Y-3134D02*
Y-1507D01*
D14*
X3933Y-3213D02*
D03*
X3618D02*
D03*
X2988D02*
D03*
X3303D02*
D03*
X2358D02*
D03*
X2673D02*
D03*
X5822D02*
D03*
X5507D02*
D03*
X4878D02*
D03*
X5193D02*
D03*
X4248D02*
D03*
X4563D02*
D03*
X7712D02*
D03*
X7397D02*
D03*
X6767D02*
D03*
X7082D02*
D03*
X6137D02*
D03*
X6452D02*
D03*
X8027D02*
D03*
X8657D02*
D03*
X8342D02*
D03*
X9287D02*
D03*
X8972D02*
D03*
X9602D02*
D03*
X9917D02*
D03*
X2043D02*
D03*
X1413D02*
D03*
X1728D02*
D03*
X783D02*
D03*
X1098D02*
D03*
D15*
X5985Y12000D02*
D03*
X5315D02*
D03*
X5365Y1350D02*
D03*
X6035D02*
D03*
X5985Y12550D02*
D03*
X5315D02*
D03*
X5365Y800D02*
D03*
X6035Y800D02*
D03*
D17*
X-400Y7185D02*
D03*
Y6515D02*
D03*
X11500Y6415D02*
D03*
Y7085D02*
D03*
X10950Y6415D02*
D03*
Y7085D02*
D03*
X150Y7185D02*
D03*
Y6515D02*
D03*
X5950Y6365D02*
D03*
Y7035D02*
D03*
X7450Y3715D02*
D03*
Y4385D02*
D03*
D22*
X7210Y13830D02*
D03*
X2210D02*
D03*
X800Y-1000D02*
D03*
X9900Y-930D02*
D03*
D23*
X100Y-100D02*
D03*
D24*
X-687D02*
D03*
X100Y687D02*
D03*
X-687D02*
D03*
X100Y1475D02*
D03*
X-687D02*
D03*
D25*
X2050Y450D02*
D03*
X2350Y-1200D02*
D03*
X-350Y2300D02*
D03*
X50Y4850D02*
D03*
X1528Y8178D02*
D03*
X1750Y8400D02*
D03*
X1318Y7968D02*
D03*
X1000Y7650D02*
D03*
X693Y7343D02*
D03*
X550Y6500D02*
D03*
Y6150D02*
D03*
X-800Y7050D02*
D03*
Y6600D02*
D03*
X5750Y11150D02*
D03*
Y10800D02*
D03*
Y11450D02*
D03*
X5315Y11500D02*
D03*
Y11250D02*
D03*
Y11000D02*
D03*
Y10750D02*
D03*
Y10500D02*
D03*
X5750D02*
D03*
X6400Y13850D02*
D03*
X5950D02*
D03*
X5750Y13650D02*
D03*
X5850Y13200D02*
D03*
X5400Y13300D02*
D03*
X9950Y7069D02*
D03*
X10450Y7350D02*
D03*
X10200D02*
D03*
X10450Y7085D02*
D03*
X10200D02*
D03*
X10550Y6100D02*
D03*
Y6400D02*
D03*
X10250Y5800D02*
D03*
X12050Y6600D02*
D03*
Y6950D02*
D03*
X6035Y1700D02*
D03*
Y1950D02*
D03*
Y2185D02*
D03*
X5365Y1700D02*
D03*
Y1950D02*
D03*
Y2200D02*
D03*
X5950Y250D02*
D03*
X5500Y350D02*
D03*
X9917Y-1450D02*
D03*
Y-2100D02*
D03*
X5200Y-1800D02*
D03*
Y-1500D02*
D03*
Y-1150D02*
D03*
Y-800D02*
D03*
Y-500D02*
D03*
X5500Y-1500D02*
D03*
Y-1150D02*
D03*
Y-800D02*
D03*
X5507Y-1800D02*
D03*
X5500Y-500D02*
D03*
X4550Y2750D02*
D03*
Y2300D02*
D03*
Y3150D02*
D03*
X4800Y3350D02*
D03*
X2100Y6650D02*
D03*
X2500Y6600D02*
D03*
X1750D02*
D03*
X1450Y6950D02*
D03*
X1250Y6600D02*
D03*
X7900Y12000D02*
D03*
X783Y-2217D02*
D03*
X9700Y6200D02*
D03*
X3000Y6600D02*
D03*
X3300D02*
D03*
X3600D02*
D03*
X3900D02*
D03*
X4200D02*
D03*
X4500D02*
D03*
X4800D02*
D03*
X5100D02*
D03*
X7000Y6200D02*
D03*
X7300D02*
D03*
X7600D02*
D03*
X7900D02*
D03*
X8200D02*
D03*
X8100Y9957D02*
D03*
X9043Y10900D02*
D03*
X8810Y9250D02*
D03*
X9800Y10243D02*
D03*
X8500Y6200D02*
D03*
X8800D02*
D03*
X9100D02*
D03*
X9400D02*
D03*
X7450Y5050D02*
D03*
X5950Y7650D02*
D03*
X783Y-1617D02*
D03*
Y-1917D02*
D03*
X8590Y9030D02*
D03*
X8360Y9260D02*
D03*
X8580Y9480D02*
D03*
X8330Y9730D02*
D03*
X8110Y9510D02*
D03*
X7880Y9740D02*
D03*
X7660Y9520D02*
D03*
X7890Y9290D02*
D03*
X8140Y9040D02*
D03*
X8370Y8810D02*
D03*
X9920Y-1760D02*
D03*
X10000Y6200D02*
D03*
D26*
X5115Y3715D02*
D03*
X5100Y4300D02*
D03*
D27*
X10500Y11000D02*
D03*
X500D02*
D03*
D35*
X6463Y2927D02*
D03*
Y5250D02*
D03*
X5400Y2927D02*
D03*
Y5250D02*
D03*
M02*
