%FSLAX24Y24*%
%MOIN*%
G70*
G01*
G75*
G04 Layer_Color=32896*
%ADD10C,0.0060*%
%ADD11C,0.0100*%
%ADD12C,0.0140*%
%ADD13C,0.0200*%
%ADD14R,0.0197X0.1417*%
%ADD15R,0.0433X0.0394*%
%ADD16R,0.0276X0.0571*%
%ADD17R,0.0394X0.0433*%
%ADD18R,0.0400X0.1000*%
G04:AMPARAMS|DCode=19|XSize=31.5mil|YSize=74.8mil|CornerRadius=0mil|HoleSize=0mil|Usage=FLASHONLY|Rotation=135.000|XOffset=0mil|YOffset=0mil|HoleType=Round|Shape=Round|*
%AMOVALD19*
21,1,0.0433,0.0315,0.0000,0.0000,225.0*
1,1,0.0315,0.0153,0.0153*
1,1,0.0315,-0.0153,-0.0153*
%
%ADD19OVALD19*%

G04:AMPARAMS|DCode=20|XSize=31.5mil|YSize=74.8mil|CornerRadius=0mil|HoleSize=0mil|Usage=FLASHONLY|Rotation=45.000|XOffset=0mil|YOffset=0mil|HoleType=Round|Shape=Round|*
%AMOVALD20*
21,1,0.0433,0.0315,0.0000,0.0000,135.0*
1,1,0.0315,0.0153,-0.0153*
1,1,0.0315,-0.0153,0.0153*
%
%ADD20OVALD20*%

G04:AMPARAMS|DCode=21|XSize=39.4mil|YSize=43.3mil|CornerRadius=0mil|HoleSize=0mil|Usage=FLASHONLY|Rotation=45.000|XOffset=0mil|YOffset=0mil|HoleType=Round|Shape=Rectangle|*
%AMROTATEDRECTD21*
4,1,4,0.0014,-0.0292,-0.0292,0.0014,-0.0014,0.0292,0.0292,-0.0014,0.0014,-0.0292,0.0*
%
%ADD21ROTATEDRECTD21*%

%ADD22C,0.0705*%
%ADD23R,0.0530X0.0530*%
%ADD24C,0.0530*%
%ADD25C,0.0240*%
%ADD26C,0.0400*%
%ADD27C,0.1500*%
%ADD28C,0.0400*%
G04:AMPARAMS|DCode=29|XSize=94mil|YSize=94mil|CornerRadius=0mil|HoleSize=0mil|Usage=FLASHONLY|Rotation=0.000|XOffset=0mil|YOffset=0mil|HoleType=Round|Shape=Relief|Width=8mil|Gap=10mil|Entries=4|*
%AMTHD29*
7,0,0,0.0940,0.0740,0.0080,45*
%
%ADD29THD29*%
%ADD30C,0.0780*%
%ADD31C,0.0594*%
G04:AMPARAMS|DCode=32|XSize=75.433mil|YSize=75.433mil|CornerRadius=0mil|HoleSize=0mil|Usage=FLASHONLY|Rotation=0.000|XOffset=0mil|YOffset=0mil|HoleType=Round|Shape=Relief|Width=8mil|Gap=10mil|Entries=4|*
%AMTHD32*
7,0,0,0.0754,0.0554,0.0080,45*
%
%ADD32THD32*%
%ADD33C,0.0320*%
%ADD34C,0.0440*%
%ADD35R,0.0669X0.0827*%
%ADD36C,0.0197*%
%ADD37C,0.0098*%
%ADD38C,0.0010*%
%ADD39C,0.0050*%
%ADD40C,0.0079*%
%ADD41R,0.0257X0.1477*%
%ADD42C,0.0765*%
%ADD43R,0.0729X0.0887*%
%ADD44C,0.0018*%
%ADD45C,0.0020*%
%ADD46C,0.0002*%
G36*
X10953Y8523D02*
X10949Y8514D01*
X10946Y8506D01*
X10941Y8498D01*
X10938Y8492D01*
X10935Y8487D01*
X10933Y8483D01*
X10932Y8483D01*
Y8482D01*
X10926Y8472D01*
X10920Y8463D01*
X10915Y8456D01*
X10909Y8449D01*
X10905Y8444D01*
X10902Y8440D01*
X10900Y8438D01*
X10899Y8437D01*
X11200D01*
Y8390D01*
X10814D01*
Y8421D01*
X10823Y8426D01*
X10833Y8432D01*
X10841Y8439D01*
X10850Y8446D01*
X10856Y8453D01*
X10861Y8458D01*
X10865Y8462D01*
X10865Y8462D01*
X10866Y8463D01*
X10875Y8474D01*
X10884Y8486D01*
X10892Y8497D01*
X10898Y8508D01*
X10903Y8517D01*
X10905Y8521D01*
X10907Y8525D01*
X10909Y8527D01*
X10910Y8529D01*
X10910Y8531D01*
Y8531D01*
X10957D01*
X10953Y8523D01*
D02*
G37*
G36*
X11200Y8021D02*
X11155D01*
Y8210D01*
X11146Y8204D01*
X11138Y8197D01*
X11134Y8194D01*
X11132Y8192D01*
X11130Y8191D01*
X11130Y8190D01*
X11127Y8187D01*
X11124Y8184D01*
X11117Y8177D01*
X11109Y8167D01*
X11101Y8159D01*
X11093Y8150D01*
X11087Y8143D01*
X11085Y8140D01*
X11083Y8137D01*
X11082Y8136D01*
X11081Y8136D01*
X11073Y8126D01*
X11066Y8118D01*
X11059Y8110D01*
X11053Y8103D01*
X11046Y8096D01*
X11041Y8091D01*
X11036Y8085D01*
X11031Y8080D01*
X11027Y8076D01*
X11023Y8073D01*
X11018Y8067D01*
X11015Y8064D01*
X11013Y8063D01*
X11004Y8056D01*
X10996Y8049D01*
X10988Y8043D01*
X10981Y8039D01*
X10975Y8036D01*
X10971Y8033D01*
X10968Y8032D01*
X10967Y8032D01*
X10958Y8028D01*
X10950Y8026D01*
X10943Y8024D01*
X10936Y8023D01*
X10930Y8022D01*
X10925Y8022D01*
X10921D01*
X10913Y8022D01*
X10905Y8023D01*
X10890Y8027D01*
X10877Y8032D01*
X10866Y8038D01*
X10857Y8044D01*
X10854Y8047D01*
X10850Y8049D01*
X10848Y8051D01*
X10846Y8053D01*
X10845Y8054D01*
X10845Y8054D01*
X10840Y8061D01*
X10834Y8067D01*
X10830Y8074D01*
X10827Y8082D01*
X10821Y8096D01*
X10818Y8111D01*
X10816Y8117D01*
X10816Y8123D01*
X10815Y8128D01*
X10814Y8133D01*
X10814Y8137D01*
Y8140D01*
Y8142D01*
Y8142D01*
X10814Y8152D01*
X10815Y8161D01*
X10819Y8179D01*
X10820Y8187D01*
X10823Y8194D01*
X10826Y8201D01*
X10828Y8206D01*
X10831Y8212D01*
X10833Y8216D01*
X10836Y8221D01*
X10838Y8224D01*
X10840Y8226D01*
X10841Y8228D01*
X10842Y8229D01*
X10843Y8230D01*
X10848Y8236D01*
X10854Y8240D01*
X10868Y8249D01*
X10881Y8256D01*
X10895Y8260D01*
X10906Y8264D01*
X10912Y8264D01*
X10916Y8266D01*
X10920Y8266D01*
X10923Y8267D01*
X10925D01*
X10930Y8218D01*
X10917Y8217D01*
X10906Y8215D01*
X10897Y8212D01*
X10889Y8208D01*
X10882Y8204D01*
X10878Y8201D01*
X10875Y8198D01*
X10874Y8198D01*
X10867Y8189D01*
X10862Y8181D01*
X10858Y8171D01*
X10855Y8163D01*
X10854Y8155D01*
X10854Y8149D01*
X10853Y8147D01*
Y8145D01*
Y8144D01*
Y8143D01*
X10854Y8132D01*
X10856Y8121D01*
X10859Y8112D01*
X10862Y8105D01*
X10867Y8099D01*
X10869Y8094D01*
X10872Y8092D01*
X10872Y8091D01*
X10880Y8084D01*
X10888Y8079D01*
X10896Y8075D01*
X10903Y8073D01*
X10910Y8071D01*
X10915Y8071D01*
X10919Y8070D01*
X10920D01*
X10930Y8071D01*
X10940Y8074D01*
X10950Y8077D01*
X10958Y8081D01*
X10966Y8085D01*
X10972Y8089D01*
X10974Y8090D01*
X10976Y8091D01*
X10977Y8092D01*
X10977D01*
X10983Y8097D01*
X10989Y8102D01*
X10996Y8108D01*
X11002Y8115D01*
X11016Y8129D01*
X11029Y8143D01*
X11040Y8156D01*
X11046Y8162D01*
X11050Y8167D01*
X11054Y8171D01*
X11056Y8174D01*
X11058Y8177D01*
X11058Y8177D01*
X11071Y8191D01*
X11082Y8204D01*
X11092Y8215D01*
X11100Y8223D01*
X11107Y8230D01*
X11112Y8235D01*
X11116Y8238D01*
X11116Y8239D01*
X11117D01*
X11126Y8247D01*
X11135Y8253D01*
X11144Y8259D01*
X11151Y8263D01*
X11158Y8266D01*
X11163Y8268D01*
X11167Y8270D01*
X11167Y8270D01*
X11168D01*
X11174Y8272D01*
X11180Y8274D01*
X11185Y8274D01*
X11189Y8275D01*
X11194Y8275D01*
X11200D01*
Y8021D01*
D02*
G37*
G36*
X6776Y12727D02*
X6782Y12717D01*
X6789Y12709D01*
X6796Y12700D01*
X6803Y12694D01*
X6808Y12689D01*
X6812Y12685D01*
X6812Y12685D01*
X6813Y12684D01*
X6824Y12675D01*
X6836Y12666D01*
X6847Y12658D01*
X6858Y12652D01*
X6867Y12647D01*
X6871Y12645D01*
X6875Y12643D01*
X6877Y12641D01*
X6879Y12640D01*
X6881Y12640D01*
X6881D01*
Y12593D01*
X6873Y12597D01*
X6864Y12601D01*
X6856Y12604D01*
X6848Y12609D01*
X6842Y12612D01*
X6837Y12615D01*
X6833Y12617D01*
X6833Y12618D01*
X6832D01*
X6822Y12624D01*
X6813Y12630D01*
X6806Y12635D01*
X6799Y12641D01*
X6794Y12645D01*
X6790Y12648D01*
X6788Y12650D01*
X6787Y12651D01*
Y12350D01*
X6740D01*
Y12736D01*
X6771D01*
X6776Y12727D01*
D02*
G37*
G36*
X11026Y8949D02*
X11044Y8947D01*
X11062Y8944D01*
X11070Y8942D01*
X11077Y8940D01*
X11084Y8938D01*
X11090Y8937D01*
X11095Y8935D01*
X11100Y8933D01*
X11103Y8932D01*
X11106Y8931D01*
X11108Y8930D01*
X11108D01*
X11125Y8922D01*
X11140Y8912D01*
X11153Y8903D01*
X11163Y8893D01*
X11171Y8884D01*
X11177Y8877D01*
X11178Y8875D01*
X11180Y8873D01*
X11181Y8872D01*
X11181Y8871D01*
X11186Y8863D01*
X11189Y8855D01*
X11196Y8839D01*
X11200Y8822D01*
X11204Y8806D01*
X11204Y8798D01*
X11205Y8791D01*
X11206Y8786D01*
Y8780D01*
X11206Y8776D01*
Y8773D01*
Y8770D01*
Y8770D01*
X11206Y8759D01*
X11205Y8748D01*
X11201Y8729D01*
X11199Y8720D01*
X11196Y8711D01*
X11193Y8704D01*
X11190Y8697D01*
X11187Y8690D01*
X11184Y8685D01*
X11181Y8680D01*
X11179Y8676D01*
X11177Y8673D01*
X11175Y8670D01*
X11174Y8669D01*
X11174Y8669D01*
X11167Y8661D01*
X11160Y8654D01*
X11145Y8642D01*
X11129Y8632D01*
X11113Y8624D01*
X11106Y8621D01*
X11100Y8618D01*
X11094Y8616D01*
X11089Y8614D01*
X11084Y8612D01*
X11081Y8611D01*
X11079Y8611D01*
X11078D01*
X11065Y8662D01*
X11082Y8666D01*
X11098Y8672D01*
X11110Y8679D01*
X11120Y8686D01*
X11128Y8692D01*
X11134Y8697D01*
X11137Y8701D01*
X11138Y8701D01*
X11139Y8702D01*
X11147Y8714D01*
X11153Y8725D01*
X11157Y8738D01*
X11160Y8749D01*
X11162Y8759D01*
X11163Y8763D01*
Y8767D01*
X11163Y8770D01*
Y8772D01*
Y8773D01*
Y8774D01*
X11163Y8787D01*
X11160Y8799D01*
X11157Y8810D01*
X11154Y8820D01*
X11151Y8828D01*
X11149Y8834D01*
X11147Y8837D01*
X11146Y8838D01*
X11146Y8839D01*
Y8839D01*
X11138Y8850D01*
X11129Y8859D01*
X11120Y8866D01*
X11111Y8873D01*
X11103Y8877D01*
X11096Y8880D01*
X11094Y8882D01*
X11092Y8883D01*
X11091Y8883D01*
X11091D01*
X11077Y8888D01*
X11062Y8892D01*
X11047Y8894D01*
X11034Y8896D01*
X11028Y8896D01*
X11023Y8897D01*
X11017D01*
X11013Y8897D01*
X11005D01*
X10991Y8897D01*
X10978Y8896D01*
X10965Y8894D01*
X10954Y8892D01*
X10945Y8889D01*
X10941Y8889D01*
X10938Y8887D01*
X10935Y8887D01*
X10933Y8886D01*
X10932Y8886D01*
X10931D01*
X10919Y8880D01*
X10907Y8874D01*
X10898Y8867D01*
X10889Y8860D01*
X10883Y8854D01*
X10878Y8849D01*
X10875Y8845D01*
X10874Y8845D01*
Y8844D01*
X10867Y8832D01*
X10862Y8820D01*
X10858Y8808D01*
X10855Y8796D01*
X10854Y8786D01*
X10853Y8782D01*
Y8777D01*
X10853Y8774D01*
Y8772D01*
Y8771D01*
Y8770D01*
X10853Y8756D01*
X10855Y8744D01*
X10858Y8733D01*
X10862Y8724D01*
X10866Y8717D01*
X10869Y8711D01*
X10871Y8708D01*
X10872Y8707D01*
X10880Y8697D01*
X10889Y8690D01*
X10900Y8683D01*
X10910Y8677D01*
X10919Y8673D01*
X10923Y8672D01*
X10926Y8670D01*
X10929Y8669D01*
X10931Y8668D01*
X10933Y8667D01*
X10933D01*
X10922Y8617D01*
X10903Y8624D01*
X10894Y8628D01*
X10886Y8632D01*
X10879Y8637D01*
X10872Y8642D01*
X10866Y8646D01*
X10860Y8650D01*
X10855Y8655D01*
X10851Y8659D01*
X10847Y8663D01*
X10844Y8666D01*
X10842Y8669D01*
X10840Y8670D01*
X10840Y8672D01*
X10839Y8672D01*
X10834Y8680D01*
X10829Y8687D01*
X10825Y8696D01*
X10821Y8704D01*
X10816Y8720D01*
X10813Y8735D01*
X10812Y8742D01*
X10811Y8749D01*
X10810Y8755D01*
X10810Y8759D01*
X10809Y8763D01*
Y8767D01*
Y8769D01*
Y8769D01*
X10810Y8788D01*
X10813Y8806D01*
X10817Y8821D01*
X10819Y8828D01*
X10821Y8835D01*
X10823Y8841D01*
X10825Y8846D01*
X10827Y8851D01*
X10829Y8855D01*
X10830Y8858D01*
X10831Y8860D01*
X10833Y8862D01*
Y8862D01*
X10842Y8877D01*
X10853Y8890D01*
X10864Y8901D01*
X10875Y8910D01*
X10885Y8918D01*
X10889Y8921D01*
X10893Y8923D01*
X10896Y8925D01*
X10899Y8926D01*
X10900Y8927D01*
X10900D01*
X10917Y8935D01*
X10936Y8941D01*
X10953Y8944D01*
X10970Y8947D01*
X10977Y8948D01*
X10984Y8949D01*
X10990Y8949D01*
X10995D01*
X10999Y8950D01*
X11005D01*
X11026Y8949D01*
D02*
G37*
G36*
X7438Y1540D02*
X7456Y1537D01*
X7471Y1533D01*
X7478Y1531D01*
X7485Y1529D01*
X7491Y1527D01*
X7496Y1525D01*
X7501Y1523D01*
X7505Y1521D01*
X7508Y1520D01*
X7510Y1519D01*
X7512Y1517D01*
X7512D01*
X7527Y1508D01*
X7540Y1497D01*
X7551Y1486D01*
X7560Y1475D01*
X7568Y1465D01*
X7571Y1461D01*
X7573Y1457D01*
X7575Y1454D01*
X7576Y1451D01*
X7577Y1450D01*
Y1450D01*
X7585Y1433D01*
X7591Y1414D01*
X7594Y1397D01*
X7597Y1380D01*
X7598Y1373D01*
X7599Y1366D01*
X7599Y1360D01*
Y1355D01*
X7600Y1351D01*
Y1348D01*
Y1345D01*
Y1345D01*
X7599Y1324D01*
X7597Y1306D01*
X7594Y1288D01*
X7592Y1280D01*
X7590Y1273D01*
X7588Y1266D01*
X7587Y1260D01*
X7585Y1255D01*
X7583Y1250D01*
X7582Y1247D01*
X7581Y1244D01*
X7580Y1242D01*
Y1242D01*
X7572Y1225D01*
X7562Y1210D01*
X7553Y1197D01*
X7543Y1187D01*
X7534Y1179D01*
X7527Y1173D01*
X7525Y1172D01*
X7523Y1170D01*
X7522Y1169D01*
X7521Y1169D01*
X7513Y1164D01*
X7505Y1161D01*
X7489Y1154D01*
X7472Y1150D01*
X7456Y1146D01*
X7448Y1146D01*
X7441Y1145D01*
X7436Y1144D01*
X7430D01*
X7426Y1144D01*
X7420D01*
X7409Y1144D01*
X7398Y1145D01*
X7379Y1149D01*
X7370Y1151D01*
X7361Y1154D01*
X7354Y1157D01*
X7347Y1160D01*
X7340Y1163D01*
X7335Y1166D01*
X7330Y1169D01*
X7326Y1171D01*
X7323Y1173D01*
X7320Y1175D01*
X7319Y1176D01*
X7319Y1176D01*
X7311Y1183D01*
X7304Y1190D01*
X7292Y1205D01*
X7282Y1221D01*
X7274Y1237D01*
X7271Y1244D01*
X7268Y1250D01*
X7266Y1256D01*
X7264Y1261D01*
X7262Y1266D01*
X7261Y1269D01*
X7261Y1271D01*
Y1272D01*
X7312Y1285D01*
X7316Y1268D01*
X7322Y1252D01*
X7329Y1240D01*
X7336Y1230D01*
X7342Y1222D01*
X7347Y1216D01*
X7351Y1213D01*
X7351Y1212D01*
X7352Y1211D01*
X7364Y1203D01*
X7375Y1197D01*
X7388Y1193D01*
X7399Y1190D01*
X7409Y1188D01*
X7413Y1187D01*
X7417D01*
X7420Y1187D01*
X7424D01*
X7437Y1187D01*
X7449Y1190D01*
X7460Y1193D01*
X7470Y1196D01*
X7478Y1199D01*
X7484Y1201D01*
X7487Y1203D01*
X7488Y1204D01*
X7489Y1204D01*
X7489D01*
X7500Y1212D01*
X7509Y1221D01*
X7516Y1230D01*
X7523Y1239D01*
X7527Y1247D01*
X7530Y1254D01*
X7532Y1256D01*
X7533Y1258D01*
X7533Y1259D01*
Y1259D01*
X7538Y1273D01*
X7541Y1288D01*
X7544Y1303D01*
X7546Y1316D01*
X7546Y1322D01*
X7547Y1327D01*
Y1333D01*
X7547Y1337D01*
Y1340D01*
Y1342D01*
Y1344D01*
Y1345D01*
X7547Y1359D01*
X7546Y1372D01*
X7544Y1385D01*
X7541Y1396D01*
X7539Y1405D01*
X7539Y1409D01*
X7537Y1412D01*
X7537Y1415D01*
X7536Y1417D01*
X7536Y1418D01*
Y1419D01*
X7530Y1431D01*
X7524Y1443D01*
X7517Y1452D01*
X7510Y1461D01*
X7504Y1467D01*
X7499Y1472D01*
X7495Y1475D01*
X7495Y1476D01*
X7494D01*
X7482Y1483D01*
X7470Y1488D01*
X7458Y1492D01*
X7446Y1495D01*
X7436Y1496D01*
X7432Y1497D01*
X7427D01*
X7424Y1497D01*
X7420D01*
X7406Y1497D01*
X7394Y1495D01*
X7383Y1492D01*
X7374Y1488D01*
X7367Y1484D01*
X7361Y1481D01*
X7358Y1479D01*
X7357Y1478D01*
X7347Y1470D01*
X7340Y1461D01*
X7333Y1450D01*
X7327Y1440D01*
X7323Y1431D01*
X7322Y1427D01*
X7320Y1424D01*
X7319Y1421D01*
X7318Y1419D01*
X7317Y1417D01*
Y1417D01*
X7267Y1428D01*
X7274Y1447D01*
X7278Y1456D01*
X7282Y1464D01*
X7287Y1471D01*
X7292Y1478D01*
X7296Y1484D01*
X7300Y1490D01*
X7305Y1495D01*
X7309Y1499D01*
X7313Y1503D01*
X7316Y1506D01*
X7319Y1508D01*
X7320Y1510D01*
X7322Y1510D01*
X7322Y1511D01*
X7330Y1516D01*
X7337Y1521D01*
X7346Y1525D01*
X7354Y1529D01*
X7370Y1534D01*
X7385Y1537D01*
X7392Y1538D01*
X7399Y1539D01*
X7405Y1540D01*
X7409Y1540D01*
X7413Y1541D01*
X7419D01*
X7438Y1540D01*
D02*
G37*
G36*
X11476Y8949D02*
X11494Y8947D01*
X11512Y8944D01*
X11520Y8942D01*
X11527Y8940D01*
X11534Y8938D01*
X11540Y8937D01*
X11545Y8935D01*
X11550Y8933D01*
X11553Y8932D01*
X11556Y8931D01*
X11558Y8930D01*
X11558D01*
X11575Y8922D01*
X11590Y8912D01*
X11603Y8903D01*
X11613Y8893D01*
X11621Y8884D01*
X11627Y8877D01*
X11628Y8875D01*
X11630Y8873D01*
X11631Y8872D01*
X11631Y8871D01*
X11636Y8863D01*
X11639Y8855D01*
X11646Y8839D01*
X11650Y8822D01*
X11654Y8806D01*
X11654Y8798D01*
X11655Y8791D01*
X11656Y8786D01*
Y8780D01*
X11656Y8776D01*
Y8773D01*
Y8770D01*
Y8770D01*
X11656Y8759D01*
X11655Y8748D01*
X11651Y8729D01*
X11649Y8720D01*
X11646Y8711D01*
X11643Y8704D01*
X11640Y8697D01*
X11637Y8690D01*
X11634Y8685D01*
X11631Y8680D01*
X11629Y8676D01*
X11627Y8673D01*
X11625Y8670D01*
X11624Y8669D01*
X11624Y8669D01*
X11617Y8661D01*
X11610Y8654D01*
X11595Y8642D01*
X11579Y8632D01*
X11563Y8624D01*
X11556Y8621D01*
X11550Y8618D01*
X11544Y8616D01*
X11539Y8614D01*
X11534Y8612D01*
X11531Y8611D01*
X11529Y8611D01*
X11528D01*
X11515Y8662D01*
X11532Y8666D01*
X11548Y8672D01*
X11560Y8679D01*
X11570Y8686D01*
X11578Y8692D01*
X11584Y8697D01*
X11587Y8701D01*
X11588Y8701D01*
X11589Y8702D01*
X11597Y8714D01*
X11603Y8725D01*
X11607Y8738D01*
X11610Y8749D01*
X11612Y8759D01*
X11613Y8763D01*
Y8767D01*
X11613Y8770D01*
Y8772D01*
Y8773D01*
Y8774D01*
X11613Y8787D01*
X11610Y8799D01*
X11607Y8810D01*
X11604Y8820D01*
X11601Y8828D01*
X11599Y8834D01*
X11597Y8837D01*
X11596Y8838D01*
X11596Y8839D01*
Y8839D01*
X11588Y8850D01*
X11579Y8859D01*
X11570Y8866D01*
X11561Y8873D01*
X11553Y8877D01*
X11546Y8880D01*
X11544Y8882D01*
X11542Y8883D01*
X11541Y8883D01*
X11541D01*
X11527Y8888D01*
X11512Y8892D01*
X11497Y8894D01*
X11484Y8896D01*
X11478Y8896D01*
X11473Y8897D01*
X11467D01*
X11463Y8897D01*
X11455D01*
X11441Y8897D01*
X11428Y8896D01*
X11415Y8894D01*
X11404Y8892D01*
X11395Y8889D01*
X11391Y8889D01*
X11388Y8887D01*
X11385Y8887D01*
X11383Y8886D01*
X11382Y8886D01*
X11381D01*
X11369Y8880D01*
X11357Y8874D01*
X11348Y8867D01*
X11339Y8860D01*
X11333Y8854D01*
X11328Y8849D01*
X11325Y8845D01*
X11324Y8845D01*
Y8844D01*
X11317Y8832D01*
X11312Y8820D01*
X11308Y8808D01*
X11305Y8796D01*
X11304Y8786D01*
X11303Y8782D01*
Y8777D01*
X11303Y8774D01*
Y8772D01*
Y8771D01*
Y8770D01*
X11303Y8756D01*
X11305Y8744D01*
X11308Y8733D01*
X11312Y8724D01*
X11316Y8717D01*
X11319Y8711D01*
X11321Y8708D01*
X11322Y8707D01*
X11330Y8697D01*
X11339Y8690D01*
X11350Y8683D01*
X11360Y8677D01*
X11369Y8673D01*
X11373Y8672D01*
X11376Y8670D01*
X11379Y8669D01*
X11381Y8668D01*
X11383Y8667D01*
X11383D01*
X11372Y8617D01*
X11353Y8624D01*
X11344Y8628D01*
X11336Y8632D01*
X11329Y8637D01*
X11322Y8642D01*
X11316Y8646D01*
X11310Y8650D01*
X11305Y8655D01*
X11301Y8659D01*
X11297Y8663D01*
X11294Y8666D01*
X11292Y8669D01*
X11290Y8670D01*
X11290Y8672D01*
X11289Y8672D01*
X11284Y8680D01*
X11279Y8687D01*
X11275Y8696D01*
X11272Y8704D01*
X11266Y8720D01*
X11263Y8735D01*
X11262Y8742D01*
X11261Y8749D01*
X11260Y8755D01*
X11260Y8759D01*
X11259Y8763D01*
Y8767D01*
Y8769D01*
Y8769D01*
X11260Y8788D01*
X11263Y8806D01*
X11267Y8821D01*
X11269Y8828D01*
X11271Y8835D01*
X11273Y8841D01*
X11275Y8846D01*
X11277Y8851D01*
X11279Y8855D01*
X11280Y8858D01*
X11281Y8860D01*
X11283Y8862D01*
Y8862D01*
X11292Y8877D01*
X11303Y8890D01*
X11314Y8901D01*
X11325Y8910D01*
X11335Y8918D01*
X11339Y8921D01*
X11343Y8923D01*
X11346Y8925D01*
X11349Y8926D01*
X11350Y8927D01*
X11350D01*
X11367Y8935D01*
X11386Y8941D01*
X11403Y8944D01*
X11420Y8947D01*
X11427Y8948D01*
X11434Y8949D01*
X11440Y8949D01*
X11445D01*
X11449Y8950D01*
X11455D01*
X11476Y8949D01*
D02*
G37*
G36*
X11489Y8569D02*
X11505Y8568D01*
X11521Y8566D01*
X11535Y8564D01*
X11548Y8561D01*
X11559Y8558D01*
X11570Y8555D01*
X11579Y8551D01*
X11587Y8548D01*
X11594Y8545D01*
X11600Y8542D01*
X11605Y8539D01*
X11608Y8536D01*
X11611Y8535D01*
X11613Y8533D01*
X11613Y8533D01*
X11621Y8526D01*
X11627Y8518D01*
X11633Y8510D01*
X11638Y8502D01*
X11642Y8494D01*
X11646Y8486D01*
X11649Y8478D01*
X11651Y8470D01*
X11653Y8463D01*
X11654Y8457D01*
X11655Y8451D01*
X11656Y8446D01*
Y8442D01*
X11656Y8439D01*
Y8437D01*
Y8436D01*
X11656Y8424D01*
X11654Y8412D01*
X11651Y8402D01*
X11648Y8393D01*
X11645Y8385D01*
X11642Y8380D01*
X11641Y8376D01*
X11640Y8375D01*
X11633Y8365D01*
X11625Y8357D01*
X11618Y8349D01*
X11610Y8343D01*
X11603Y8338D01*
X11598Y8335D01*
X11596Y8333D01*
X11594Y8332D01*
X11593Y8332D01*
X11593D01*
X11581Y8326D01*
X11569Y8322D01*
X11558Y8320D01*
X11548Y8318D01*
X11538Y8316D01*
X11535D01*
X11531Y8316D01*
X11525D01*
X11515Y8316D01*
X11506Y8317D01*
X11497Y8319D01*
X11488Y8321D01*
X11480Y8323D01*
X11473Y8326D01*
X11466Y8329D01*
X11460Y8332D01*
X11455Y8336D01*
X11450Y8339D01*
X11446Y8342D01*
X11442Y8344D01*
X11439Y8346D01*
X11438Y8348D01*
X11436Y8349D01*
X11436Y8349D01*
X11429Y8356D01*
X11424Y8362D01*
X11420Y8369D01*
X11415Y8376D01*
X11412Y8383D01*
X11410Y8390D01*
X11405Y8402D01*
X11403Y8413D01*
X11402Y8418D01*
X11401Y8422D01*
X11401Y8425D01*
Y8428D01*
Y8429D01*
Y8430D01*
X11401Y8440D01*
X11403Y8449D01*
X11405Y8458D01*
X11407Y8466D01*
X11410Y8472D01*
X11412Y8477D01*
X11413Y8480D01*
X11414Y8481D01*
X11419Y8490D01*
X11425Y8498D01*
X11431Y8505D01*
X11438Y8511D01*
X11444Y8517D01*
X11448Y8520D01*
X11451Y8522D01*
X11452Y8523D01*
X11442D01*
X11432Y8522D01*
X11422Y8522D01*
X11414Y8521D01*
X11406Y8520D01*
X11398Y8519D01*
X11392Y8518D01*
X11386Y8517D01*
X11381Y8515D01*
X11376Y8514D01*
X11372Y8513D01*
X11369Y8512D01*
X11367Y8511D01*
X11365Y8511D01*
X11364Y8510D01*
X11363D01*
X11352Y8505D01*
X11342Y8499D01*
X11334Y8493D01*
X11328Y8487D01*
X11322Y8483D01*
X11318Y8478D01*
X11316Y8476D01*
X11315Y8475D01*
X11311Y8468D01*
X11308Y8462D01*
X11305Y8455D01*
X11304Y8448D01*
X11303Y8443D01*
X11303Y8439D01*
Y8436D01*
Y8435D01*
X11303Y8425D01*
X11305Y8415D01*
X11309Y8407D01*
X11312Y8400D01*
X11317Y8395D01*
X11319Y8391D01*
X11322Y8388D01*
X11323Y8387D01*
X11328Y8383D01*
X11334Y8380D01*
X11348Y8374D01*
X11353Y8372D01*
X11358Y8370D01*
X11362Y8369D01*
X11363D01*
X11359Y8322D01*
X11343Y8325D01*
X11329Y8330D01*
X11318Y8336D01*
X11308Y8342D01*
X11300Y8348D01*
X11294Y8353D01*
X11291Y8356D01*
X11290Y8357D01*
Y8357D01*
X11285Y8363D01*
X11281Y8369D01*
X11275Y8381D01*
X11270Y8394D01*
X11267Y8405D01*
X11265Y8416D01*
X11264Y8421D01*
Y8424D01*
X11264Y8428D01*
Y8430D01*
Y8431D01*
Y8432D01*
X11264Y8443D01*
X11266Y8453D01*
X11268Y8463D01*
X11271Y8473D01*
X11274Y8481D01*
X11278Y8489D01*
X11282Y8497D01*
X11286Y8503D01*
X11290Y8509D01*
X11294Y8514D01*
X11298Y8518D01*
X11301Y8522D01*
X11304Y8525D01*
X11307Y8527D01*
X11308Y8528D01*
X11308Y8529D01*
X11318Y8536D01*
X11330Y8542D01*
X11342Y8548D01*
X11355Y8552D01*
X11368Y8556D01*
X11381Y8560D01*
X11395Y8563D01*
X11408Y8564D01*
X11421Y8566D01*
X11432Y8567D01*
X11443Y8569D01*
X11452Y8569D01*
X11460Y8570D01*
X11470D01*
X11489Y8569D01*
D02*
G37*
G36*
X7076Y977D02*
X7082Y967D01*
X7089Y959D01*
X7096Y950D01*
X7103Y944D01*
X7108Y939D01*
X7112Y935D01*
X7112Y935D01*
X7113Y934D01*
X7124Y925D01*
X7136Y916D01*
X7147Y908D01*
X7158Y902D01*
X7167Y897D01*
X7171Y895D01*
X7175Y893D01*
X7177Y891D01*
X7179Y890D01*
X7181Y890D01*
X7181D01*
Y843D01*
X7173Y847D01*
X7164Y851D01*
X7156Y854D01*
X7148Y859D01*
X7142Y862D01*
X7137Y865D01*
X7133Y867D01*
X7133Y868D01*
X7132D01*
X7122Y874D01*
X7113Y880D01*
X7106Y885D01*
X7099Y891D01*
X7094Y895D01*
X7090Y898D01*
X7088Y900D01*
X7087Y901D01*
Y600D01*
X7040D01*
Y986D01*
X7071D01*
X7076Y977D01*
D02*
G37*
G36*
X6777D02*
X6784Y967D01*
X6791Y959D01*
X6798Y950D01*
X6804Y944D01*
X6810Y939D01*
X6813Y935D01*
X6814Y935D01*
X6814Y934D01*
X6825Y925D01*
X6837Y916D01*
X6849Y908D01*
X6859Y902D01*
X6869Y897D01*
X6873Y895D01*
X6876Y893D01*
X6879Y891D01*
X6881Y890D01*
X6882Y890D01*
X6883D01*
Y843D01*
X6875Y847D01*
X6866Y851D01*
X6858Y854D01*
X6850Y859D01*
X6844Y862D01*
X6838Y865D01*
X6835Y867D01*
X6834Y868D01*
X6834D01*
X6824Y874D01*
X6815Y880D01*
X6807Y885D01*
X6801Y891D01*
X6796Y895D01*
X6792Y898D01*
X6789Y900D01*
X6789Y901D01*
Y600D01*
X6741D01*
Y986D01*
X6772D01*
X6777Y977D01*
D02*
G37*
G36*
X7438Y990D02*
X7456Y987D01*
X7471Y983D01*
X7478Y981D01*
X7485Y979D01*
X7491Y977D01*
X7496Y975D01*
X7501Y973D01*
X7505Y971D01*
X7508Y970D01*
X7510Y969D01*
X7512Y967D01*
X7512D01*
X7527Y958D01*
X7540Y947D01*
X7551Y936D01*
X7560Y925D01*
X7568Y915D01*
X7571Y911D01*
X7573Y907D01*
X7575Y904D01*
X7576Y901D01*
X7577Y900D01*
Y900D01*
X7585Y883D01*
X7591Y864D01*
X7594Y847D01*
X7597Y830D01*
X7598Y823D01*
X7599Y816D01*
X7599Y810D01*
Y805D01*
X7600Y801D01*
Y798D01*
Y795D01*
Y795D01*
X7599Y774D01*
X7597Y756D01*
X7594Y738D01*
X7592Y730D01*
X7590Y723D01*
X7588Y716D01*
X7587Y710D01*
X7585Y705D01*
X7583Y700D01*
X7582Y697D01*
X7581Y694D01*
X7580Y692D01*
Y692D01*
X7572Y675D01*
X7562Y660D01*
X7553Y647D01*
X7543Y637D01*
X7534Y629D01*
X7527Y623D01*
X7525Y622D01*
X7523Y620D01*
X7522Y619D01*
X7521Y619D01*
X7513Y614D01*
X7505Y611D01*
X7489Y604D01*
X7472Y600D01*
X7456Y596D01*
X7448Y596D01*
X7441Y595D01*
X7436Y594D01*
X7430D01*
X7426Y594D01*
X7420D01*
X7409Y594D01*
X7398Y595D01*
X7379Y599D01*
X7370Y601D01*
X7361Y604D01*
X7354Y607D01*
X7347Y610D01*
X7340Y613D01*
X7335Y616D01*
X7330Y619D01*
X7326Y621D01*
X7323Y623D01*
X7320Y625D01*
X7319Y626D01*
X7319Y626D01*
X7311Y633D01*
X7304Y640D01*
X7292Y655D01*
X7282Y671D01*
X7274Y687D01*
X7271Y694D01*
X7268Y700D01*
X7266Y706D01*
X7264Y711D01*
X7262Y716D01*
X7261Y719D01*
X7261Y721D01*
Y722D01*
X7312Y735D01*
X7316Y718D01*
X7322Y702D01*
X7329Y690D01*
X7336Y680D01*
X7342Y672D01*
X7347Y666D01*
X7351Y663D01*
X7351Y662D01*
X7352Y661D01*
X7364Y653D01*
X7375Y647D01*
X7388Y643D01*
X7399Y640D01*
X7409Y638D01*
X7413Y637D01*
X7417D01*
X7420Y637D01*
X7424D01*
X7437Y637D01*
X7449Y640D01*
X7460Y643D01*
X7470Y646D01*
X7478Y649D01*
X7484Y651D01*
X7487Y653D01*
X7488Y654D01*
X7489Y654D01*
X7489D01*
X7500Y662D01*
X7509Y671D01*
X7516Y680D01*
X7523Y689D01*
X7527Y697D01*
X7530Y704D01*
X7532Y706D01*
X7533Y708D01*
X7533Y709D01*
Y709D01*
X7538Y723D01*
X7541Y738D01*
X7544Y753D01*
X7546Y766D01*
X7546Y772D01*
X7547Y777D01*
Y783D01*
X7547Y787D01*
Y790D01*
Y792D01*
Y794D01*
Y795D01*
X7547Y809D01*
X7546Y822D01*
X7544Y835D01*
X7541Y846D01*
X7539Y855D01*
X7539Y859D01*
X7537Y862D01*
X7537Y865D01*
X7536Y867D01*
X7536Y868D01*
Y869D01*
X7530Y881D01*
X7524Y893D01*
X7517Y902D01*
X7510Y911D01*
X7504Y917D01*
X7499Y922D01*
X7495Y925D01*
X7495Y926D01*
X7494D01*
X7482Y933D01*
X7470Y938D01*
X7458Y942D01*
X7446Y945D01*
X7436Y946D01*
X7432Y947D01*
X7427D01*
X7424Y947D01*
X7420D01*
X7406Y947D01*
X7394Y945D01*
X7383Y942D01*
X7374Y938D01*
X7367Y934D01*
X7361Y931D01*
X7358Y929D01*
X7357Y928D01*
X7347Y920D01*
X7340Y911D01*
X7333Y900D01*
X7327Y890D01*
X7323Y881D01*
X7322Y877D01*
X7320Y874D01*
X7319Y871D01*
X7318Y869D01*
X7317Y867D01*
Y867D01*
X7267Y878D01*
X7274Y897D01*
X7278Y906D01*
X7282Y914D01*
X7287Y921D01*
X7292Y928D01*
X7296Y934D01*
X7300Y940D01*
X7305Y945D01*
X7309Y949D01*
X7313Y953D01*
X7316Y956D01*
X7319Y958D01*
X7320Y960D01*
X7322Y960D01*
X7322Y961D01*
X7330Y966D01*
X7337Y971D01*
X7346Y975D01*
X7354Y979D01*
X7370Y984D01*
X7385Y987D01*
X7392Y988D01*
X7399Y989D01*
X7405Y990D01*
X7409Y990D01*
X7413Y991D01*
X7419D01*
X7438Y990D01*
D02*
G37*
G36*
X104Y5517D02*
X114Y5516D01*
X123Y5514D01*
X132Y5512D01*
X140Y5510D01*
X148Y5507D01*
X155Y5504D01*
X160Y5501D01*
X166Y5498D01*
X171Y5495D01*
X175Y5492D01*
X179Y5490D01*
X182Y5488D01*
X183Y5486D01*
X184Y5485D01*
X185Y5485D01*
X191Y5478D01*
X196Y5472D01*
X201Y5465D01*
X205Y5458D01*
X208Y5451D01*
X211Y5445D01*
X215Y5432D01*
X218Y5421D01*
X218Y5416D01*
X219Y5412D01*
X220Y5409D01*
Y5406D01*
Y5405D01*
Y5404D01*
X219Y5393D01*
X217Y5383D01*
X215Y5375D01*
X213Y5367D01*
X210Y5361D01*
X208Y5355D01*
X207Y5352D01*
X206Y5351D01*
X200Y5343D01*
X194Y5335D01*
X188Y5328D01*
X182Y5323D01*
X177Y5318D01*
X173Y5315D01*
X170Y5313D01*
X169Y5312D01*
X190D01*
X200Y5313D01*
X210Y5314D01*
X218Y5316D01*
X226Y5317D01*
X232Y5318D01*
X234Y5319D01*
X235D01*
X236Y5319D01*
X237D01*
X246Y5322D01*
X255Y5325D01*
X263Y5328D01*
X269Y5330D01*
X275Y5333D01*
X279Y5335D01*
X281Y5336D01*
X282Y5337D01*
X287Y5341D01*
X293Y5345D01*
X297Y5350D01*
X301Y5354D01*
X304Y5358D01*
X306Y5361D01*
X307Y5363D01*
X308Y5364D01*
X311Y5370D01*
X314Y5376D01*
X315Y5383D01*
X317Y5389D01*
X317Y5394D01*
X318Y5398D01*
Y5400D01*
Y5402D01*
X317Y5411D01*
X315Y5419D01*
X313Y5426D01*
X311Y5432D01*
X308Y5437D01*
X306Y5441D01*
X304Y5443D01*
X304Y5444D01*
X298Y5450D01*
X290Y5454D01*
X283Y5458D01*
X275Y5461D01*
X269Y5463D01*
X263Y5464D01*
X260Y5465D01*
X259Y5465D01*
X258D01*
X261Y5510D01*
X277Y5507D01*
X291Y5503D01*
X304Y5498D01*
X314Y5492D01*
X321Y5486D01*
X327Y5481D01*
X331Y5478D01*
X331Y5477D01*
X332Y5476D01*
X340Y5465D01*
X346Y5453D01*
X351Y5441D01*
X354Y5429D01*
X355Y5419D01*
X356Y5414D01*
Y5410D01*
X356Y5407D01*
Y5405D01*
Y5403D01*
Y5403D01*
X355Y5388D01*
X353Y5373D01*
X349Y5361D01*
X345Y5350D01*
X341Y5341D01*
X339Y5337D01*
X338Y5334D01*
X336Y5331D01*
X335Y5330D01*
X334Y5329D01*
Y5328D01*
X325Y5317D01*
X314Y5308D01*
X303Y5300D01*
X292Y5293D01*
X283Y5288D01*
X279Y5286D01*
X275Y5284D01*
X272Y5283D01*
X269Y5282D01*
X268Y5281D01*
X268D01*
X259Y5278D01*
X250Y5276D01*
X231Y5272D01*
X211Y5269D01*
X192Y5266D01*
X183Y5266D01*
X176Y5265D01*
X168D01*
X162Y5265D01*
X137D01*
X125Y5265D01*
X114Y5266D01*
X103Y5267D01*
X94Y5268D01*
X85Y5270D01*
X77Y5271D01*
X70Y5273D01*
X63Y5275D01*
X58Y5276D01*
X53Y5277D01*
X49Y5279D01*
X46Y5279D01*
X44Y5280D01*
X43Y5281D01*
X42D01*
X29Y5288D01*
X17Y5295D01*
X8Y5303D01*
X-1Y5311D01*
X-7Y5318D01*
X-12Y5323D01*
X-13Y5326D01*
X-14Y5327D01*
X-16Y5328D01*
Y5328D01*
X-23Y5340D01*
X-27Y5352D01*
X-31Y5364D01*
X-34Y5374D01*
X-35Y5383D01*
X-36Y5388D01*
Y5390D01*
X-36Y5393D01*
Y5395D01*
Y5396D01*
Y5397D01*
X-36Y5406D01*
X-34Y5416D01*
X-33Y5424D01*
X-31Y5433D01*
X-25Y5447D01*
X-21Y5454D01*
X-19Y5459D01*
X-15Y5465D01*
X-12Y5470D01*
X-9Y5474D01*
X-6Y5477D01*
X-4Y5480D01*
X-2Y5482D01*
X-1Y5483D01*
X-0Y5483D01*
X7Y5489D01*
X14Y5495D01*
X21Y5499D01*
X29Y5503D01*
X37Y5506D01*
X45Y5509D01*
X60Y5513D01*
X67Y5514D01*
X73Y5516D01*
X79Y5516D01*
X84Y5517D01*
X88Y5517D01*
X94D01*
X104Y5517D01*
D02*
G37*
G36*
X7138Y12740D02*
X7156Y12737D01*
X7171Y12733D01*
X7178Y12731D01*
X7185Y12729D01*
X7191Y12727D01*
X7196Y12725D01*
X7201Y12723D01*
X7205Y12721D01*
X7208Y12720D01*
X7210Y12719D01*
X7212Y12717D01*
X7212D01*
X7227Y12708D01*
X7240Y12697D01*
X7251Y12686D01*
X7260Y12675D01*
X7268Y12665D01*
X7271Y12661D01*
X7273Y12657D01*
X7275Y12654D01*
X7276Y12651D01*
X7277Y12650D01*
Y12650D01*
X7285Y12633D01*
X7291Y12614D01*
X7294Y12597D01*
X7297Y12580D01*
X7298Y12573D01*
X7299Y12566D01*
X7299Y12560D01*
Y12555D01*
X7300Y12551D01*
Y12548D01*
Y12545D01*
Y12545D01*
X7299Y12524D01*
X7297Y12506D01*
X7294Y12488D01*
X7292Y12480D01*
X7290Y12473D01*
X7288Y12466D01*
X7287Y12460D01*
X7285Y12455D01*
X7283Y12450D01*
X7282Y12447D01*
X7281Y12444D01*
X7280Y12442D01*
Y12442D01*
X7272Y12425D01*
X7262Y12410D01*
X7253Y12397D01*
X7243Y12387D01*
X7234Y12379D01*
X7227Y12373D01*
X7225Y12372D01*
X7223Y12370D01*
X7222Y12369D01*
X7221Y12369D01*
X7213Y12364D01*
X7205Y12361D01*
X7189Y12354D01*
X7172Y12350D01*
X7156Y12346D01*
X7148Y12346D01*
X7141Y12345D01*
X7136Y12344D01*
X7130D01*
X7126Y12344D01*
X7120D01*
X7109Y12344D01*
X7098Y12345D01*
X7079Y12349D01*
X7070Y12351D01*
X7061Y12354D01*
X7054Y12357D01*
X7047Y12360D01*
X7040Y12363D01*
X7035Y12366D01*
X7030Y12369D01*
X7026Y12371D01*
X7023Y12373D01*
X7020Y12375D01*
X7019Y12376D01*
X7019Y12376D01*
X7011Y12383D01*
X7004Y12390D01*
X6992Y12405D01*
X6982Y12421D01*
X6974Y12437D01*
X6971Y12444D01*
X6968Y12450D01*
X6966Y12456D01*
X6964Y12461D01*
X6962Y12466D01*
X6961Y12469D01*
X6961Y12471D01*
Y12472D01*
X7012Y12485D01*
X7016Y12468D01*
X7022Y12452D01*
X7029Y12440D01*
X7036Y12430D01*
X7042Y12422D01*
X7047Y12416D01*
X7051Y12413D01*
X7051Y12412D01*
X7052Y12411D01*
X7064Y12403D01*
X7075Y12397D01*
X7088Y12393D01*
X7099Y12390D01*
X7109Y12388D01*
X7113Y12387D01*
X7117D01*
X7120Y12387D01*
X7124D01*
X7137Y12387D01*
X7149Y12390D01*
X7160Y12393D01*
X7170Y12396D01*
X7178Y12399D01*
X7184Y12401D01*
X7187Y12403D01*
X7188Y12404D01*
X7189Y12404D01*
X7189D01*
X7200Y12412D01*
X7209Y12421D01*
X7216Y12430D01*
X7223Y12439D01*
X7227Y12447D01*
X7230Y12454D01*
X7232Y12456D01*
X7233Y12458D01*
X7233Y12459D01*
Y12459D01*
X7238Y12473D01*
X7242Y12488D01*
X7244Y12503D01*
X7246Y12516D01*
X7246Y12522D01*
X7247Y12527D01*
Y12533D01*
X7247Y12537D01*
Y12540D01*
Y12542D01*
Y12544D01*
Y12545D01*
X7247Y12559D01*
X7246Y12572D01*
X7244Y12585D01*
X7242Y12596D01*
X7239Y12605D01*
X7239Y12609D01*
X7237Y12612D01*
X7237Y12615D01*
X7236Y12617D01*
X7236Y12618D01*
Y12619D01*
X7230Y12631D01*
X7224Y12643D01*
X7217Y12652D01*
X7210Y12661D01*
X7204Y12667D01*
X7199Y12672D01*
X7195Y12675D01*
X7195Y12676D01*
X7194D01*
X7182Y12683D01*
X7170Y12688D01*
X7158Y12692D01*
X7146Y12695D01*
X7136Y12696D01*
X7132Y12697D01*
X7127D01*
X7125Y12697D01*
X7120D01*
X7106Y12697D01*
X7094Y12695D01*
X7083Y12692D01*
X7074Y12688D01*
X7067Y12684D01*
X7061Y12681D01*
X7058Y12679D01*
X7057Y12678D01*
X7047Y12670D01*
X7040Y12661D01*
X7033Y12650D01*
X7027Y12640D01*
X7023Y12631D01*
X7022Y12627D01*
X7020Y12624D01*
X7019Y12621D01*
X7018Y12619D01*
X7017Y12617D01*
Y12617D01*
X6967Y12628D01*
X6974Y12647D01*
X6978Y12656D01*
X6982Y12664D01*
X6987Y12671D01*
X6992Y12678D01*
X6996Y12684D01*
X7000Y12690D01*
X7005Y12695D01*
X7009Y12699D01*
X7013Y12703D01*
X7016Y12706D01*
X7019Y12708D01*
X7020Y12710D01*
X7022Y12710D01*
X7022Y12711D01*
X7030Y12716D01*
X7037Y12721D01*
X7046Y12725D01*
X7054Y12729D01*
X7070Y12734D01*
X7085Y12737D01*
X7092Y12738D01*
X7099Y12739D01*
X7105Y12740D01*
X7109Y12740D01*
X7113Y12741D01*
X7119D01*
X7138Y12740D01*
D02*
G37*
G36*
X6509Y12735D02*
X6523Y12733D01*
X6535Y12729D01*
X6545Y12725D01*
X6553Y12720D01*
X6559Y12717D01*
X6561Y12716D01*
X6563Y12714D01*
X6563Y12713D01*
X6564D01*
X6574Y12704D01*
X6582Y12694D01*
X6589Y12683D01*
X6595Y12673D01*
X6600Y12664D01*
X6602Y12659D01*
X6603Y12656D01*
X6604Y12653D01*
X6605Y12651D01*
X6606Y12650D01*
Y12649D01*
X6608Y12641D01*
X6610Y12633D01*
X6613Y12614D01*
X6616Y12596D01*
X6617Y12579D01*
X6618Y12571D01*
X6618Y12563D01*
Y12557D01*
X6619Y12551D01*
Y12546D01*
Y12542D01*
Y12540D01*
Y12540D01*
X6618Y12520D01*
X6617Y12502D01*
X6616Y12485D01*
X6613Y12469D01*
X6610Y12455D01*
X6607Y12442D01*
X6604Y12431D01*
X6600Y12421D01*
X6597Y12411D01*
X6593Y12404D01*
X6590Y12397D01*
X6587Y12392D01*
X6585Y12388D01*
X6583Y12385D01*
X6582Y12383D01*
X6582Y12383D01*
X6575Y12376D01*
X6569Y12370D01*
X6562Y12365D01*
X6554Y12360D01*
X6547Y12356D01*
X6539Y12353D01*
X6525Y12348D01*
X6519Y12347D01*
X6513Y12346D01*
X6508Y12345D01*
X6503Y12344D01*
X6499Y12344D01*
X6494D01*
X6479Y12345D01*
X6465Y12347D01*
X6454Y12351D01*
X6443Y12355D01*
X6435Y12359D01*
X6429Y12362D01*
X6427Y12364D01*
X6425Y12365D01*
X6425Y12366D01*
X6424D01*
X6414Y12375D01*
X6406Y12386D01*
X6399Y12396D01*
X6393Y12407D01*
X6389Y12416D01*
X6387Y12420D01*
X6385Y12423D01*
X6384Y12426D01*
X6383Y12428D01*
X6383Y12430D01*
Y12430D01*
X6380Y12438D01*
X6378Y12447D01*
X6375Y12465D01*
X6372Y12483D01*
X6370Y12500D01*
X6370Y12509D01*
X6369Y12516D01*
Y12523D01*
X6369Y12528D01*
Y12533D01*
Y12537D01*
Y12539D01*
Y12540D01*
X6369Y12560D01*
Y12569D01*
X6370Y12578D01*
X6370Y12586D01*
X6372Y12593D01*
X6372Y12600D01*
X6373Y12606D01*
X6374Y12611D01*
X6375Y12617D01*
X6375Y12621D01*
X6376Y12624D01*
X6377Y12627D01*
Y12628D01*
X6377Y12630D01*
Y12630D01*
X6381Y12643D01*
X6385Y12654D01*
X6389Y12664D01*
X6393Y12672D01*
X6396Y12678D01*
X6399Y12683D01*
X6401Y12686D01*
X6401Y12688D01*
X6407Y12696D01*
X6414Y12703D01*
X6420Y12709D01*
X6426Y12714D01*
X6432Y12718D01*
X6436Y12721D01*
X6439Y12723D01*
X6440Y12723D01*
X6449Y12727D01*
X6458Y12731D01*
X6468Y12733D01*
X6476Y12734D01*
X6483Y12736D01*
X6489Y12736D01*
X6494D01*
X6509Y12735D01*
D02*
G37*
G36*
X176Y5899D02*
X194Y5897D01*
X212Y5894D01*
X220Y5892D01*
X227Y5890D01*
X234Y5888D01*
X240Y5887D01*
X245Y5885D01*
X250Y5883D01*
X253Y5882D01*
X256Y5881D01*
X258Y5880D01*
X258D01*
X275Y5872D01*
X290Y5862D01*
X303Y5853D01*
X313Y5843D01*
X321Y5834D01*
X327Y5827D01*
X328Y5825D01*
X330Y5823D01*
X331Y5822D01*
X331Y5821D01*
X336Y5813D01*
X339Y5805D01*
X346Y5789D01*
X350Y5772D01*
X354Y5756D01*
X354Y5748D01*
X355Y5741D01*
X356Y5736D01*
Y5730D01*
X356Y5726D01*
Y5723D01*
Y5720D01*
Y5720D01*
X356Y5709D01*
X355Y5698D01*
X351Y5679D01*
X349Y5670D01*
X346Y5661D01*
X343Y5654D01*
X340Y5647D01*
X337Y5640D01*
X334Y5635D01*
X331Y5630D01*
X329Y5626D01*
X327Y5623D01*
X325Y5620D01*
X324Y5619D01*
X324Y5619D01*
X317Y5611D01*
X310Y5604D01*
X295Y5592D01*
X279Y5582D01*
X263Y5574D01*
X256Y5571D01*
X250Y5568D01*
X244Y5566D01*
X239Y5564D01*
X234Y5562D01*
X231Y5561D01*
X229Y5561D01*
X228D01*
X215Y5612D01*
X232Y5616D01*
X248Y5622D01*
X260Y5629D01*
X270Y5636D01*
X278Y5642D01*
X284Y5647D01*
X287Y5651D01*
X288Y5651D01*
X289Y5652D01*
X297Y5664D01*
X303Y5675D01*
X307Y5688D01*
X310Y5699D01*
X312Y5709D01*
X313Y5713D01*
Y5717D01*
X313Y5720D01*
Y5722D01*
Y5723D01*
Y5724D01*
X313Y5737D01*
X310Y5749D01*
X307Y5760D01*
X304Y5770D01*
X301Y5778D01*
X299Y5784D01*
X297Y5787D01*
X296Y5788D01*
X296Y5789D01*
Y5789D01*
X288Y5800D01*
X279Y5809D01*
X270Y5816D01*
X261Y5823D01*
X253Y5827D01*
X246Y5830D01*
X244Y5832D01*
X242Y5833D01*
X241Y5833D01*
X241D01*
X227Y5838D01*
X212Y5842D01*
X197Y5844D01*
X184Y5846D01*
X178Y5846D01*
X173Y5847D01*
X167D01*
X163Y5847D01*
X155D01*
X141Y5847D01*
X128Y5846D01*
X115Y5844D01*
X104Y5842D01*
X95Y5839D01*
X91Y5839D01*
X88Y5837D01*
X85Y5837D01*
X83Y5836D01*
X82Y5836D01*
X81D01*
X69Y5830D01*
X57Y5824D01*
X48Y5817D01*
X39Y5810D01*
X33Y5804D01*
X28Y5799D01*
X25Y5795D01*
X24Y5795D01*
Y5794D01*
X17Y5782D01*
X12Y5770D01*
X8Y5758D01*
X5Y5746D01*
X4Y5736D01*
X3Y5732D01*
Y5727D01*
X3Y5724D01*
Y5722D01*
Y5721D01*
Y5720D01*
X3Y5706D01*
X5Y5694D01*
X8Y5683D01*
X12Y5674D01*
X16Y5667D01*
X19Y5661D01*
X21Y5658D01*
X22Y5657D01*
X30Y5647D01*
X39Y5640D01*
X50Y5633D01*
X60Y5627D01*
X69Y5623D01*
X73Y5622D01*
X76Y5620D01*
X79Y5619D01*
X81Y5618D01*
X83Y5617D01*
X83D01*
X72Y5567D01*
X53Y5574D01*
X44Y5578D01*
X36Y5582D01*
X29Y5587D01*
X22Y5592D01*
X16Y5596D01*
X10Y5600D01*
X5Y5605D01*
X1Y5609D01*
X-3Y5613D01*
X-6Y5616D01*
X-8Y5619D01*
X-10Y5620D01*
X-10Y5622D01*
X-11Y5622D01*
X-16Y5630D01*
X-21Y5637D01*
X-25Y5646D01*
X-28Y5654D01*
X-34Y5670D01*
X-37Y5685D01*
X-38Y5692D01*
X-39Y5699D01*
X-40Y5705D01*
X-40Y5709D01*
X-41Y5713D01*
Y5717D01*
Y5719D01*
Y5719D01*
X-40Y5738D01*
X-37Y5756D01*
X-33Y5771D01*
X-31Y5778D01*
X-29Y5785D01*
X-27Y5791D01*
X-25Y5796D01*
X-23Y5801D01*
X-21Y5805D01*
X-20Y5808D01*
X-19Y5810D01*
X-17Y5812D01*
Y5812D01*
X-8Y5827D01*
X3Y5840D01*
X14Y5851D01*
X25Y5860D01*
X35Y5868D01*
X39Y5871D01*
X43Y5873D01*
X46Y5875D01*
X49Y5876D01*
X50Y5877D01*
X50D01*
X67Y5885D01*
X86Y5891D01*
X103Y5894D01*
X120Y5897D01*
X127Y5898D01*
X134Y5899D01*
X140Y5899D01*
X145D01*
X149Y5900D01*
X155D01*
X176Y5899D01*
D02*
G37*
G36*
X6526Y7049D02*
X6544Y7047D01*
X6562Y7044D01*
X6570Y7042D01*
X6577Y7040D01*
X6584Y7038D01*
X6590Y7037D01*
X6595Y7035D01*
X6600Y7033D01*
X6603Y7032D01*
X6606Y7031D01*
X6608Y7030D01*
X6608D01*
X6625Y7022D01*
X6640Y7012D01*
X6653Y7003D01*
X6663Y6993D01*
X6671Y6984D01*
X6677Y6977D01*
X6678Y6975D01*
X6680Y6973D01*
X6681Y6972D01*
X6681Y6971D01*
X6686Y6963D01*
X6689Y6955D01*
X6696Y6939D01*
X6700Y6922D01*
X6704Y6906D01*
X6704Y6898D01*
X6705Y6891D01*
X6706Y6886D01*
Y6880D01*
X6706Y6876D01*
Y6873D01*
Y6870D01*
Y6870D01*
X6706Y6859D01*
X6705Y6848D01*
X6701Y6829D01*
X6699Y6820D01*
X6696Y6811D01*
X6693Y6804D01*
X6690Y6797D01*
X6687Y6790D01*
X6684Y6785D01*
X6681Y6780D01*
X6679Y6776D01*
X6677Y6773D01*
X6675Y6770D01*
X6674Y6769D01*
X6674Y6769D01*
X6667Y6761D01*
X6660Y6754D01*
X6645Y6742D01*
X6629Y6732D01*
X6613Y6724D01*
X6606Y6721D01*
X6600Y6718D01*
X6594Y6716D01*
X6589Y6714D01*
X6584Y6712D01*
X6581Y6711D01*
X6579Y6711D01*
X6578D01*
X6565Y6762D01*
X6582Y6766D01*
X6598Y6772D01*
X6610Y6779D01*
X6620Y6786D01*
X6628Y6792D01*
X6634Y6797D01*
X6637Y6801D01*
X6638Y6801D01*
X6639Y6802D01*
X6647Y6814D01*
X6653Y6825D01*
X6657Y6838D01*
X6660Y6849D01*
X6662Y6859D01*
X6663Y6863D01*
Y6867D01*
X6663Y6870D01*
Y6872D01*
Y6873D01*
Y6874D01*
X6663Y6887D01*
X6660Y6899D01*
X6657Y6910D01*
X6654Y6920D01*
X6651Y6928D01*
X6649Y6934D01*
X6647Y6937D01*
X6646Y6938D01*
X6646Y6939D01*
Y6939D01*
X6638Y6950D01*
X6629Y6959D01*
X6620Y6966D01*
X6611Y6973D01*
X6603Y6977D01*
X6596Y6980D01*
X6594Y6982D01*
X6592Y6983D01*
X6591Y6983D01*
X6591D01*
X6577Y6988D01*
X6562Y6992D01*
X6547Y6994D01*
X6534Y6996D01*
X6528Y6996D01*
X6523Y6997D01*
X6517D01*
X6513Y6997D01*
X6505D01*
X6491Y6997D01*
X6478Y6996D01*
X6465Y6994D01*
X6454Y6992D01*
X6445Y6989D01*
X6441Y6989D01*
X6438Y6987D01*
X6435Y6987D01*
X6433Y6986D01*
X6432Y6986D01*
X6431D01*
X6419Y6980D01*
X6407Y6974D01*
X6398Y6967D01*
X6389Y6960D01*
X6383Y6954D01*
X6378Y6949D01*
X6375Y6945D01*
X6374Y6945D01*
Y6944D01*
X6367Y6932D01*
X6362Y6920D01*
X6358Y6908D01*
X6355Y6896D01*
X6354Y6886D01*
X6353Y6882D01*
Y6877D01*
X6353Y6874D01*
Y6872D01*
Y6871D01*
Y6870D01*
X6353Y6856D01*
X6355Y6844D01*
X6358Y6833D01*
X6362Y6824D01*
X6366Y6817D01*
X6369Y6811D01*
X6371Y6808D01*
X6372Y6807D01*
X6380Y6797D01*
X6389Y6790D01*
X6400Y6783D01*
X6410Y6777D01*
X6419Y6773D01*
X6423Y6772D01*
X6426Y6770D01*
X6429Y6769D01*
X6431Y6768D01*
X6433Y6767D01*
X6433D01*
X6422Y6717D01*
X6403Y6724D01*
X6394Y6728D01*
X6386Y6732D01*
X6379Y6737D01*
X6372Y6742D01*
X6366Y6746D01*
X6360Y6750D01*
X6355Y6755D01*
X6351Y6759D01*
X6347Y6763D01*
X6344Y6766D01*
X6342Y6769D01*
X6340Y6770D01*
X6340Y6772D01*
X6339Y6772D01*
X6334Y6780D01*
X6329Y6787D01*
X6325Y6796D01*
X6321Y6804D01*
X6316Y6820D01*
X6313Y6835D01*
X6312Y6842D01*
X6311Y6849D01*
X6310Y6855D01*
X6310Y6859D01*
X6309Y6863D01*
Y6867D01*
Y6869D01*
Y6869D01*
X6310Y6888D01*
X6313Y6906D01*
X6317Y6921D01*
X6319Y6928D01*
X6321Y6935D01*
X6323Y6941D01*
X6325Y6946D01*
X6327Y6951D01*
X6329Y6955D01*
X6330Y6958D01*
X6331Y6960D01*
X6333Y6962D01*
Y6962D01*
X6342Y6977D01*
X6353Y6990D01*
X6364Y7001D01*
X6375Y7010D01*
X6385Y7018D01*
X6389Y7021D01*
X6393Y7023D01*
X6396Y7025D01*
X6399Y7026D01*
X6400Y7027D01*
X6400D01*
X6417Y7035D01*
X6436Y7041D01*
X6453Y7044D01*
X6470Y7047D01*
X6477Y7048D01*
X6484Y7049D01*
X6490Y7049D01*
X6495D01*
X6499Y7050D01*
X6505D01*
X6526Y7049D01*
D02*
G37*
G36*
X-374Y5899D02*
X-356Y5897D01*
X-338Y5894D01*
X-330Y5892D01*
X-323Y5890D01*
X-316Y5888D01*
X-310Y5887D01*
X-305Y5885D01*
X-300Y5883D01*
X-297Y5882D01*
X-294Y5881D01*
X-292Y5880D01*
X-292D01*
X-275Y5872D01*
X-260Y5862D01*
X-247Y5853D01*
X-237Y5843D01*
X-229Y5834D01*
X-223Y5827D01*
X-222Y5825D01*
X-220Y5823D01*
X-219Y5822D01*
X-219Y5821D01*
X-214Y5813D01*
X-211Y5805D01*
X-204Y5789D01*
X-200Y5772D01*
X-196Y5756D01*
X-196Y5748D01*
X-195Y5741D01*
X-194Y5736D01*
Y5730D01*
X-194Y5726D01*
Y5723D01*
Y5720D01*
Y5720D01*
X-194Y5709D01*
X-195Y5698D01*
X-199Y5679D01*
X-201Y5670D01*
X-204Y5661D01*
X-207Y5654D01*
X-210Y5647D01*
X-213Y5640D01*
X-216Y5635D01*
X-219Y5630D01*
X-221Y5626D01*
X-223Y5623D01*
X-225Y5620D01*
X-226Y5619D01*
X-226Y5619D01*
X-233Y5611D01*
X-240Y5604D01*
X-255Y5592D01*
X-271Y5582D01*
X-287Y5574D01*
X-294Y5571D01*
X-300Y5568D01*
X-306Y5566D01*
X-311Y5564D01*
X-316Y5562D01*
X-319Y5561D01*
X-321Y5561D01*
X-322D01*
X-335Y5612D01*
X-318Y5616D01*
X-302Y5622D01*
X-290Y5629D01*
X-280Y5636D01*
X-272Y5642D01*
X-266Y5647D01*
X-263Y5651D01*
X-262Y5651D01*
X-261Y5652D01*
X-253Y5664D01*
X-247Y5675D01*
X-243Y5688D01*
X-240Y5699D01*
X-238Y5709D01*
X-237Y5713D01*
Y5717D01*
X-237Y5720D01*
Y5722D01*
Y5723D01*
Y5724D01*
X-237Y5737D01*
X-240Y5749D01*
X-243Y5760D01*
X-246Y5770D01*
X-249Y5778D01*
X-251Y5784D01*
X-253Y5787D01*
X-254Y5788D01*
X-254Y5789D01*
Y5789D01*
X-262Y5800D01*
X-271Y5809D01*
X-280Y5816D01*
X-289Y5823D01*
X-297Y5827D01*
X-304Y5830D01*
X-306Y5832D01*
X-308Y5833D01*
X-309Y5833D01*
X-309D01*
X-323Y5838D01*
X-338Y5842D01*
X-353Y5844D01*
X-366Y5846D01*
X-372Y5846D01*
X-377Y5847D01*
X-383D01*
X-387Y5847D01*
X-395D01*
X-409Y5847D01*
X-422Y5846D01*
X-435Y5844D01*
X-446Y5842D01*
X-455Y5839D01*
X-459Y5839D01*
X-462Y5837D01*
X-465Y5837D01*
X-467Y5836D01*
X-468Y5836D01*
X-469D01*
X-481Y5830D01*
X-493Y5824D01*
X-502Y5817D01*
X-511Y5810D01*
X-517Y5804D01*
X-522Y5799D01*
X-525Y5795D01*
X-526Y5795D01*
Y5794D01*
X-533Y5782D01*
X-538Y5770D01*
X-542Y5758D01*
X-545Y5746D01*
X-546Y5736D01*
X-547Y5732D01*
Y5727D01*
X-547Y5724D01*
Y5722D01*
Y5721D01*
Y5720D01*
X-547Y5706D01*
X-545Y5694D01*
X-542Y5683D01*
X-538Y5674D01*
X-534Y5667D01*
X-531Y5661D01*
X-529Y5658D01*
X-528Y5657D01*
X-520Y5647D01*
X-511Y5640D01*
X-500Y5633D01*
X-490Y5627D01*
X-481Y5623D01*
X-477Y5622D01*
X-474Y5620D01*
X-471Y5619D01*
X-469Y5618D01*
X-467Y5617D01*
X-467D01*
X-478Y5567D01*
X-497Y5574D01*
X-506Y5578D01*
X-514Y5582D01*
X-521Y5587D01*
X-528Y5592D01*
X-534Y5596D01*
X-540Y5600D01*
X-545Y5605D01*
X-549Y5609D01*
X-553Y5613D01*
X-556Y5616D01*
X-558Y5619D01*
X-560Y5620D01*
X-560Y5622D01*
X-561Y5622D01*
X-566Y5630D01*
X-571Y5637D01*
X-575Y5646D01*
X-578Y5654D01*
X-584Y5670D01*
X-587Y5685D01*
X-588Y5692D01*
X-589Y5699D01*
X-590Y5705D01*
X-590Y5709D01*
X-591Y5713D01*
Y5717D01*
Y5719D01*
Y5719D01*
X-590Y5738D01*
X-587Y5756D01*
X-583Y5771D01*
X-581Y5778D01*
X-579Y5785D01*
X-577Y5791D01*
X-575Y5796D01*
X-573Y5801D01*
X-571Y5805D01*
X-570Y5808D01*
X-569Y5810D01*
X-567Y5812D01*
Y5812D01*
X-558Y5827D01*
X-547Y5840D01*
X-536Y5851D01*
X-525Y5860D01*
X-515Y5868D01*
X-511Y5871D01*
X-507Y5873D01*
X-504Y5875D01*
X-501Y5876D01*
X-500Y5877D01*
X-500D01*
X-483Y5885D01*
X-464Y5891D01*
X-447Y5894D01*
X-430Y5897D01*
X-423Y5898D01*
X-416Y5899D01*
X-410Y5899D01*
X-405D01*
X-401Y5900D01*
X-395D01*
X-374Y5899D01*
D02*
G37*
G36*
X6365Y6476D02*
X6382Y6490D01*
X6399Y6502D01*
X6416Y6514D01*
X6431Y6524D01*
X6439Y6528D01*
X6446Y6532D01*
X6451Y6536D01*
X6457Y6539D01*
X6461Y6541D01*
X6464Y6543D01*
X6466Y6544D01*
X6467Y6545D01*
X6489Y6556D01*
X6511Y6566D01*
X6532Y6574D01*
X6542Y6577D01*
X6551Y6581D01*
X6560Y6584D01*
X6567Y6586D01*
X6574Y6588D01*
X6579Y6590D01*
X6584Y6591D01*
X6588Y6593D01*
X6590Y6593D01*
X6591D01*
X6614Y6599D01*
X6625Y6601D01*
X6635Y6603D01*
X6644Y6605D01*
X6653Y6606D01*
X6662Y6607D01*
X6670Y6608D01*
X6676Y6609D01*
X6682Y6609D01*
X6688Y6610D01*
X6692D01*
X6695Y6611D01*
X6700D01*
Y6562D01*
X6679Y6560D01*
X6659Y6558D01*
X6641Y6555D01*
X6633Y6553D01*
X6626Y6552D01*
X6619Y6550D01*
X6613Y6549D01*
X6608Y6548D01*
X6603Y6547D01*
X6599Y6546D01*
X6597Y6545D01*
X6595Y6545D01*
X6595D01*
X6569Y6536D01*
X6545Y6528D01*
X6533Y6523D01*
X6522Y6518D01*
X6512Y6514D01*
X6502Y6509D01*
X6493Y6505D01*
X6485Y6501D01*
X6478Y6498D01*
X6472Y6495D01*
X6468Y6492D01*
X6464Y6491D01*
X6462Y6490D01*
X6461Y6489D01*
X6450Y6482D01*
X6438Y6476D01*
X6427Y6469D01*
X6417Y6462D01*
X6408Y6456D01*
X6400Y6450D01*
X6392Y6444D01*
X6385Y6439D01*
X6379Y6434D01*
X6373Y6429D01*
X6368Y6425D01*
X6364Y6422D01*
X6361Y6419D01*
X6359Y6418D01*
X6358Y6416D01*
X6357Y6416D01*
X6320D01*
Y6664D01*
X6365D01*
Y6476D01*
D02*
G37*
G36*
X7976Y4399D02*
X7994Y4397D01*
X8012Y4394D01*
X8020Y4392D01*
X8027Y4390D01*
X8034Y4388D01*
X8040Y4387D01*
X8045Y4385D01*
X8050Y4383D01*
X8053Y4382D01*
X8056Y4381D01*
X8058Y4380D01*
X8058D01*
X8075Y4372D01*
X8090Y4362D01*
X8103Y4353D01*
X8113Y4343D01*
X8121Y4334D01*
X8127Y4327D01*
X8128Y4325D01*
X8130Y4323D01*
X8131Y4322D01*
X8131Y4321D01*
X8136Y4313D01*
X8139Y4305D01*
X8146Y4289D01*
X8150Y4272D01*
X8154Y4256D01*
X8154Y4248D01*
X8155Y4241D01*
X8156Y4236D01*
Y4230D01*
X8156Y4226D01*
Y4223D01*
Y4220D01*
Y4220D01*
X8156Y4209D01*
X8155Y4198D01*
X8151Y4179D01*
X8149Y4170D01*
X8146Y4161D01*
X8143Y4154D01*
X8140Y4147D01*
X8137Y4140D01*
X8134Y4135D01*
X8131Y4130D01*
X8129Y4126D01*
X8127Y4123D01*
X8125Y4120D01*
X8124Y4119D01*
X8124Y4119D01*
X8117Y4111D01*
X8110Y4104D01*
X8095Y4092D01*
X8079Y4082D01*
X8063Y4074D01*
X8056Y4071D01*
X8050Y4068D01*
X8044Y4066D01*
X8039Y4064D01*
X8034Y4062D01*
X8031Y4061D01*
X8029Y4061D01*
X8028D01*
X8015Y4112D01*
X8032Y4116D01*
X8048Y4122D01*
X8060Y4129D01*
X8070Y4136D01*
X8078Y4142D01*
X8084Y4147D01*
X8087Y4151D01*
X8088Y4151D01*
X8089Y4152D01*
X8097Y4164D01*
X8103Y4175D01*
X8107Y4188D01*
X8110Y4199D01*
X8112Y4209D01*
X8113Y4213D01*
Y4217D01*
X8113Y4220D01*
Y4222D01*
Y4223D01*
Y4224D01*
X8113Y4237D01*
X8110Y4249D01*
X8107Y4260D01*
X8104Y4270D01*
X8101Y4278D01*
X8099Y4284D01*
X8097Y4287D01*
X8096Y4288D01*
X8096Y4289D01*
Y4289D01*
X8088Y4300D01*
X8079Y4309D01*
X8070Y4316D01*
X8061Y4323D01*
X8053Y4327D01*
X8046Y4330D01*
X8044Y4332D01*
X8042Y4333D01*
X8041Y4333D01*
X8041D01*
X8027Y4338D01*
X8012Y4342D01*
X7997Y4344D01*
X7984Y4346D01*
X7978Y4346D01*
X7973Y4347D01*
X7967D01*
X7963Y4347D01*
X7955D01*
X7941Y4347D01*
X7928Y4346D01*
X7915Y4344D01*
X7904Y4342D01*
X7895Y4339D01*
X7891Y4339D01*
X7888Y4337D01*
X7885Y4337D01*
X7883Y4336D01*
X7882Y4336D01*
X7881D01*
X7869Y4330D01*
X7857Y4324D01*
X7848Y4317D01*
X7839Y4311D01*
X7833Y4304D01*
X7828Y4299D01*
X7825Y4295D01*
X7824Y4295D01*
Y4294D01*
X7817Y4282D01*
X7812Y4270D01*
X7808Y4258D01*
X7805Y4246D01*
X7804Y4236D01*
X7803Y4232D01*
Y4227D01*
X7803Y4225D01*
Y4222D01*
Y4221D01*
Y4220D01*
X7803Y4206D01*
X7805Y4194D01*
X7808Y4183D01*
X7812Y4174D01*
X7816Y4167D01*
X7819Y4161D01*
X7821Y4158D01*
X7822Y4157D01*
X7830Y4147D01*
X7839Y4140D01*
X7850Y4133D01*
X7860Y4127D01*
X7869Y4123D01*
X7873Y4122D01*
X7876Y4120D01*
X7879Y4119D01*
X7881Y4118D01*
X7883Y4117D01*
X7883D01*
X7872Y4067D01*
X7853Y4074D01*
X7844Y4078D01*
X7836Y4082D01*
X7829Y4087D01*
X7822Y4092D01*
X7816Y4096D01*
X7810Y4100D01*
X7805Y4105D01*
X7801Y4109D01*
X7797Y4113D01*
X7794Y4116D01*
X7792Y4119D01*
X7790Y4120D01*
X7790Y4122D01*
X7789Y4122D01*
X7784Y4130D01*
X7779Y4137D01*
X7775Y4146D01*
X7771Y4154D01*
X7766Y4170D01*
X7763Y4185D01*
X7762Y4192D01*
X7761Y4199D01*
X7760Y4205D01*
X7760Y4209D01*
X7759Y4213D01*
Y4217D01*
Y4219D01*
Y4219D01*
X7760Y4238D01*
X7763Y4256D01*
X7767Y4271D01*
X7769Y4278D01*
X7771Y4285D01*
X7773Y4291D01*
X7775Y4296D01*
X7777Y4301D01*
X7779Y4305D01*
X7780Y4308D01*
X7781Y4311D01*
X7783Y4312D01*
Y4312D01*
X7792Y4327D01*
X7803Y4340D01*
X7814Y4351D01*
X7825Y4360D01*
X7835Y4368D01*
X7839Y4371D01*
X7843Y4373D01*
X7846Y4375D01*
X7849Y4376D01*
X7850Y4377D01*
X7850D01*
X7867Y4385D01*
X7886Y4391D01*
X7903Y4394D01*
X7920Y4397D01*
X7927Y4398D01*
X7934Y4399D01*
X7940Y4399D01*
X7945D01*
X7949Y4400D01*
X7955D01*
X7976Y4399D01*
D02*
G37*
G36*
X8048Y4017D02*
X8057Y4016D01*
X8065Y4015D01*
X8073Y4013D01*
X8087Y4007D01*
X8094Y4004D01*
X8100Y4000D01*
X8105Y3998D01*
X8110Y3995D01*
X8114Y3992D01*
X8117Y3989D01*
X8120Y3986D01*
X8121Y3985D01*
X8123Y3984D01*
X8123Y3983D01*
X8129Y3976D01*
X8134Y3969D01*
X8138Y3962D01*
X8142Y3954D01*
X8145Y3947D01*
X8148Y3939D01*
X8152Y3924D01*
X8154Y3917D01*
X8155Y3912D01*
X8155Y3906D01*
X8156Y3901D01*
X8156Y3897D01*
Y3894D01*
Y3892D01*
Y3892D01*
X8156Y3881D01*
X8155Y3871D01*
X8154Y3862D01*
X8151Y3854D01*
X8149Y3845D01*
X8146Y3838D01*
X8143Y3831D01*
X8139Y3824D01*
X8137Y3819D01*
X8134Y3814D01*
X8131Y3810D01*
X8128Y3806D01*
X8126Y3803D01*
X8124Y3802D01*
X8124Y3800D01*
X8123Y3800D01*
X8117Y3793D01*
X8110Y3788D01*
X8103Y3783D01*
X8096Y3779D01*
X8089Y3776D01*
X8082Y3773D01*
X8069Y3769D01*
X8058Y3766D01*
X8052Y3766D01*
X8048Y3765D01*
X8045Y3765D01*
X8040D01*
X8027Y3765D01*
X8015Y3768D01*
X8005Y3771D01*
X7996Y3774D01*
X7989Y3778D01*
X7983Y3780D01*
X7980Y3783D01*
X7979Y3783D01*
X7970Y3791D01*
X7962Y3800D01*
X7955Y3809D01*
X7950Y3817D01*
X7946Y3825D01*
X7944Y3831D01*
X7942Y3834D01*
X7942Y3835D01*
X7941Y3837D01*
Y3837D01*
X7937Y3827D01*
X7932Y3819D01*
X7927Y3811D01*
X7922Y3805D01*
X7918Y3800D01*
X7914Y3797D01*
X7912Y3795D01*
X7911Y3795D01*
X7904Y3790D01*
X7896Y3786D01*
X7888Y3784D01*
X7880Y3782D01*
X7874Y3781D01*
X7869Y3780D01*
X7865D01*
X7857Y3781D01*
X7849Y3782D01*
X7836Y3785D01*
X7824Y3790D01*
X7813Y3796D01*
X7805Y3802D01*
X7801Y3804D01*
X7798Y3807D01*
X7796Y3809D01*
X7794Y3810D01*
X7794Y3811D01*
X7793Y3811D01*
X7788Y3817D01*
X7783Y3824D01*
X7780Y3830D01*
X7776Y3837D01*
X7771Y3851D01*
X7767Y3864D01*
X7766Y3875D01*
X7764Y3880D01*
Y3885D01*
X7764Y3888D01*
Y3890D01*
Y3892D01*
Y3893D01*
X7764Y3902D01*
X7765Y3910D01*
X7769Y3926D01*
X7773Y3940D01*
X7778Y3951D01*
X7781Y3957D01*
X7783Y3961D01*
X7786Y3964D01*
X7788Y3968D01*
X7790Y3970D01*
X7791Y3972D01*
X7792Y3972D01*
X7793Y3973D01*
X7798Y3978D01*
X7804Y3983D01*
X7810Y3987D01*
X7816Y3990D01*
X7828Y3996D01*
X7839Y3999D01*
X7849Y4001D01*
X7853Y4002D01*
X7856Y4002D01*
X7859Y4003D01*
X7863D01*
X7873Y4002D01*
X7882Y4000D01*
X7890Y3998D01*
X7897Y3996D01*
X7903Y3993D01*
X7907Y3991D01*
X7910Y3989D01*
X7911Y3989D01*
X7918Y3983D01*
X7924Y3976D01*
X7929Y3969D01*
X7934Y3961D01*
X7936Y3955D01*
X7939Y3950D01*
X7941Y3946D01*
X7941Y3945D01*
Y3945D01*
X7945Y3957D01*
X7951Y3968D01*
X7956Y3978D01*
X7962Y3985D01*
X7967Y3991D01*
X7972Y3996D01*
X7975Y3998D01*
X7976Y3999D01*
X7976D01*
X7986Y4006D01*
X7997Y4010D01*
X8007Y4013D01*
X8017Y4016D01*
X8025Y4017D01*
X8029Y4017D01*
X8032D01*
X8035Y4018D01*
X8039D01*
X8048Y4017D01*
D02*
G37*
G36*
X-447Y5473D02*
X-451Y5464D01*
X-454Y5456D01*
X-459Y5448D01*
X-462Y5442D01*
X-465Y5437D01*
X-467Y5433D01*
X-468Y5433D01*
Y5432D01*
X-474Y5422D01*
X-480Y5413D01*
X-485Y5406D01*
X-491Y5399D01*
X-495Y5394D01*
X-498Y5390D01*
X-500Y5388D01*
X-501Y5387D01*
X-200D01*
Y5340D01*
X-586D01*
Y5371D01*
X-577Y5376D01*
X-567Y5382D01*
X-559Y5389D01*
X-550Y5396D01*
X-544Y5403D01*
X-539Y5408D01*
X-535Y5412D01*
X-535Y5412D01*
X-534Y5413D01*
X-525Y5424D01*
X-516Y5436D01*
X-508Y5447D01*
X-502Y5458D01*
X-497Y5467D01*
X-495Y5471D01*
X-493Y5475D01*
X-491Y5477D01*
X-490Y5479D01*
X-490Y5481D01*
Y5481D01*
X-443D01*
X-447Y5473D01*
D02*
G37*
G36*
X6933Y11985D02*
Y11942D01*
X6766D01*
Y11850D01*
X6719D01*
Y11942D01*
X6667D01*
Y11985D01*
X6719D01*
Y12234D01*
X6758D01*
X6933Y11985D01*
D02*
G37*
G36*
X7209Y1331D02*
X7165Y1325D01*
X7161Y1331D01*
X7156Y1336D01*
X7151Y1341D01*
X7147Y1345D01*
X7143Y1348D01*
X7140Y1350D01*
X7137Y1351D01*
X7137Y1352D01*
X7130Y1355D01*
X7123Y1358D01*
X7116Y1360D01*
X7109Y1362D01*
X7103Y1362D01*
X7099Y1363D01*
X7095D01*
X7082Y1362D01*
X7071Y1359D01*
X7060Y1355D01*
X7052Y1351D01*
X7045Y1347D01*
X7040Y1343D01*
X7037Y1341D01*
X7036Y1340D01*
X7028Y1330D01*
X7023Y1320D01*
X7019Y1309D01*
X7016Y1299D01*
X7014Y1290D01*
X7014Y1286D01*
Y1282D01*
X7013Y1280D01*
Y1278D01*
Y1276D01*
Y1276D01*
X7014Y1261D01*
X7017Y1247D01*
X7021Y1235D01*
X7025Y1225D01*
X7029Y1218D01*
X7033Y1212D01*
X7035Y1208D01*
X7037Y1208D01*
Y1207D01*
X7041Y1203D01*
X7046Y1199D01*
X7055Y1193D01*
X7065Y1189D01*
X7074Y1185D01*
X7082Y1183D01*
X7089Y1183D01*
X7091Y1182D01*
X7095D01*
X7105Y1183D01*
X7114Y1185D01*
X7122Y1188D01*
X7129Y1191D01*
X7135Y1194D01*
X7139Y1197D01*
X7141Y1199D01*
X7143Y1200D01*
X7150Y1207D01*
X7155Y1216D01*
X7159Y1225D01*
X7162Y1234D01*
X7165Y1242D01*
X7167Y1248D01*
X7167Y1251D01*
X7168Y1252D01*
Y1254D01*
Y1254D01*
X7217Y1251D01*
X7216Y1242D01*
X7214Y1233D01*
X7210Y1218D01*
X7203Y1204D01*
X7197Y1193D01*
X7193Y1189D01*
X7190Y1185D01*
X7188Y1181D01*
X7185Y1178D01*
X7183Y1176D01*
X7181Y1174D01*
X7181Y1173D01*
X7180Y1173D01*
X7174Y1168D01*
X7167Y1163D01*
X7159Y1159D01*
X7152Y1156D01*
X7138Y1151D01*
X7125Y1147D01*
X7119Y1146D01*
X7113Y1145D01*
X7107Y1145D01*
X7103Y1144D01*
X7100Y1144D01*
X7095D01*
X7083Y1144D01*
X7072Y1145D01*
X7062Y1148D01*
X7052Y1151D01*
X7043Y1154D01*
X7034Y1158D01*
X7027Y1162D01*
X7020Y1167D01*
X7014Y1171D01*
X7009Y1175D01*
X7004Y1179D01*
X7000Y1183D01*
X6997Y1186D01*
X6995Y1188D01*
X6994Y1189D01*
X6993Y1190D01*
X6988Y1197D01*
X6983Y1204D01*
X6979Y1212D01*
X6976Y1220D01*
X6971Y1235D01*
X6966Y1249D01*
X6965Y1255D01*
X6965Y1261D01*
X6964Y1266D01*
X6964Y1271D01*
X6963Y1275D01*
Y1278D01*
Y1279D01*
Y1280D01*
X6964Y1290D01*
X6965Y1300D01*
X6966Y1309D01*
X6968Y1317D01*
X6971Y1325D01*
X6974Y1333D01*
X6977Y1339D01*
X6980Y1345D01*
X6984Y1351D01*
X6987Y1355D01*
X6990Y1359D01*
X6993Y1363D01*
X6995Y1366D01*
X6996Y1368D01*
X6997Y1369D01*
X6998Y1369D01*
X7004Y1376D01*
X7011Y1381D01*
X7019Y1386D01*
X7026Y1390D01*
X7033Y1393D01*
X7040Y1396D01*
X7054Y1400D01*
X7059Y1402D01*
X7065Y1403D01*
X7070Y1403D01*
X7075Y1404D01*
X7078Y1404D01*
X7083D01*
X7097Y1403D01*
X7110Y1400D01*
X7123Y1397D01*
X7133Y1392D01*
X7143Y1388D01*
X7146Y1386D01*
X7150Y1384D01*
X7152Y1382D01*
X7154Y1381D01*
X7155Y1380D01*
X7155Y1380D01*
X7134Y1483D01*
X6981D01*
Y1529D01*
X7172D01*
X7209Y1331D01*
D02*
G37*
G36*
X7380Y2677D02*
X7386Y2667D01*
X7393Y2659D01*
X7400Y2650D01*
X7407Y2644D01*
X7412Y2639D01*
X7416Y2635D01*
X7416Y2635D01*
X7417Y2634D01*
X7428Y2625D01*
X7440Y2616D01*
X7451Y2608D01*
X7462Y2602D01*
X7471Y2597D01*
X7475Y2595D01*
X7479Y2593D01*
X7481Y2591D01*
X7483Y2590D01*
X7485Y2590D01*
X7485D01*
Y2543D01*
X7477Y2547D01*
X7468Y2551D01*
X7460Y2554D01*
X7452Y2559D01*
X7446Y2562D01*
X7441Y2565D01*
X7437Y2567D01*
X7437Y2568D01*
X7436D01*
X7426Y2574D01*
X7417Y2580D01*
X7410Y2585D01*
X7403Y2591D01*
X7398Y2595D01*
X7394Y2598D01*
X7392Y2600D01*
X7391Y2601D01*
Y2300D01*
X7344D01*
Y2686D01*
X7375D01*
X7380Y2677D01*
D02*
G37*
G36*
X7753Y2463D02*
Y2300D01*
X7702D01*
Y2463D01*
X7548Y2684D01*
X7607D01*
X7682Y2571D01*
X7691Y2557D01*
X7699Y2545D01*
X7706Y2533D01*
X7712Y2523D01*
X7717Y2515D01*
X7721Y2508D01*
X7722Y2506D01*
X7723Y2504D01*
X7724Y2504D01*
Y2503D01*
X7731Y2515D01*
X7738Y2527D01*
X7744Y2538D01*
X7750Y2548D01*
X7756Y2556D01*
X7760Y2563D01*
X7761Y2565D01*
X7762Y2567D01*
X7763Y2567D01*
Y2568D01*
X7839Y2684D01*
X7901D01*
X7753Y2463D01*
D02*
G37*
G36*
X7138Y12240D02*
X7156Y12237D01*
X7171Y12233D01*
X7178Y12231D01*
X7185Y12229D01*
X7191Y12227D01*
X7196Y12225D01*
X7201Y12223D01*
X7205Y12221D01*
X7208Y12220D01*
X7210Y12219D01*
X7212Y12217D01*
X7212D01*
X7227Y12208D01*
X7240Y12197D01*
X7251Y12186D01*
X7260Y12175D01*
X7268Y12165D01*
X7271Y12161D01*
X7273Y12157D01*
X7275Y12154D01*
X7276Y12151D01*
X7277Y12150D01*
Y12150D01*
X7285Y12133D01*
X7291Y12114D01*
X7294Y12097D01*
X7297Y12080D01*
X7298Y12073D01*
X7299Y12066D01*
X7299Y12060D01*
Y12055D01*
X7300Y12051D01*
Y12048D01*
Y12045D01*
Y12045D01*
X7299Y12024D01*
X7297Y12006D01*
X7294Y11988D01*
X7292Y11980D01*
X7290Y11973D01*
X7288Y11966D01*
X7287Y11960D01*
X7285Y11955D01*
X7283Y11950D01*
X7282Y11947D01*
X7281Y11944D01*
X7280Y11942D01*
Y11942D01*
X7272Y11925D01*
X7262Y11910D01*
X7253Y11897D01*
X7243Y11887D01*
X7234Y11879D01*
X7227Y11873D01*
X7225Y11872D01*
X7223Y11870D01*
X7222Y11869D01*
X7221Y11869D01*
X7213Y11864D01*
X7205Y11861D01*
X7189Y11854D01*
X7172Y11850D01*
X7156Y11846D01*
X7148Y11846D01*
X7141Y11845D01*
X7136Y11844D01*
X7130D01*
X7126Y11844D01*
X7120D01*
X7109Y11844D01*
X7098Y11845D01*
X7079Y11849D01*
X7070Y11851D01*
X7061Y11854D01*
X7054Y11857D01*
X7047Y11860D01*
X7040Y11863D01*
X7035Y11866D01*
X7030Y11869D01*
X7026Y11871D01*
X7023Y11873D01*
X7020Y11875D01*
X7019Y11876D01*
X7019Y11876D01*
X7011Y11883D01*
X7004Y11890D01*
X6992Y11905D01*
X6982Y11921D01*
X6974Y11937D01*
X6971Y11944D01*
X6968Y11950D01*
X6966Y11956D01*
X6964Y11961D01*
X6962Y11966D01*
X6961Y11969D01*
X6961Y11971D01*
Y11972D01*
X7012Y11985D01*
X7016Y11968D01*
X7022Y11952D01*
X7029Y11940D01*
X7036Y11930D01*
X7042Y11922D01*
X7047Y11916D01*
X7051Y11913D01*
X7051Y11912D01*
X7052Y11911D01*
X7064Y11903D01*
X7075Y11897D01*
X7088Y11893D01*
X7099Y11890D01*
X7109Y11888D01*
X7113Y11887D01*
X7117D01*
X7120Y11887D01*
X7124D01*
X7137Y11887D01*
X7149Y11890D01*
X7160Y11893D01*
X7170Y11896D01*
X7178Y11899D01*
X7184Y11901D01*
X7187Y11903D01*
X7188Y11904D01*
X7189Y11904D01*
X7189D01*
X7200Y11912D01*
X7209Y11921D01*
X7216Y11930D01*
X7223Y11939D01*
X7227Y11947D01*
X7230Y11954D01*
X7232Y11956D01*
X7233Y11958D01*
X7233Y11959D01*
Y11959D01*
X7238Y11973D01*
X7242Y11988D01*
X7244Y12003D01*
X7246Y12016D01*
X7246Y12022D01*
X7247Y12027D01*
Y12033D01*
X7247Y12037D01*
Y12040D01*
Y12042D01*
Y12044D01*
Y12045D01*
X7247Y12059D01*
X7246Y12072D01*
X7244Y12085D01*
X7242Y12096D01*
X7239Y12105D01*
X7239Y12109D01*
X7237Y12112D01*
X7237Y12115D01*
X7236Y12117D01*
X7236Y12118D01*
Y12119D01*
X7230Y12131D01*
X7224Y12143D01*
X7217Y12152D01*
X7210Y12161D01*
X7204Y12167D01*
X7199Y12172D01*
X7195Y12175D01*
X7195Y12176D01*
X7194D01*
X7182Y12183D01*
X7170Y12188D01*
X7158Y12192D01*
X7146Y12195D01*
X7136Y12196D01*
X7132Y12197D01*
X7127D01*
X7125Y12197D01*
X7120D01*
X7106Y12197D01*
X7094Y12195D01*
X7083Y12192D01*
X7074Y12188D01*
X7067Y12184D01*
X7061Y12181D01*
X7058Y12179D01*
X7057Y12178D01*
X7047Y12170D01*
X7040Y12161D01*
X7033Y12150D01*
X7027Y12140D01*
X7023Y12131D01*
X7022Y12127D01*
X7020Y12124D01*
X7019Y12121D01*
X7018Y12119D01*
X7017Y12117D01*
Y12117D01*
X6967Y12128D01*
X6974Y12147D01*
X6978Y12156D01*
X6982Y12164D01*
X6987Y12171D01*
X6992Y12178D01*
X6996Y12184D01*
X7000Y12190D01*
X7005Y12195D01*
X7009Y12199D01*
X7013Y12203D01*
X7016Y12206D01*
X7019Y12208D01*
X7020Y12210D01*
X7022Y12210D01*
X7022Y12211D01*
X7030Y12216D01*
X7037Y12221D01*
X7046Y12225D01*
X7054Y12228D01*
X7070Y12234D01*
X7085Y12237D01*
X7092Y12238D01*
X7099Y12239D01*
X7105Y12240D01*
X7109Y12240D01*
X7113Y12241D01*
X7119D01*
X7138Y12240D01*
D02*
G37*
%LPC*%
G36*
X99Y5469D02*
X96D01*
X81Y5468D01*
X68Y5465D01*
X56Y5462D01*
X47Y5457D01*
X39Y5453D01*
X34Y5450D01*
X30Y5447D01*
X29Y5446D01*
X24Y5441D01*
X20Y5437D01*
X14Y5427D01*
X10Y5419D01*
X6Y5410D01*
X4Y5402D01*
X4Y5396D01*
X3Y5394D01*
Y5392D01*
Y5392D01*
Y5391D01*
X4Y5380D01*
X7Y5370D01*
X11Y5361D01*
X15Y5354D01*
X19Y5347D01*
X24Y5343D01*
X26Y5340D01*
X27Y5339D01*
X37Y5332D01*
X48Y5327D01*
X58Y5323D01*
X69Y5320D01*
X78Y5319D01*
X81Y5318D01*
X85D01*
X88Y5317D01*
X92D01*
X106Y5319D01*
X119Y5321D01*
X129Y5324D01*
X139Y5328D01*
X146Y5332D01*
X151Y5335D01*
X154Y5338D01*
X155Y5339D01*
X163Y5347D01*
X169Y5356D01*
X172Y5365D01*
X175Y5373D01*
X177Y5381D01*
X177Y5387D01*
X178Y5389D01*
Y5391D01*
Y5392D01*
Y5392D01*
X177Y5404D01*
X174Y5414D01*
X171Y5424D01*
X166Y5432D01*
X162Y5438D01*
X159Y5443D01*
X156Y5446D01*
X155Y5447D01*
X146Y5454D01*
X136Y5459D01*
X127Y5464D01*
X117Y5466D01*
X108Y5468D01*
X101Y5468D01*
X99Y5469D01*
D02*
G37*
G36*
X6766Y12157D02*
Y11985D01*
X6887D01*
X6766Y12157D01*
D02*
G37*
G36*
X11530Y8515D02*
X11526D01*
X11513Y8514D01*
X11501Y8512D01*
X11490Y8508D01*
X11482Y8504D01*
X11475Y8500D01*
X11470Y8497D01*
X11467Y8494D01*
X11466Y8493D01*
X11458Y8484D01*
X11452Y8476D01*
X11448Y8466D01*
X11445Y8458D01*
X11444Y8450D01*
X11443Y8445D01*
X11442Y8442D01*
Y8440D01*
Y8440D01*
Y8439D01*
X11444Y8428D01*
X11446Y8417D01*
X11450Y8408D01*
X11454Y8400D01*
X11458Y8394D01*
X11462Y8389D01*
X11465Y8387D01*
X11466Y8385D01*
X11475Y8378D01*
X11485Y8373D01*
X11496Y8370D01*
X11506Y8367D01*
X11514Y8366D01*
X11518Y8365D01*
X11522D01*
X11524Y8364D01*
X11528D01*
X11543Y8366D01*
X11556Y8368D01*
X11568Y8371D01*
X11577Y8375D01*
X11584Y8379D01*
X11589Y8383D01*
X11593Y8385D01*
X11594Y8386D01*
X11602Y8394D01*
X11608Y8403D01*
X11612Y8412D01*
X11615Y8419D01*
X11617Y8427D01*
X11617Y8432D01*
X11618Y8435D01*
Y8436D01*
Y8437D01*
Y8438D01*
X11617Y8445D01*
X11616Y8452D01*
X11614Y8459D01*
X11612Y8465D01*
X11610Y8470D01*
X11608Y8473D01*
X11607Y8476D01*
X11607Y8477D01*
X11602Y8483D01*
X11596Y8489D01*
X11591Y8494D01*
X11585Y8498D01*
X11580Y8501D01*
X11576Y8504D01*
X11574Y8505D01*
X11573Y8505D01*
X11564Y8509D01*
X11556Y8511D01*
X11548Y8513D01*
X11541Y8514D01*
X11535Y8515D01*
X11530Y8515D01*
D02*
G37*
G36*
X8043Y3969D02*
X8039D01*
X8028Y3968D01*
X8017Y3966D01*
X8007Y3962D01*
X7999Y3958D01*
X7993Y3955D01*
X7988Y3951D01*
X7985Y3949D01*
X7984Y3948D01*
X7976Y3939D01*
X7971Y3930D01*
X7967Y3921D01*
X7965Y3912D01*
X7963Y3905D01*
X7962Y3898D01*
X7962Y3896D01*
Y3894D01*
Y3893D01*
Y3893D01*
X7963Y3881D01*
X7965Y3869D01*
X7969Y3859D01*
X7973Y3851D01*
X7977Y3845D01*
X7981Y3840D01*
X7983Y3837D01*
X7984Y3836D01*
X7993Y3828D01*
X8003Y3823D01*
X8012Y3819D01*
X8021Y3816D01*
X8029Y3814D01*
X8035Y3814D01*
X8037Y3813D01*
X8041D01*
X8053Y3814D01*
X8063Y3817D01*
X8073Y3820D01*
X8081Y3824D01*
X8087Y3828D01*
X8092Y3832D01*
X8095Y3834D01*
X8096Y3835D01*
X8103Y3844D01*
X8108Y3853D01*
X8113Y3862D01*
X8115Y3871D01*
X8117Y3879D01*
X8117Y3885D01*
X8118Y3888D01*
Y3889D01*
Y3890D01*
Y3891D01*
X8117Y3899D01*
X8116Y3907D01*
X8115Y3913D01*
X8113Y3920D01*
X8111Y3925D01*
X8110Y3928D01*
X8108Y3931D01*
X8108Y3932D01*
X8104Y3938D01*
X8099Y3944D01*
X8094Y3949D01*
X8089Y3953D01*
X8085Y3956D01*
X8082Y3958D01*
X8079Y3959D01*
X8079Y3960D01*
X8072Y3963D01*
X8065Y3965D01*
X8058Y3967D01*
X8052Y3968D01*
X8046Y3969D01*
X8043Y3969D01*
D02*
G37*
G36*
X6497Y12697D02*
X6494D01*
X6489Y12696D01*
X6483Y12696D01*
X6472Y12692D01*
X6463Y12687D01*
X6455Y12681D01*
X6448Y12675D01*
X6444Y12670D01*
X6441Y12666D01*
X6439Y12666D01*
Y12665D01*
X6435Y12659D01*
X6432Y12651D01*
X6429Y12643D01*
X6427Y12633D01*
X6423Y12612D01*
X6420Y12591D01*
X6419Y12580D01*
X6418Y12571D01*
X6418Y12562D01*
Y12555D01*
X6417Y12548D01*
Y12544D01*
Y12541D01*
Y12540D01*
Y12523D01*
X6418Y12507D01*
X6419Y12493D01*
X6421Y12480D01*
X6423Y12468D01*
X6424Y12458D01*
X6426Y12449D01*
X6428Y12441D01*
X6431Y12434D01*
X6432Y12428D01*
X6434Y12423D01*
X6436Y12420D01*
X6437Y12417D01*
X6438Y12415D01*
X6439Y12414D01*
Y12413D01*
X6444Y12408D01*
X6448Y12403D01*
X6453Y12399D01*
X6458Y12395D01*
X6466Y12390D01*
X6475Y12386D01*
X6483Y12384D01*
X6489Y12383D01*
X6491Y12382D01*
X6494D01*
X6500Y12383D01*
X6506Y12383D01*
X6516Y12387D01*
X6525Y12392D01*
X6534Y12398D01*
X6540Y12403D01*
X6545Y12408D01*
X6548Y12412D01*
X6549Y12413D01*
Y12413D01*
X6552Y12420D01*
X6556Y12428D01*
X6559Y12437D01*
X6561Y12446D01*
X6565Y12467D01*
X6568Y12488D01*
X6569Y12498D01*
X6569Y12508D01*
X6570Y12517D01*
Y12524D01*
X6571Y12531D01*
Y12535D01*
Y12538D01*
Y12540D01*
Y12557D01*
X6569Y12572D01*
X6568Y12586D01*
X6567Y12599D01*
X6565Y12611D01*
X6563Y12622D01*
X6561Y12631D01*
X6558Y12640D01*
X6556Y12647D01*
X6554Y12653D01*
X6552Y12658D01*
X6550Y12662D01*
X6549Y12665D01*
X6548Y12667D01*
X6547Y12668D01*
Y12669D01*
X6543Y12674D01*
X6539Y12678D01*
X6530Y12685D01*
X6521Y12690D01*
X6513Y12693D01*
X6506Y12696D01*
X6500Y12696D01*
X6497Y12697D01*
D02*
G37*
G36*
X7866Y3954D02*
X7862D01*
X7853Y3954D01*
X7845Y3951D01*
X7838Y3948D01*
X7832Y3945D01*
X7827Y3942D01*
X7823Y3940D01*
X7821Y3937D01*
X7820Y3937D01*
X7814Y3930D01*
X7810Y3922D01*
X7807Y3914D01*
X7805Y3907D01*
X7804Y3901D01*
X7803Y3896D01*
Y3893D01*
Y3892D01*
Y3892D01*
X7803Y3882D01*
X7805Y3873D01*
X7808Y3866D01*
X7811Y3859D01*
X7815Y3854D01*
X7818Y3850D01*
X7820Y3848D01*
X7821Y3847D01*
X7828Y3841D01*
X7835Y3837D01*
X7842Y3834D01*
X7849Y3831D01*
X7855Y3830D01*
X7860Y3829D01*
X7864D01*
X7873Y3830D01*
X7881Y3832D01*
X7889Y3834D01*
X7894Y3838D01*
X7900Y3841D01*
X7903Y3844D01*
X7905Y3846D01*
X7906Y3847D01*
X7912Y3854D01*
X7916Y3861D01*
X7919Y3869D01*
X7921Y3876D01*
X7922Y3882D01*
X7923Y3887D01*
Y3890D01*
Y3891D01*
Y3892D01*
X7922Y3902D01*
X7920Y3910D01*
X7918Y3919D01*
X7914Y3925D01*
X7911Y3930D01*
X7908Y3934D01*
X7907Y3937D01*
X7906Y3937D01*
X7899Y3943D01*
X7891Y3947D01*
X7884Y3950D01*
X7877Y3952D01*
X7871Y3953D01*
X7866Y3954D01*
D02*
G37*
%LPD*%
D11*
X4849Y5841D02*
X6975D01*
Y2297D02*
Y5841D01*
X4849Y2297D02*
X6975D01*
X4849D02*
Y5841D01*
D38*
X700Y-390D02*
Y-350D01*
X710Y-390D02*
Y-340D01*
X720Y-400D02*
Y-310D01*
X730Y-410D02*
Y-300D01*
X740Y-410D02*
Y-300D01*
X750Y-420D02*
Y-290D01*
X760Y-420D02*
Y-290D01*
X770Y-410D02*
Y-280D01*
X780Y-410D02*
Y-270D01*
X790Y-410D02*
Y-270D01*
X800Y-410D02*
Y-260D01*
X810Y-400D02*
Y-260D01*
X820Y-400D02*
Y-260D01*
X830Y-390D02*
Y-250D01*
X840Y-390D02*
Y-240D01*
X850Y-390D02*
Y-230D01*
X860Y-390D02*
Y-230D01*
X870Y-380D02*
Y-220D01*
X880Y-380D02*
Y-210D01*
X890Y-370D02*
Y-200D01*
X900Y-370D02*
Y-190D01*
X910Y-370D02*
Y-190D01*
X920Y-360D02*
Y-180D01*
X930Y-360D02*
Y-180D01*
X940Y-360D02*
Y-170D01*
X950Y-350D02*
Y-160D01*
X960Y-350D02*
Y-150D01*
X970Y-340D02*
Y-140D01*
X980Y-340D02*
Y-130D01*
X990Y-340D02*
Y-120D01*
X1000Y-330D02*
Y-110D01*
X1010Y-330D02*
Y-100D01*
X1020Y-320D02*
Y-100D01*
X1030Y-320D02*
Y-90D01*
X1040Y-310D02*
Y-80D01*
X1050Y-310D02*
Y-70D01*
X1060Y-310D02*
Y-70D01*
X1070Y-310D02*
Y-60D01*
X1080Y-300D02*
Y-50D01*
X1090Y-300D02*
Y-40D01*
X1100Y-300D02*
Y-30D01*
X1110Y-290D02*
Y-30D01*
X1120Y-290D02*
Y-20D01*
X1130Y-280D02*
Y-20D01*
X1140Y-280D02*
Y-10D01*
X1150Y-140D02*
Y0D01*
Y-270D02*
Y-150D01*
X1160Y-130D02*
Y10D01*
Y-270D02*
Y-150D01*
X1170Y-120D02*
Y10D01*
Y-270D02*
Y-150D01*
X1180Y-120D02*
Y20D01*
Y-260D02*
Y-150D01*
X1190Y-110D02*
Y30D01*
Y-260D02*
Y-150D01*
X1200Y-100D02*
Y40D01*
Y-250D02*
Y-150D01*
X1210Y-90D02*
Y40D01*
Y-240D02*
Y-130D01*
X1220Y-90D02*
Y40D01*
Y-240D02*
Y-140D01*
X1230Y-80D02*
Y50D01*
Y-240D02*
Y-130D01*
X1240Y-80D02*
Y60D01*
Y-240D02*
Y-120D01*
X1250Y-70D02*
Y70D01*
Y-230D02*
Y-120D01*
X1260Y-60D02*
Y70D01*
Y-220D02*
Y-120D01*
X1270Y4370D02*
Y4390D01*
Y4330D02*
Y4360D01*
Y-60D02*
Y80D01*
Y-110D02*
Y-100D01*
Y-220D02*
Y-120D01*
X1280Y4310D02*
Y4420D01*
Y-50D02*
Y90D01*
Y-210D02*
Y-100D01*
X1290Y4420D02*
Y4430D01*
Y4310D02*
Y4410D01*
Y-40D02*
Y100D01*
Y-210D02*
Y-100D01*
X1300Y4440D02*
Y4470D01*
Y4420D02*
Y4430D01*
Y4290D02*
Y4410D01*
Y-40D02*
Y100D01*
Y-200D02*
Y-100D01*
X1310Y4290D02*
Y4480D01*
Y-30D02*
Y110D01*
Y-200D02*
Y-100D01*
X1320Y4290D02*
Y4490D01*
Y-20D02*
Y120D01*
Y-200D02*
Y-100D01*
X1330Y4290D02*
Y4510D01*
Y-10D02*
Y120D01*
Y-190D02*
Y-90D01*
X1340Y4290D02*
Y4520D01*
Y0D02*
Y120D01*
Y-190D02*
Y-80D01*
X1350Y4400D02*
Y4520D01*
Y4290D02*
Y4340D01*
Y0D02*
Y120D01*
Y-180D02*
Y-80D01*
X1360Y4410D02*
Y4530D01*
Y4290D02*
Y4310D01*
Y10D02*
Y140D01*
Y-180D02*
Y-70D01*
X1370Y4410D02*
Y4540D01*
Y20D02*
Y140D01*
Y-170D02*
Y-70D01*
X1380Y4420D02*
Y4560D01*
Y20D02*
Y150D01*
Y-160D02*
Y-70D01*
X1390Y4420D02*
Y4570D01*
Y30D02*
Y160D01*
Y-160D02*
Y-60D01*
X1400Y4430D02*
Y4570D01*
Y40D02*
Y170D01*
Y-160D02*
Y-50D01*
X1410Y4440D02*
Y4590D01*
Y40D02*
Y180D01*
Y-150D02*
Y-40D01*
X1420Y4460D02*
Y4600D01*
Y50D02*
Y180D01*
Y-150D02*
Y-40D01*
X1430Y4460D02*
Y4600D01*
Y60D02*
Y180D01*
Y-150D02*
Y-30D01*
Y-180D02*
Y-170D01*
X1440Y4470D02*
Y4620D01*
Y70D02*
Y190D01*
Y-140D02*
Y-20D01*
X1450Y4470D02*
Y4630D01*
Y70D02*
Y200D01*
Y-130D02*
Y-20D01*
X1460Y4480D02*
Y4630D01*
Y80D02*
Y210D01*
Y-130D02*
Y-10D01*
X1470Y4490D02*
Y4640D01*
Y80D02*
Y210D01*
Y-120D02*
Y-10D01*
X1480Y4500D02*
Y4640D01*
Y80D02*
Y220D01*
Y-110D02*
Y-10D01*
X1490Y4520D02*
Y4640D01*
Y90D02*
Y220D01*
Y-110D02*
Y0D01*
X1500Y4520D02*
Y4650D01*
Y90D02*
Y230D01*
Y-100D02*
Y10D01*
X1510Y4540D02*
Y4670D01*
Y100D02*
Y240D01*
Y-100D02*
Y10D01*
X1520Y4550D02*
Y4680D01*
Y100D02*
Y240D01*
Y-90D02*
Y20D01*
X1530Y4550D02*
Y4680D01*
Y110D02*
Y250D01*
Y-90D02*
Y20D01*
X1540Y4560D02*
Y4690D01*
Y120D02*
Y260D01*
Y-90D02*
Y30D01*
X1550Y4570D02*
Y4700D01*
Y130D02*
Y270D01*
Y-80D02*
Y30D01*
X1560Y4580D02*
Y4710D01*
Y140D02*
Y270D01*
Y-70D02*
Y30D01*
X1570Y4590D02*
Y4720D01*
Y140D02*
Y270D01*
Y-70D02*
Y40D01*
X1580Y4590D02*
Y4720D01*
Y150D02*
Y290D01*
Y-60D02*
Y50D01*
X1590Y4600D02*
Y4730D01*
Y160D02*
Y290D01*
Y-60D02*
Y50D01*
X1600Y4610D02*
Y4740D01*
Y170D02*
Y300D01*
Y-60D02*
Y50D01*
X1610Y4610D02*
Y4750D01*
Y170D02*
Y310D01*
Y-60D02*
Y60D01*
X1620Y4620D02*
Y4760D01*
Y180D02*
Y310D01*
Y-50D02*
Y60D01*
X1630Y4630D02*
Y4770D01*
Y180D02*
Y320D01*
Y-40D02*
Y70D01*
X1640Y4640D02*
Y4770D01*
Y180D02*
Y330D01*
Y-40D02*
Y70D01*
X1650Y4650D02*
Y4770D01*
Y190D02*
Y330D01*
Y-40D02*
Y80D01*
X1660Y4650D02*
Y4790D01*
Y210D02*
Y330D01*
Y-30D02*
Y90D01*
X1670Y4660D02*
Y4800D01*
Y210D02*
Y340D01*
Y-30D02*
Y100D01*
X1680Y4670D02*
Y4810D01*
Y220D02*
Y350D01*
Y-20D02*
Y100D01*
X1690Y4680D02*
Y4820D01*
Y220D02*
Y360D01*
Y-20D02*
Y110D01*
X1700Y4680D02*
Y4820D01*
Y230D02*
Y360D01*
Y-10D02*
Y110D01*
X1710Y4690D02*
Y4830D01*
Y240D02*
Y370D01*
Y-10D02*
Y110D01*
X1720Y4710D02*
Y4840D01*
Y240D02*
Y370D01*
Y-10D02*
Y120D01*
X1730Y4710D02*
Y4840D01*
Y240D02*
Y380D01*
Y0D02*
Y120D01*
X1740Y4720D02*
Y4850D01*
Y250D02*
Y380D01*
Y0D02*
Y130D01*
X1750Y4730D02*
Y4850D01*
Y270D02*
Y380D01*
Y10D02*
Y130D01*
X1760Y4730D02*
Y4860D01*
Y280D02*
Y390D01*
Y10D02*
Y140D01*
X1770Y4740D02*
Y4870D01*
Y290D02*
Y410D01*
Y20D02*
Y140D01*
X1780Y4740D02*
Y4880D01*
Y290D02*
Y420D01*
Y20D02*
Y140D01*
X1790Y4750D02*
Y4880D01*
Y290D02*
Y420D01*
Y30D02*
Y150D01*
X1800Y4760D02*
Y4890D01*
Y300D02*
Y430D01*
Y40D02*
Y160D01*
X1810Y4760D02*
Y4900D01*
Y2760D02*
Y2830D01*
Y300D02*
Y430D01*
Y40D02*
Y160D01*
X1820Y11550D02*
Y11570D01*
Y11530D02*
Y11540D01*
Y11460D02*
Y11510D01*
Y4780D02*
Y4910D01*
Y2730D02*
Y2850D01*
Y310D02*
Y440D01*
Y50D02*
Y170D01*
X1830Y11250D02*
Y11600D01*
Y4780D02*
Y4920D01*
Y2700D02*
Y2860D01*
Y310D02*
Y450D01*
Y50D02*
Y180D01*
X1840Y11640D02*
Y11670D01*
Y11180D02*
Y11630D01*
Y4790D02*
Y4930D01*
Y2680D02*
Y2860D01*
Y320D02*
Y450D01*
Y60D02*
Y190D01*
X1850Y11760D02*
Y11770D01*
Y11090D02*
Y11730D01*
Y11050D02*
Y11060D01*
Y10780D02*
Y10790D01*
Y4800D02*
Y4940D01*
Y2670D02*
Y2860D01*
Y320D02*
Y460D01*
Y60D02*
Y190D01*
X1860Y11820D02*
Y11860D01*
Y11020D02*
Y11790D01*
Y10980D02*
Y11010D01*
Y10940D02*
Y10960D01*
Y10840D02*
Y10910D01*
Y10650D02*
Y10830D01*
Y10600D02*
Y10620D01*
Y4810D02*
Y4940D01*
Y2650D02*
Y2860D01*
Y330D02*
Y470D01*
Y60D02*
Y190D01*
X1870Y10640D02*
Y11950D01*
Y10550D02*
Y10630D01*
Y10450D02*
Y10460D01*
Y10360D02*
Y10400D01*
Y10250D02*
Y10340D01*
Y10190D02*
Y10230D01*
Y10030D02*
Y10150D01*
Y9940D02*
Y9960D01*
Y9870D02*
Y9880D01*
Y9840D02*
Y9860D01*
Y9800D02*
Y9810D01*
Y9780D02*
Y9790D01*
Y9730D02*
Y9750D01*
Y7340D02*
Y7400D01*
Y4810D02*
Y4950D01*
Y2650D02*
Y2860D01*
Y2620D02*
Y2630D01*
Y330D02*
Y480D01*
Y70D02*
Y200D01*
X1880Y10510D02*
Y11970D01*
Y9680D02*
Y10480D01*
Y9610D02*
Y9620D01*
Y7320D02*
Y7440D01*
Y4820D02*
Y4960D01*
Y2610D02*
Y2850D01*
Y350D02*
Y480D01*
Y70D02*
Y200D01*
X1890Y9560D02*
Y11980D01*
Y9510D02*
Y9550D01*
Y7300D02*
Y7460D01*
Y4830D02*
Y4960D01*
Y2610D02*
Y2850D01*
Y360D02*
Y490D01*
Y80D02*
Y210D01*
X1900Y9490D02*
Y12010D01*
Y9460D02*
Y9470D01*
Y9390D02*
Y9420D01*
Y9330D02*
Y9380D01*
Y9270D02*
Y9320D01*
Y9230D02*
Y9240D01*
Y7280D02*
Y7460D01*
Y4840D02*
Y4970D01*
Y2610D02*
Y2830D01*
Y360D02*
Y490D01*
Y80D02*
Y210D01*
X1910Y9150D02*
Y12030D01*
Y9090D02*
Y9100D01*
Y7290D02*
Y7480D01*
Y4840D02*
Y4980D01*
Y2600D02*
Y2830D01*
Y370D02*
Y500D01*
Y80D02*
Y210D01*
X1920Y9060D02*
Y12040D01*
Y7290D02*
Y7550D01*
Y7260D02*
Y7270D01*
Y4840D02*
Y4990D01*
Y2600D02*
Y2830D01*
Y380D02*
Y500D01*
Y90D02*
Y210D01*
X1930Y9000D02*
Y12040D01*
Y7260D02*
Y7580D01*
Y4860D02*
Y5000D01*
Y2730D02*
Y2830D01*
Y2600D02*
Y2720D01*
Y390D02*
Y510D01*
Y90D02*
Y210D01*
X1940Y8970D02*
Y12050D01*
Y7260D02*
Y7610D01*
Y4860D02*
Y5010D01*
Y2740D02*
Y2810D01*
Y2600D02*
Y2680D01*
Y390D02*
Y510D01*
Y90D02*
Y230D01*
X1950Y11570D02*
Y12050D01*
Y11520D02*
Y11530D01*
Y11480D02*
Y11510D01*
Y11410D02*
Y11420D01*
Y11360D02*
Y11400D01*
Y11290D02*
Y11340D01*
Y8950D02*
Y11280D01*
Y7270D02*
Y7620D01*
Y4870D02*
Y5010D01*
Y2750D02*
Y2760D01*
Y2640D02*
Y2650D01*
Y2590D02*
Y2600D01*
Y400D02*
Y530D01*
Y100D02*
Y240D01*
X1960Y11640D02*
Y12050D01*
Y11610D02*
Y11620D01*
Y11310D02*
Y11320D01*
Y11230D02*
Y11260D01*
Y8910D02*
Y11220D01*
Y7270D02*
Y7640D01*
Y4880D02*
Y5010D01*
Y410D02*
Y540D01*
Y110D02*
Y240D01*
X1970Y11700D02*
Y12040D01*
Y11200D02*
Y11210D01*
Y8870D02*
Y11180D01*
Y7280D02*
Y7680D01*
Y4890D02*
Y5020D01*
Y400D02*
Y550D01*
Y110D02*
Y240D01*
X1980Y11870D02*
Y12030D01*
Y11820D02*
Y11840D01*
Y11710D02*
Y11730D01*
Y10760D02*
Y11130D01*
Y10150D02*
Y10700D01*
Y8820D02*
Y10130D01*
Y7280D02*
Y7710D01*
Y7120D02*
Y7130D01*
Y4900D02*
Y5030D01*
Y410D02*
Y550D01*
Y120D02*
Y250D01*
X1990Y11880D02*
Y12030D01*
Y10890D02*
Y11020D01*
Y10850D02*
Y10880D01*
Y10620D02*
Y10660D01*
Y10350D02*
Y10610D01*
Y10260D02*
Y10340D01*
Y10040D02*
Y10070D01*
Y8810D02*
Y10010D01*
Y7310D02*
Y7770D01*
Y4910D02*
Y5030D01*
Y430D02*
Y560D01*
Y120D02*
Y250D01*
X2000Y11880D02*
Y12030D01*
Y10900D02*
Y10930D01*
Y10370D02*
Y10380D01*
Y9710D02*
Y9740D01*
Y8780D02*
Y9690D01*
Y7510D02*
Y7780D01*
Y7350D02*
Y7490D01*
Y7320D02*
Y7340D01*
Y4920D02*
Y5040D01*
Y430D02*
Y570D01*
Y130D02*
Y260D01*
X2010Y11880D02*
Y12020D01*
Y11850D02*
Y11860D01*
Y9630D02*
Y9640D01*
Y8770D02*
Y9480D01*
Y7530D02*
Y7810D01*
Y7420D02*
Y7440D01*
Y7390D02*
Y7410D01*
Y7350D02*
Y7360D01*
Y4930D02*
Y5050D01*
Y430D02*
Y570D01*
Y130D02*
Y260D01*
X2020Y11870D02*
Y12020D01*
Y11850D02*
Y11860D01*
Y9230D02*
Y9240D01*
Y8760D02*
Y9200D01*
Y7550D02*
Y7840D01*
Y4930D02*
Y5060D01*
Y450D02*
Y580D01*
Y140D02*
Y270D01*
X2030Y11860D02*
Y12020D01*
Y8740D02*
Y9040D01*
Y7580D02*
Y7850D01*
Y4930D02*
Y5070D01*
Y450D02*
Y580D01*
Y140D02*
Y270D01*
X2040Y11860D02*
Y12000D01*
Y8740D02*
Y9010D01*
Y7630D02*
Y7870D01*
Y4940D02*
Y5080D01*
Y460D02*
Y580D01*
Y150D02*
Y280D01*
X2050Y11850D02*
Y11990D01*
Y8720D02*
Y8970D01*
Y7650D02*
Y7890D01*
Y4940D02*
Y5090D01*
Y470D02*
Y590D01*
Y150D02*
Y280D01*
X2060Y11840D02*
Y11970D01*
Y8710D02*
Y8930D01*
Y7670D02*
Y7910D01*
Y4960D02*
Y5100D01*
Y470D02*
Y600D01*
Y160D02*
Y290D01*
X2070Y11840D02*
Y11960D01*
Y8700D02*
Y8910D01*
Y7700D02*
Y7930D01*
Y4960D02*
Y5100D01*
Y480D02*
Y610D01*
Y160D02*
Y290D01*
X2080Y11830D02*
Y11960D01*
Y8700D02*
Y8890D01*
Y7710D02*
Y7950D01*
Y4970D02*
Y5110D01*
Y480D02*
Y610D01*
Y160D02*
Y290D01*
X2090Y11820D02*
Y11940D01*
Y8680D02*
Y8870D01*
Y7750D02*
Y7960D01*
Y7710D02*
Y7720D01*
Y4980D02*
Y5120D01*
Y500D02*
Y620D01*
Y170D02*
Y300D01*
X2100Y11810D02*
Y11930D01*
Y8670D02*
Y8830D01*
Y7770D02*
Y7980D01*
Y4990D02*
Y5130D01*
Y510D02*
Y620D01*
Y170D02*
Y310D01*
X2110Y11810D02*
Y11930D01*
Y8670D02*
Y8820D01*
Y7780D02*
Y7990D01*
Y4990D02*
Y5140D01*
Y510D02*
Y630D01*
Y180D02*
Y320D01*
X2120Y11800D02*
Y11920D01*
Y8670D02*
Y8800D01*
Y7810D02*
Y8000D01*
Y7780D02*
Y7790D01*
Y5000D02*
Y5140D01*
Y510D02*
Y640D01*
Y180D02*
Y320D01*
X2130Y11790D02*
Y11920D01*
Y8660D02*
Y8790D01*
Y7820D02*
Y8010D01*
Y5010D02*
Y5150D01*
Y510D02*
Y650D01*
Y190D02*
Y320D01*
X2140Y11790D02*
Y11910D01*
Y8660D02*
Y8780D01*
Y7840D02*
Y8020D01*
Y5020D02*
Y5150D01*
Y520D02*
Y650D01*
Y190D02*
Y320D01*
X2150Y11780D02*
Y11900D01*
Y8660D02*
Y8770D01*
Y7850D02*
Y8030D01*
Y5030D02*
Y5170D01*
Y530D02*
Y660D01*
Y190D02*
Y330D01*
X2160Y11780D02*
Y11890D01*
Y8660D02*
Y8760D01*
Y7850D02*
Y8040D01*
Y5040D02*
Y5180D01*
Y550D02*
Y670D01*
Y200D02*
Y330D01*
X2170Y11760D02*
Y11890D01*
Y8650D02*
Y8750D01*
Y7890D02*
Y8050D01*
Y5040D02*
Y5190D01*
Y560D02*
Y670D01*
Y210D02*
Y340D01*
X2180Y11760D02*
Y11880D01*
Y8650D02*
Y8740D01*
Y7900D02*
Y8050D01*
Y5060D02*
Y5200D01*
Y560D02*
Y670D01*
Y210D02*
Y340D01*
X2190Y11750D02*
Y11870D01*
Y8650D02*
Y8730D01*
Y7920D02*
Y8060D01*
Y5060D02*
Y5200D01*
Y560D02*
Y690D01*
Y220D02*
Y350D01*
X2200Y11740D02*
Y11870D01*
Y10310D02*
Y10320D01*
Y8650D02*
Y8730D01*
Y7930D02*
Y8060D01*
Y5070D02*
Y5210D01*
Y570D02*
Y700D01*
Y220D02*
Y350D01*
X2210Y11730D02*
Y11850D01*
Y10290D02*
Y10330D01*
Y8650D02*
Y8720D01*
Y7940D02*
Y8070D01*
Y5080D02*
Y5220D01*
Y580D02*
Y710D01*
Y230D02*
Y350D01*
X2220Y11730D02*
Y11850D01*
Y10270D02*
Y10330D01*
Y8640D02*
Y8720D01*
Y7950D02*
Y8070D01*
Y5090D02*
Y5220D01*
Y590D02*
Y720D01*
Y230D02*
Y350D01*
X2230Y11720D02*
Y11840D01*
Y10250D02*
Y10330D01*
Y8650D02*
Y8720D01*
Y7950D02*
Y8070D01*
Y5090D02*
Y5230D01*
Y600D02*
Y730D01*
Y230D02*
Y350D01*
X2240Y11720D02*
Y11830D01*
Y10250D02*
Y10350D01*
Y8670D02*
Y8710D01*
Y7960D02*
Y8080D01*
Y5100D02*
Y5230D01*
Y600D02*
Y730D01*
Y240D02*
Y350D01*
X2250Y11710D02*
Y11830D01*
Y10240D02*
Y10350D01*
Y8670D02*
Y8710D01*
Y7960D02*
Y8080D01*
Y5100D02*
Y5240D01*
Y600D02*
Y740D01*
Y240D02*
Y360D01*
X2260Y11700D02*
Y11830D01*
Y10250D02*
Y10340D01*
Y7970D02*
Y8080D01*
Y5110D02*
Y5250D01*
Y610D02*
Y740D01*
Y240D02*
Y370D01*
X2270Y11700D02*
Y11810D01*
Y10250D02*
Y10330D01*
Y7970D02*
Y8080D01*
Y5120D02*
Y5260D01*
Y620D02*
Y750D01*
Y250D02*
Y380D01*
X2280Y11700D02*
Y11800D01*
Y10250D02*
Y10350D01*
Y7970D02*
Y8080D01*
Y5130D02*
Y5270D01*
Y630D02*
Y760D01*
Y260D02*
Y390D01*
X2290Y11690D02*
Y11790D01*
Y10250D02*
Y10360D01*
Y7980D02*
Y8080D01*
Y5130D02*
Y5270D01*
Y630D02*
Y770D01*
Y270D02*
Y400D01*
X2300Y11690D02*
Y11790D01*
Y10250D02*
Y10360D01*
Y7980D02*
Y8080D01*
Y5140D02*
Y5280D01*
Y640D02*
Y770D01*
Y270D02*
Y410D01*
X2310Y11680D02*
Y11780D01*
Y10260D02*
Y10360D01*
Y7970D02*
Y8080D01*
Y5150D02*
Y5290D01*
Y650D02*
Y780D01*
Y280D02*
Y410D01*
X2320Y11670D02*
Y11780D01*
Y10260D02*
Y10360D01*
Y7970D02*
Y8080D01*
Y5150D02*
Y5290D01*
Y650D02*
Y790D01*
Y280D02*
Y410D01*
X2330Y11670D02*
Y11770D01*
Y10260D02*
Y10360D01*
Y7960D02*
Y8080D01*
Y5160D02*
Y5300D01*
Y660D02*
Y800D01*
Y280D02*
Y410D01*
X2340Y11670D02*
Y11760D01*
Y10260D02*
Y10360D01*
Y7950D02*
Y8080D01*
Y5170D02*
Y5300D01*
Y680D02*
Y800D01*
Y290D02*
Y420D01*
X2350Y11650D02*
Y11760D01*
Y10260D02*
Y10370D01*
Y7950D02*
Y8080D01*
Y5170D02*
Y5300D01*
Y690D02*
Y810D01*
Y300D02*
Y430D01*
X2360Y11640D02*
Y11750D01*
Y10260D02*
Y10370D01*
Y7950D02*
Y8070D01*
Y5180D02*
Y5310D01*
Y700D02*
Y820D01*
Y300D02*
Y430D01*
X2370Y11630D02*
Y11740D01*
Y10260D02*
Y10370D01*
Y7940D02*
Y8070D01*
Y5190D02*
Y5330D01*
Y700D02*
Y820D01*
Y300D02*
Y440D01*
X2380Y11620D02*
Y11730D01*
Y10260D02*
Y10380D01*
Y7940D02*
Y8070D01*
Y5200D02*
Y5340D01*
Y700D02*
Y830D01*
Y310D02*
Y440D01*
X2390Y11620D02*
Y11730D01*
Y10260D02*
Y10380D01*
Y7940D02*
Y8070D01*
Y5200D02*
Y5340D01*
Y710D02*
Y830D01*
Y310D02*
Y440D01*
X2400Y11620D02*
Y11730D01*
Y10260D02*
Y10380D01*
Y7930D02*
Y8060D01*
Y5210D02*
Y5340D01*
Y980D02*
Y990D01*
Y720D02*
Y840D01*
Y310D02*
Y450D01*
X2410Y11610D02*
Y11720D01*
Y10260D02*
Y10380D01*
Y7910D02*
Y8050D01*
Y5220D02*
Y5350D01*
Y980D02*
Y1020D01*
Y720D02*
Y840D01*
Y320D02*
Y450D01*
X2420Y11600D02*
Y11710D01*
Y10260D02*
Y10380D01*
Y7910D02*
Y8050D01*
Y5230D02*
Y5360D01*
Y1140D02*
Y1170D01*
Y1000D02*
Y1060D01*
Y720D02*
Y860D01*
Y340D02*
Y460D01*
X2430Y11600D02*
Y11710D01*
Y10260D02*
Y10380D01*
Y7900D02*
Y8040D01*
Y5230D02*
Y5370D01*
Y1140D02*
Y1180D01*
Y1110D02*
Y1120D01*
Y1050D02*
Y1060D01*
Y1010D02*
Y1030D01*
Y730D02*
Y860D01*
Y340D02*
Y470D01*
X2440Y11590D02*
Y11700D01*
Y10270D02*
Y10380D01*
Y7890D02*
Y8040D01*
Y5240D02*
Y5380D01*
Y1140D02*
Y1180D01*
Y1110D02*
Y1120D01*
Y1000D02*
Y1020D01*
Y740D02*
Y860D01*
Y340D02*
Y470D01*
X2450Y11580D02*
Y11690D01*
Y10260D02*
Y10380D01*
Y7880D02*
Y8020D01*
Y5240D02*
Y5390D01*
Y1130D02*
Y1180D01*
Y1100D02*
Y1120D01*
Y1010D02*
Y1030D01*
Y930D02*
Y950D01*
Y750D02*
Y870D01*
Y340D02*
Y470D01*
X2460Y11580D02*
Y11690D01*
Y10260D02*
Y10380D01*
Y7870D02*
Y8020D01*
Y5250D02*
Y5400D01*
Y1040D02*
Y1180D01*
Y1010D02*
Y1030D01*
Y930D02*
Y970D01*
Y750D02*
Y890D01*
Y340D02*
Y480D01*
X2470Y11590D02*
Y11680D01*
Y10270D02*
Y10390D01*
Y7850D02*
Y8010D01*
Y5260D02*
Y5400D01*
Y1050D02*
Y1190D01*
Y940D02*
Y970D01*
Y760D02*
Y890D01*
Y350D02*
Y480D01*
X2480Y11580D02*
Y11670D01*
Y10270D02*
Y10390D01*
Y7840D02*
Y8000D01*
Y5270D02*
Y5410D01*
Y1070D02*
Y1200D01*
Y1050D02*
Y1060D01*
Y770D02*
Y900D01*
Y350D02*
Y480D01*
X2490Y11570D02*
Y11650D01*
Y10270D02*
Y10380D01*
Y7830D02*
Y7990D01*
Y5280D02*
Y5420D01*
Y1070D02*
Y1230D01*
Y780D02*
Y900D01*
Y360D02*
Y490D01*
X2500Y11630D02*
Y11650D01*
Y11550D02*
Y11620D01*
Y10260D02*
Y10380D01*
Y7800D02*
Y7980D01*
Y5280D02*
Y5420D01*
Y1070D02*
Y1250D01*
Y780D02*
Y910D01*
Y360D02*
Y500D01*
X2510Y11630D02*
Y11650D01*
Y11540D02*
Y11620D01*
Y10260D02*
Y10380D01*
Y7800D02*
Y7970D01*
Y5290D02*
Y5430D01*
Y1090D02*
Y1250D01*
Y790D02*
Y920D01*
Y370D02*
Y500D01*
X2520Y11630D02*
Y11650D01*
Y11540D02*
Y11620D01*
Y10270D02*
Y10380D01*
Y7780D02*
Y7950D01*
Y5300D02*
Y5430D01*
Y1100D02*
Y1270D01*
Y800D02*
Y920D01*
Y370D02*
Y510D01*
X2530Y11550D02*
Y11630D01*
Y10270D02*
Y10380D01*
Y7760D02*
Y7940D01*
Y5300D02*
Y5430D01*
Y1110D02*
Y1290D01*
Y800D02*
Y930D01*
Y370D02*
Y510D01*
X2540Y11550D02*
Y11620D01*
Y10270D02*
Y10380D01*
Y7760D02*
Y7930D01*
Y5320D02*
Y5450D01*
Y1120D02*
Y1300D01*
Y820D02*
Y930D01*
Y380D02*
Y510D01*
X2550Y11550D02*
Y11620D01*
Y10270D02*
Y10380D01*
Y7750D02*
Y7930D01*
Y5320D02*
Y5460D01*
Y1130D02*
Y1310D01*
Y820D02*
Y940D01*
Y380D02*
Y520D01*
X2560Y11570D02*
Y11620D01*
Y11520D02*
Y11550D01*
Y10270D02*
Y10370D01*
Y7710D02*
Y7920D01*
Y5330D02*
Y5460D01*
Y1140D02*
Y1330D01*
Y830D02*
Y950D01*
Y390D02*
Y520D01*
X2570Y11520D02*
Y11620D01*
Y10270D02*
Y10370D01*
Y7700D02*
Y7900D01*
Y5340D02*
Y5470D01*
Y1150D02*
Y1340D01*
Y840D02*
Y950D01*
Y400D02*
Y520D01*
X2580Y11520D02*
Y11600D01*
Y10270D02*
Y10380D01*
Y7670D02*
Y7890D01*
Y5340D02*
Y5480D01*
Y1160D02*
Y1350D01*
Y840D02*
Y960D01*
Y400D02*
Y530D01*
X2590Y11510D02*
Y11590D01*
Y10270D02*
Y10380D01*
Y7650D02*
Y7870D01*
Y5350D02*
Y5480D01*
Y1160D02*
Y1360D01*
Y840D02*
Y980D01*
Y410D02*
Y530D01*
X2600Y11510D02*
Y11590D01*
Y10270D02*
Y10380D01*
Y7620D02*
Y7850D01*
Y5350D02*
Y5480D01*
Y1170D02*
Y1370D01*
Y850D02*
Y980D01*
Y410D02*
Y540D01*
X2610Y11510D02*
Y11590D01*
Y10270D02*
Y10380D01*
Y7590D02*
Y7830D01*
Y5360D02*
Y5490D01*
Y1210D02*
Y1370D01*
Y1190D02*
Y1200D01*
Y860D02*
Y990D01*
Y420D02*
Y550D01*
X2620Y11490D02*
Y11580D01*
Y10270D02*
Y10380D01*
Y7560D02*
Y7820D01*
Y5380D02*
Y5500D01*
Y1220D02*
Y1390D01*
Y860D02*
Y1000D01*
Y420D02*
Y560D01*
X2630Y11480D02*
Y11560D01*
Y10270D02*
Y10370D01*
Y7550D02*
Y7810D01*
Y5380D02*
Y5510D01*
Y1230D02*
Y1390D01*
Y1210D02*
Y1220D01*
Y870D02*
Y1010D01*
Y430D02*
Y560D01*
X2640Y11480D02*
Y11560D01*
Y10280D02*
Y10380D01*
Y7540D02*
Y7780D01*
Y5380D02*
Y5510D01*
Y1220D02*
Y1400D01*
Y880D02*
Y1010D01*
Y430D02*
Y560D01*
X2650Y11470D02*
Y11550D01*
Y10280D02*
Y10380D01*
Y7490D02*
Y7770D01*
Y5390D02*
Y5520D01*
Y1250D02*
Y1400D01*
Y890D02*
Y1020D01*
Y440D02*
Y570D01*
X2660Y11460D02*
Y11550D01*
Y10280D02*
Y10380D01*
Y7480D02*
Y7750D01*
Y5390D02*
Y5530D01*
Y1270D02*
Y1410D01*
Y920D02*
Y1020D01*
Y450D02*
Y570D01*
X2670Y11440D02*
Y11540D01*
Y10280D02*
Y10380D01*
Y7450D02*
Y7730D01*
Y5390D02*
Y5530D01*
Y1280D02*
Y1420D01*
Y920D02*
Y1030D01*
Y450D02*
Y580D01*
X2680Y11440D02*
Y11540D01*
Y10280D02*
Y10390D01*
Y7420D02*
Y7710D01*
Y5400D02*
Y5540D01*
Y1290D02*
Y1430D01*
Y920D02*
Y1040D01*
Y450D02*
Y580D01*
X2690Y11430D02*
Y11500D01*
Y10270D02*
Y10390D01*
Y7390D02*
Y7690D01*
Y5400D02*
Y5550D01*
Y1310D02*
Y1440D01*
Y930D02*
Y1050D01*
Y460D02*
Y580D01*
X2700Y11410D02*
Y11500D01*
Y10280D02*
Y10390D01*
Y7350D02*
Y7660D01*
Y5410D02*
Y5550D01*
Y1320D02*
Y1450D01*
Y930D02*
Y1050D01*
Y460D02*
Y580D01*
X2710Y11450D02*
Y11490D01*
Y11410D02*
Y11430D01*
Y10280D02*
Y10390D01*
Y7340D02*
Y7620D01*
Y5420D02*
Y5550D01*
Y1330D02*
Y1460D01*
Y940D02*
Y1060D01*
Y460D02*
Y590D01*
X2720Y11460D02*
Y11500D01*
Y11420D02*
Y11430D01*
Y10290D02*
Y10390D01*
Y7340D02*
Y7620D01*
Y5430D02*
Y5560D01*
Y1340D02*
Y1460D01*
Y950D02*
Y1060D01*
Y470D02*
Y600D01*
X2730Y11450D02*
Y11490D01*
Y10290D02*
Y10390D01*
Y7320D02*
Y7590D01*
Y5430D02*
Y5560D01*
Y1350D02*
Y1470D01*
Y950D02*
Y1080D01*
Y470D02*
Y600D01*
X2740Y11440D02*
Y11490D01*
Y10290D02*
Y10390D01*
Y7300D02*
Y7570D01*
Y5440D02*
Y5560D01*
Y1360D02*
Y1480D01*
Y960D02*
Y1080D01*
Y480D02*
Y610D01*
X2750Y11440D02*
Y11490D01*
Y10290D02*
Y10390D01*
Y7270D02*
Y7530D01*
Y5440D02*
Y5580D01*
Y1370D02*
Y1490D01*
Y970D02*
Y1090D01*
Y480D02*
Y610D01*
X2760Y11440D02*
Y11480D01*
Y11390D02*
Y11400D01*
Y10280D02*
Y10390D01*
Y7250D02*
Y7520D01*
Y5450D02*
Y5580D01*
Y1380D02*
Y1490D01*
Y980D02*
Y1090D01*
Y490D02*
Y620D01*
X2770Y11440D02*
Y11470D01*
Y11380D02*
Y11420D01*
Y10280D02*
Y10390D01*
Y7230D02*
Y7490D01*
Y5450D02*
Y5590D01*
Y1380D02*
Y1500D01*
Y990D02*
Y1100D01*
Y490D02*
Y620D01*
X2780Y11440D02*
Y11450D01*
Y11370D02*
Y11430D01*
Y10290D02*
Y10390D01*
Y7230D02*
Y7450D01*
Y5460D02*
Y5590D01*
Y1390D02*
Y1510D01*
Y990D02*
Y1110D01*
Y490D02*
Y630D01*
X2790Y11370D02*
Y11430D01*
Y10290D02*
Y10390D01*
Y7200D02*
Y7430D01*
Y5460D02*
Y5590D01*
Y1390D02*
Y1520D01*
Y990D02*
Y1110D01*
Y500D02*
Y630D01*
X2800Y11360D02*
Y11430D01*
Y10290D02*
Y10400D01*
Y7190D02*
Y7410D01*
Y5480D02*
Y5600D01*
Y1400D02*
Y1530D01*
Y1010D02*
Y1120D01*
Y500D02*
Y640D01*
X2810Y11350D02*
Y11430D01*
Y10290D02*
Y10390D01*
Y7160D02*
Y7400D01*
Y5490D02*
Y5600D01*
Y1400D02*
Y1540D01*
Y1010D02*
Y1130D01*
Y510D02*
Y640D01*
X2820Y11340D02*
Y11430D01*
Y10290D02*
Y10390D01*
Y7130D02*
Y7380D01*
Y5490D02*
Y5610D01*
Y1410D02*
Y1550D01*
Y1020D02*
Y1140D01*
Y510D02*
Y640D01*
X2830Y11340D02*
Y11430D01*
Y10290D02*
Y10390D01*
Y7120D02*
Y7350D01*
Y5500D02*
Y5610D01*
Y1410D02*
Y1560D01*
Y1030D02*
Y1150D01*
Y520D02*
Y650D01*
X2840Y11320D02*
Y11430D01*
Y10290D02*
Y10400D01*
Y7110D02*
Y7340D01*
Y5500D02*
Y5620D01*
Y1420D02*
Y1570D01*
Y1030D02*
Y1160D01*
Y530D02*
Y650D01*
X2850Y11400D02*
Y11420D01*
Y11320D02*
Y11390D01*
Y10290D02*
Y10410D01*
Y7100D02*
Y7320D01*
Y5500D02*
Y5630D01*
Y1440D02*
Y1570D01*
Y1040D02*
Y1160D01*
Y530D02*
Y660D01*
X2860Y11320D02*
Y11390D01*
Y10290D02*
Y10410D01*
Y7090D02*
Y7300D01*
Y5500D02*
Y5630D01*
Y1440D02*
Y1580D01*
Y1040D02*
Y1170D01*
Y530D02*
Y660D01*
X2870Y11320D02*
Y11390D01*
Y10290D02*
Y10410D01*
Y7060D02*
Y7260D01*
Y5510D02*
Y5630D01*
Y1450D02*
Y1590D01*
Y1050D02*
Y1170D01*
Y540D02*
Y660D01*
X2880Y11330D02*
Y11380D01*
Y10290D02*
Y10410D01*
Y7040D02*
Y7250D01*
Y5510D02*
Y5640D01*
Y1440D02*
Y1600D01*
Y1060D02*
Y1170D01*
Y540D02*
Y660D01*
X2890Y11330D02*
Y11380D01*
Y11310D02*
Y11320D01*
Y10290D02*
Y10410D01*
Y7030D02*
Y7240D01*
Y5510D02*
Y5640D01*
Y1440D02*
Y1610D01*
Y1060D02*
Y1190D01*
Y550D02*
Y670D01*
X2900Y11330D02*
Y11380D01*
Y11300D02*
Y11320D01*
Y10290D02*
Y10410D01*
Y7020D02*
Y7220D01*
Y5520D02*
Y5640D01*
Y1450D02*
Y1610D01*
Y1060D02*
Y1200D01*
Y550D02*
Y680D01*
X2910Y11300D02*
Y11380D01*
Y10290D02*
Y10410D01*
Y7010D02*
Y7200D01*
Y5520D02*
Y5650D01*
Y1450D02*
Y1620D01*
Y1070D02*
Y1210D01*
Y560D02*
Y680D01*
X2920Y11290D02*
Y11370D01*
Y10290D02*
Y10400D01*
Y7000D02*
Y7180D01*
Y5530D02*
Y5650D01*
Y1460D02*
Y1630D01*
Y1080D02*
Y1210D01*
Y560D02*
Y690D01*
X2930Y11350D02*
Y11360D01*
Y11290D02*
Y11330D01*
Y10300D02*
Y10400D01*
Y6990D02*
Y7160D01*
Y5540D02*
Y5650D01*
Y1470D02*
Y1640D01*
Y1080D02*
Y1210D01*
Y560D02*
Y690D01*
X2940Y11260D02*
Y11340D01*
Y10290D02*
Y10400D01*
Y6980D02*
Y7150D01*
Y5530D02*
Y5660D01*
Y1500D02*
Y1650D01*
Y1090D02*
Y1220D01*
Y570D02*
Y690D01*
X2950Y11300D02*
Y11340D01*
Y11260D02*
Y11290D01*
Y10300D02*
Y10400D01*
Y6970D02*
Y7130D01*
Y5540D02*
Y5670D01*
Y1520D02*
Y1650D01*
Y1490D02*
Y1500D01*
Y1100D02*
Y1240D01*
Y570D02*
Y700D01*
X2960Y11310D02*
Y11330D01*
Y11260D02*
Y11280D01*
Y10300D02*
Y10390D01*
Y6960D02*
Y7120D01*
Y5550D02*
Y5670D01*
Y1520D02*
Y1660D01*
Y1500D02*
Y1510D01*
Y1110D02*
Y1240D01*
Y580D02*
Y700D01*
X2970Y11310D02*
Y11330D01*
Y11250D02*
Y11290D01*
Y10310D02*
Y10390D01*
Y6950D02*
Y7120D01*
Y5550D02*
Y5680D01*
Y1530D02*
Y1660D01*
Y1120D02*
Y1250D01*
Y580D02*
Y710D01*
X2980Y11310D02*
Y11320D01*
Y11250D02*
Y11300D01*
Y10310D02*
Y10410D01*
Y6940D02*
Y7100D01*
Y5550D02*
Y5680D01*
Y1540D02*
Y1680D01*
Y1130D02*
Y1250D01*
Y580D02*
Y710D01*
X2990Y11240D02*
Y11310D01*
Y10300D02*
Y10410D01*
Y6930D02*
Y7090D01*
Y5560D02*
Y5690D01*
Y1550D02*
Y1690D01*
Y1130D02*
Y1260D01*
Y590D02*
Y720D01*
X3000Y11240D02*
Y11310D01*
Y10300D02*
Y10410D01*
Y6920D02*
Y7080D01*
Y5570D02*
Y5690D01*
Y1550D02*
Y1700D01*
Y1140D02*
Y1270D01*
Y590D02*
Y720D01*
X3010Y11240D02*
Y11310D01*
Y10310D02*
Y10410D01*
Y6920D02*
Y7070D01*
Y5570D02*
Y5690D01*
Y1560D02*
Y1710D01*
Y1150D02*
Y1280D01*
Y600D02*
Y730D01*
X3020Y11220D02*
Y11300D01*
Y10310D02*
Y10410D01*
Y6910D02*
Y7060D01*
Y5570D02*
Y5700D01*
Y1570D02*
Y1710D01*
Y1160D02*
Y1280D01*
Y600D02*
Y730D01*
X3030Y11210D02*
Y11300D01*
Y10310D02*
Y10410D01*
Y6910D02*
Y7050D01*
Y5580D02*
Y5700D01*
Y1580D02*
Y1720D01*
Y1170D02*
Y1290D01*
Y610D02*
Y730D01*
X3040Y11250D02*
Y11290D01*
Y11210D02*
Y11240D01*
Y10310D02*
Y10410D01*
Y6910D02*
Y7050D01*
Y5590D02*
Y5710D01*
Y1590D02*
Y1720D01*
Y1170D02*
Y1300D01*
Y610D02*
Y730D01*
X3050Y11190D02*
Y11290D01*
Y10310D02*
Y10420D01*
Y6910D02*
Y7040D01*
Y5590D02*
Y5710D01*
Y1600D02*
Y1730D01*
Y1170D02*
Y1310D01*
Y610D02*
Y740D01*
X3060Y11190D02*
Y11280D01*
Y10320D02*
Y10430D01*
Y6900D02*
Y7030D01*
Y6250D02*
Y6270D01*
Y5590D02*
Y5720D01*
Y1600D02*
Y1730D01*
Y1180D02*
Y1320D01*
Y610D02*
Y740D01*
X3070Y11190D02*
Y11270D01*
Y10320D02*
Y10430D01*
Y6900D02*
Y7030D01*
Y6180D02*
Y6290D01*
Y6140D02*
Y6170D01*
Y5600D02*
Y5720D01*
Y1610D02*
Y1730D01*
Y1180D02*
Y1320D01*
Y620D02*
Y740D01*
X3080Y11190D02*
Y11260D01*
Y10320D02*
Y10420D01*
Y6900D02*
Y7020D01*
Y6140D02*
Y6300D01*
Y5600D02*
Y5730D01*
Y1610D02*
Y1740D01*
Y1190D02*
Y1330D01*
Y620D02*
Y750D01*
X3090Y11170D02*
Y11260D01*
Y10320D02*
Y10420D01*
Y6900D02*
Y7020D01*
Y6150D02*
Y6320D01*
Y5620D02*
Y5740D01*
Y1620D02*
Y1750D01*
Y1200D02*
Y1340D01*
Y630D02*
Y760D01*
X3100Y11160D02*
Y11250D01*
Y10320D02*
Y10430D01*
Y6900D02*
Y7020D01*
Y6200D02*
Y6360D01*
Y5620D02*
Y5740D01*
Y1630D02*
Y1760D01*
Y1200D02*
Y1340D01*
Y630D02*
Y770D01*
X3110Y11150D02*
Y11240D01*
Y10320D02*
Y10430D01*
Y6910D02*
Y7030D01*
Y6330D02*
Y6360D01*
Y6200D02*
Y6320D01*
Y5620D02*
Y5750D01*
Y1640D02*
Y1770D01*
Y1210D02*
Y1350D01*
Y630D02*
Y770D01*
X3120Y11150D02*
Y11230D01*
Y10330D02*
Y10430D01*
Y6910D02*
Y7030D01*
Y6380D02*
Y6390D01*
Y6340D02*
Y6360D01*
Y6290D02*
Y6320D01*
Y6270D02*
Y6280D01*
Y6210D02*
Y6260D01*
Y5630D02*
Y5760D01*
Y1650D02*
Y1790D01*
Y1230D02*
Y1360D01*
Y640D02*
Y780D01*
X3130Y11140D02*
Y11230D01*
Y10330D02*
Y10430D01*
Y6910D02*
Y7040D01*
Y6340D02*
Y6400D01*
Y6250D02*
Y6260D01*
Y5630D02*
Y5770D01*
Y1650D02*
Y1790D01*
Y1240D02*
Y1360D01*
Y640D02*
Y780D01*
X3140Y11190D02*
Y11230D01*
Y11160D02*
Y11180D01*
Y10330D02*
Y10430D01*
Y6910D02*
Y7050D01*
Y6350D02*
Y6410D01*
Y6330D02*
Y6340D01*
Y6270D02*
Y6280D01*
Y6250D02*
Y6260D01*
Y5640D02*
Y5770D01*
Y1660D02*
Y1790D01*
Y1240D02*
Y1380D01*
Y650D02*
Y780D01*
X3150Y11200D02*
Y11220D01*
Y11140D02*
Y11190D01*
Y10330D02*
Y10440D01*
Y6910D02*
Y7050D01*
Y6330D02*
Y6450D01*
Y6310D02*
Y6320D01*
Y6270D02*
Y6280D01*
Y5640D02*
Y5770D01*
Y1670D02*
Y1790D01*
Y1240D02*
Y1390D01*
Y650D02*
Y780D01*
X3160Y11130D02*
Y11190D01*
Y10330D02*
Y10440D01*
Y6920D02*
Y7050D01*
Y6330D02*
Y6460D01*
Y6310D02*
Y6320D01*
Y5650D02*
Y5780D01*
Y1670D02*
Y1800D01*
Y1250D02*
Y1390D01*
Y650D02*
Y780D01*
X3170Y11110D02*
Y11190D01*
Y10330D02*
Y10450D01*
Y6920D02*
Y7050D01*
Y6480D02*
Y6490D01*
Y6320D02*
Y6470D01*
Y5650D02*
Y5780D01*
Y1670D02*
Y1800D01*
Y1260D02*
Y1400D01*
Y660D02*
Y790D01*
X3180Y11100D02*
Y11190D01*
Y10330D02*
Y10450D01*
Y6920D02*
Y7060D01*
Y6350D02*
Y6490D01*
Y5660D02*
Y5780D01*
Y1680D02*
Y1800D01*
Y1270D02*
Y1400D01*
Y670D02*
Y790D01*
X3190Y11090D02*
Y11190D01*
Y10330D02*
Y10450D01*
Y6930D02*
Y7060D01*
Y6360D02*
Y6510D01*
Y5660D02*
Y5780D01*
Y1680D02*
Y1810D01*
Y1270D02*
Y1410D01*
Y680D02*
Y790D01*
X3200Y11090D02*
Y11190D01*
Y10330D02*
Y10440D01*
Y6940D02*
Y7070D01*
Y6370D02*
Y6530D01*
Y5660D02*
Y5790D01*
Y1690D02*
Y1810D01*
Y1280D02*
Y1420D01*
Y680D02*
Y790D01*
X3210Y11100D02*
Y11180D01*
Y10330D02*
Y10450D01*
Y6950D02*
Y7080D01*
Y6370D02*
Y6540D01*
Y5660D02*
Y5790D01*
Y1690D02*
Y1810D01*
Y1290D02*
Y1420D01*
Y680D02*
Y800D01*
X3220Y11100D02*
Y11180D01*
Y10330D02*
Y10450D01*
Y6950D02*
Y7100D01*
Y6380D02*
Y6550D01*
Y5670D02*
Y5790D01*
Y1690D02*
Y1820D01*
Y1300D02*
Y1430D01*
Y680D02*
Y810D01*
X3230Y11110D02*
Y11160D01*
Y11080D02*
Y11090D01*
Y10340D02*
Y10440D01*
Y6960D02*
Y7110D01*
Y6390D02*
Y6550D01*
Y5680D02*
Y5800D01*
Y1700D02*
Y1820D01*
Y1300D02*
Y1430D01*
Y690D02*
Y810D01*
X3240Y11070D02*
Y11150D01*
Y10330D02*
Y10450D01*
Y6970D02*
Y7110D01*
Y6410D02*
Y6570D01*
Y5680D02*
Y5810D01*
Y1700D02*
Y1840D01*
Y1310D02*
Y1430D01*
Y690D02*
Y810D01*
X3250Y11060D02*
Y11150D01*
Y10330D02*
Y10450D01*
Y6970D02*
Y7120D01*
Y6420D02*
Y6600D01*
Y5690D02*
Y5810D01*
Y2840D02*
Y2860D01*
Y2750D02*
Y2810D01*
Y2720D02*
Y2740D01*
Y1710D02*
Y1840D01*
Y1320D02*
Y1440D01*
Y690D02*
Y820D01*
X3260Y11050D02*
Y11150D01*
Y10340D02*
Y10450D01*
Y6980D02*
Y7130D01*
Y6440D02*
Y6610D01*
Y5700D02*
Y5820D01*
Y2630D02*
Y2910D01*
Y1710D02*
Y1850D01*
Y1330D02*
Y1460D01*
Y700D02*
Y830D01*
X3270Y11040D02*
Y11140D01*
Y10340D02*
Y10440D01*
Y6990D02*
Y7150D01*
Y6450D02*
Y6620D01*
Y5700D02*
Y5820D01*
Y2620D02*
Y2990D01*
Y1730D02*
Y1860D01*
Y1350D02*
Y1470D01*
Y700D02*
Y830D01*
X3280Y11030D02*
Y11130D01*
Y10340D02*
Y10450D01*
Y7000D02*
Y7170D01*
Y6460D02*
Y6630D01*
Y5710D02*
Y5830D01*
Y3030D02*
Y3060D01*
Y2610D02*
Y3000D01*
Y1730D02*
Y1860D01*
Y1360D02*
Y1470D01*
Y700D02*
Y830D01*
X3290Y11020D02*
Y11110D01*
Y10340D02*
Y10450D01*
Y7000D02*
Y7180D01*
Y6470D02*
Y6650D01*
Y5710D02*
Y5840D01*
Y2600D02*
Y3110D01*
Y1740D02*
Y1870D01*
Y1360D02*
Y1490D01*
Y710D02*
Y840D01*
X3300Y11020D02*
Y11100D01*
Y10340D02*
Y10450D01*
Y7010D02*
Y7190D01*
Y6490D02*
Y6670D01*
Y5710D02*
Y5840D01*
Y2600D02*
Y3130D01*
Y1750D02*
Y1870D01*
Y1370D02*
Y1490D01*
Y710D02*
Y850D01*
X3310Y11020D02*
Y11100D01*
Y10340D02*
Y10450D01*
Y7030D02*
Y7200D01*
Y6500D02*
Y6680D01*
Y5720D02*
Y5850D01*
Y2600D02*
Y3190D01*
Y1750D02*
Y1870D01*
Y1380D02*
Y1500D01*
Y720D02*
Y850D01*
X3320Y11010D02*
Y11090D01*
Y10340D02*
Y10450D01*
Y7040D02*
Y7200D01*
Y6510D02*
Y6680D01*
Y5720D02*
Y5850D01*
Y3240D02*
Y3270D01*
Y2600D02*
Y3230D01*
Y1750D02*
Y1880D01*
Y1390D02*
Y1510D01*
Y720D02*
Y850D01*
X3330Y11010D02*
Y11090D01*
Y10350D02*
Y10450D01*
Y7050D02*
Y7220D01*
Y6520D02*
Y6700D01*
Y5730D02*
Y5850D01*
Y2600D02*
Y3330D01*
Y1750D02*
Y1880D01*
Y1390D02*
Y1510D01*
Y720D02*
Y850D01*
X3340Y10990D02*
Y11090D01*
Y10350D02*
Y10450D01*
Y7060D02*
Y7230D01*
Y6530D02*
Y6710D01*
Y5730D02*
Y5850D01*
Y2600D02*
Y3400D01*
Y1750D02*
Y1880D01*
Y1390D02*
Y1510D01*
Y720D02*
Y860D01*
X3350Y11070D02*
Y11090D01*
Y10980D02*
Y11060D01*
Y10350D02*
Y10450D01*
Y7070D02*
Y7240D01*
Y6550D02*
Y6710D01*
Y5740D02*
Y5860D01*
Y2620D02*
Y3460D01*
Y1760D02*
Y1880D01*
Y1400D02*
Y1520D01*
Y730D02*
Y860D01*
X3360Y10970D02*
Y11060D01*
Y10350D02*
Y10450D01*
Y7080D02*
Y7250D01*
Y6560D02*
Y6710D01*
Y5740D02*
Y5860D01*
Y2770D02*
Y3510D01*
Y2740D02*
Y2760D01*
Y2620D02*
Y2720D01*
Y1760D02*
Y1880D01*
Y1410D02*
Y1530D01*
Y730D02*
Y860D01*
X3370Y10960D02*
Y11060D01*
Y10350D02*
Y10460D01*
Y7090D02*
Y7270D01*
Y6570D02*
Y6720D01*
Y5740D02*
Y5860D01*
Y2860D02*
Y3560D01*
Y2640D02*
Y2660D01*
Y1760D02*
Y1890D01*
Y1420D02*
Y1540D01*
Y730D02*
Y860D01*
X3380Y10960D02*
Y11060D01*
Y10340D02*
Y10460D01*
Y7100D02*
Y7270D01*
Y6580D02*
Y6730D01*
Y5740D02*
Y5860D01*
Y2890D02*
Y3590D01*
Y1770D02*
Y1890D01*
Y1420D02*
Y1550D01*
Y740D02*
Y860D01*
X3390Y10950D02*
Y11060D01*
Y10340D02*
Y10460D01*
Y7110D02*
Y7280D01*
Y6590D02*
Y6740D01*
Y5740D02*
Y5860D01*
Y3720D02*
Y3730D01*
Y3690D02*
Y3710D01*
Y3640D02*
Y3670D01*
Y3010D02*
Y3630D01*
Y1770D02*
Y1890D01*
Y1430D02*
Y1560D01*
Y740D02*
Y860D01*
X3400Y10940D02*
Y11030D01*
Y10340D02*
Y10450D01*
Y7130D02*
Y7290D01*
Y6600D02*
Y6750D01*
Y5750D02*
Y5870D01*
Y3050D02*
Y3740D01*
Y1780D02*
Y1900D01*
Y1440D02*
Y1580D01*
Y740D02*
Y870D01*
X3410Y10940D02*
Y11040D01*
Y10340D02*
Y10460D01*
Y7130D02*
Y7320D01*
Y6610D02*
Y6750D01*
Y5750D02*
Y5870D01*
Y3140D02*
Y3790D01*
Y3110D02*
Y3120D01*
Y1780D02*
Y1900D01*
Y1440D02*
Y1620D01*
Y750D02*
Y880D01*
X3420Y10930D02*
Y11030D01*
Y10350D02*
Y10460D01*
Y7140D02*
Y7330D01*
Y6620D02*
Y6760D01*
Y5750D02*
Y5870D01*
Y3830D02*
Y3840D01*
Y3210D02*
Y3810D01*
Y3190D02*
Y3200D01*
Y1780D02*
Y1900D01*
Y1450D02*
Y1630D01*
Y750D02*
Y880D01*
X3430Y10930D02*
Y11010D01*
Y10340D02*
Y10460D01*
Y7160D02*
Y7360D01*
Y6620D02*
Y6770D01*
Y5760D02*
Y5880D01*
Y3280D02*
Y3870D01*
Y3250D02*
Y3270D01*
Y1780D02*
Y1910D01*
Y1460D02*
Y1630D01*
Y760D02*
Y880D01*
X3440Y10910D02*
Y11010D01*
Y10340D02*
Y10460D01*
Y7170D02*
Y7370D01*
Y6640D02*
Y6770D01*
Y5760D02*
Y5880D01*
Y3320D02*
Y3940D01*
Y1790D02*
Y1910D01*
Y1470D02*
Y1630D01*
Y760D02*
Y880D01*
X3450Y10900D02*
Y10990D01*
Y10340D02*
Y10460D01*
Y7180D02*
Y7380D01*
Y6640D02*
Y6780D01*
Y5760D02*
Y5880D01*
Y3370D02*
Y3970D01*
Y1790D02*
Y1920D01*
Y1480D02*
Y1630D01*
Y770D02*
Y890D01*
X3460Y10890D02*
Y10990D01*
Y10340D02*
Y10460D01*
Y7190D02*
Y7400D01*
Y6660D02*
Y6780D01*
Y5760D02*
Y5890D01*
Y3440D02*
Y4000D01*
Y3410D02*
Y3420D01*
Y1790D02*
Y1920D01*
Y1480D02*
Y1640D01*
Y770D02*
Y890D01*
X3470Y10880D02*
Y10990D01*
Y10340D02*
Y10460D01*
Y7200D02*
Y7420D01*
Y6660D02*
Y6790D01*
Y5770D02*
Y5890D01*
Y3460D02*
Y4030D01*
Y1800D02*
Y1920D01*
Y1490D02*
Y1650D01*
Y770D02*
Y890D01*
X3480Y10870D02*
Y10980D01*
Y10350D02*
Y10460D01*
Y7230D02*
Y7430D01*
Y6670D02*
Y6790D01*
Y5770D02*
Y5900D01*
Y3580D02*
Y4070D01*
Y3560D02*
Y3570D01*
Y1800D02*
Y1930D01*
Y1500D02*
Y1650D01*
Y780D02*
Y890D01*
X3490Y10870D02*
Y10960D01*
Y10350D02*
Y10460D01*
Y7240D02*
Y7460D01*
Y6680D02*
Y6800D01*
Y5770D02*
Y5900D01*
Y3630D02*
Y4130D01*
Y1800D02*
Y1930D01*
Y1500D02*
Y1660D01*
Y780D02*
Y890D01*
X3500Y10860D02*
Y10960D01*
Y10350D02*
Y10460D01*
Y7260D02*
Y7480D01*
Y6680D02*
Y6810D01*
Y5770D02*
Y5900D01*
Y3690D02*
Y4170D01*
Y3650D02*
Y3660D01*
Y1800D02*
Y1920D01*
Y1510D02*
Y1670D01*
Y780D02*
Y890D01*
X3510Y10860D02*
Y10960D01*
Y10350D02*
Y10460D01*
Y7280D02*
Y7490D01*
Y6690D02*
Y6820D01*
Y5780D02*
Y5900D01*
Y3700D02*
Y4200D01*
Y1810D02*
Y1930D01*
Y1520D02*
Y1680D01*
Y780D02*
Y890D01*
X3520Y10860D02*
Y10950D01*
Y10840D02*
Y10850D01*
Y10350D02*
Y10470D01*
Y7290D02*
Y7510D01*
Y6690D02*
Y6830D01*
Y5780D02*
Y5910D01*
Y3760D02*
Y4240D01*
Y1810D02*
Y1930D01*
Y1530D02*
Y1700D01*
Y790D02*
Y900D01*
X3530Y10830D02*
Y10930D01*
Y10350D02*
Y10470D01*
Y7300D02*
Y7520D01*
Y6700D02*
Y6830D01*
Y5790D02*
Y5910D01*
Y3820D02*
Y4260D01*
Y3800D02*
Y3810D01*
Y1820D02*
Y1940D01*
Y1540D02*
Y1710D01*
Y790D02*
Y900D01*
X3540Y10830D02*
Y10930D01*
Y10350D02*
Y10460D01*
Y7330D02*
Y7550D01*
Y6710D02*
Y6830D01*
Y5790D02*
Y5910D01*
Y3840D02*
Y4290D01*
Y1820D02*
Y1940D01*
Y1550D02*
Y1720D01*
Y790D02*
Y900D01*
X3550Y10820D02*
Y10920D01*
Y10350D02*
Y10470D01*
Y9200D02*
Y9210D01*
Y7350D02*
Y7560D01*
Y6720D02*
Y6830D01*
Y5800D02*
Y5910D01*
Y3910D02*
Y4340D01*
Y3880D02*
Y3890D01*
Y1830D02*
Y1950D01*
Y1570D02*
Y1730D01*
Y790D02*
Y900D01*
X3560Y10810D02*
Y10920D01*
Y10350D02*
Y10470D01*
Y9160D02*
Y9240D01*
Y7360D02*
Y7590D01*
Y6720D02*
Y6830D01*
Y5800D02*
Y5920D01*
Y3940D02*
Y4370D01*
Y1830D02*
Y1950D01*
Y1580D02*
Y1740D01*
Y790D02*
Y900D01*
X3570Y10800D02*
Y10900D01*
Y10350D02*
Y10470D01*
Y9140D02*
Y9270D01*
Y7630D02*
Y7650D01*
Y7370D02*
Y7610D01*
Y6720D02*
Y6820D01*
Y5810D02*
Y5920D01*
Y3990D02*
Y4400D01*
Y3950D02*
Y3970D01*
Y1830D02*
Y1950D01*
Y1590D02*
Y1780D01*
Y790D02*
Y900D01*
X3580Y10800D02*
Y10900D01*
Y10360D02*
Y10470D01*
Y9120D02*
Y9280D01*
Y7400D02*
Y7660D01*
Y6720D02*
Y6820D01*
Y5810D02*
Y5920D01*
Y4050D02*
Y4430D01*
Y4000D02*
Y4040D01*
Y1830D02*
Y1950D01*
Y1810D02*
Y1820D01*
Y1600D02*
Y1790D01*
Y790D02*
Y900D01*
X3590Y10790D02*
Y10890D01*
Y10360D02*
Y10470D01*
Y9110D02*
Y9290D01*
Y7410D02*
Y7680D01*
Y6710D02*
Y6820D01*
Y5810D02*
Y5920D01*
Y4060D02*
Y4460D01*
Y1610D02*
Y1950D01*
Y800D02*
Y900D01*
X3600Y10780D02*
Y10890D01*
Y10360D02*
Y10470D01*
Y9090D02*
Y9290D01*
Y7420D02*
Y7690D01*
Y6700D02*
Y6820D01*
Y5810D02*
Y5930D01*
Y4080D02*
Y4500D01*
Y1630D02*
Y1950D01*
Y800D02*
Y910D01*
X3610Y10770D02*
Y10880D01*
Y10360D02*
Y10470D01*
Y9090D02*
Y9290D01*
Y7440D02*
Y7700D01*
Y6690D02*
Y6820D01*
Y5810D02*
Y5930D01*
Y4120D02*
Y4550D01*
Y1630D02*
Y1950D01*
Y800D02*
Y910D01*
X3620Y10750D02*
Y10880D01*
Y10360D02*
Y10470D01*
Y9090D02*
Y9290D01*
Y7470D02*
Y7700D01*
Y6660D02*
Y6810D01*
Y5820D02*
Y5930D01*
Y4150D02*
Y4560D01*
Y1640D02*
Y1950D01*
Y790D02*
Y900D01*
X3630Y10750D02*
Y10870D01*
Y10360D02*
Y10470D01*
Y9050D02*
Y9280D01*
Y7490D02*
Y7730D01*
Y6660D02*
Y6810D01*
Y6640D02*
Y6650D01*
Y5820D02*
Y5930D01*
Y4180D02*
Y4600D01*
Y1650D02*
Y1950D01*
Y790D02*
Y900D01*
X3640Y10740D02*
Y10860D01*
Y10350D02*
Y10470D01*
Y9050D02*
Y9260D01*
Y7490D02*
Y7740D01*
Y6630D02*
Y6790D01*
Y6550D02*
Y6620D01*
Y6510D02*
Y6520D01*
Y5820D02*
Y5940D01*
Y4210D02*
Y4630D01*
Y1670D02*
Y1940D01*
Y780D02*
Y900D01*
X3650Y10740D02*
Y10860D01*
Y10360D02*
Y10470D01*
Y9220D02*
Y9230D01*
Y9050D02*
Y9180D01*
Y7520D02*
Y7770D01*
Y6550D02*
Y6780D01*
Y5820D02*
Y5940D01*
Y4230D02*
Y4660D01*
Y1680D02*
Y1940D01*
Y780D02*
Y900D01*
X3660Y10730D02*
Y10860D01*
Y10360D02*
Y10470D01*
Y9060D02*
Y9140D01*
Y7530D02*
Y7790D01*
Y6560D02*
Y6780D01*
Y5820D02*
Y5940D01*
Y4290D02*
Y4700D01*
Y4270D02*
Y4280D01*
Y1700D02*
Y1940D01*
Y770D02*
Y900D01*
X3670Y10730D02*
Y10850D01*
Y10360D02*
Y10470D01*
Y7550D02*
Y7830D01*
Y6560D02*
Y6780D01*
Y5820D02*
Y5940D01*
Y4310D02*
Y4730D01*
Y1710D02*
Y1940D01*
Y770D02*
Y890D01*
X3680Y10720D02*
Y10830D01*
Y10360D02*
Y10480D01*
Y7570D02*
Y7850D01*
Y6590D02*
Y6750D01*
Y5820D02*
Y5930D01*
Y4350D02*
Y4800D01*
Y1740D02*
Y1930D01*
Y780D02*
Y880D01*
X3690Y10710D02*
Y10820D01*
Y10360D02*
Y10480D01*
Y7580D02*
Y7860D01*
Y6630D02*
Y6730D01*
Y6600D02*
Y6610D01*
Y5820D02*
Y5940D01*
Y4380D02*
Y4820D01*
Y1770D02*
Y1910D01*
Y790D02*
Y880D01*
X3700Y10710D02*
Y10810D01*
Y10360D02*
Y10480D01*
Y7610D02*
Y7870D01*
Y6680D02*
Y6700D01*
Y6640D02*
Y6650D01*
Y5820D02*
Y5940D01*
Y4420D02*
Y4850D01*
Y1800D02*
Y1900D01*
Y800D02*
Y850D01*
X3710Y10710D02*
Y10820D01*
Y10360D02*
Y10480D01*
Y7630D02*
Y7870D01*
Y5820D02*
Y5930D01*
Y4880D02*
Y4890D01*
Y4450D02*
Y4870D01*
X3720Y10700D02*
Y10820D01*
Y10360D02*
Y10480D01*
Y7650D02*
Y7880D01*
Y5810D02*
Y5930D01*
Y4470D02*
Y4900D01*
X3730Y10680D02*
Y10810D01*
Y10360D02*
Y10470D01*
Y7680D02*
Y7880D01*
Y5820D02*
Y5930D01*
Y4520D02*
Y4940D01*
X3740Y10670D02*
Y10810D01*
Y10370D02*
Y10470D01*
Y7690D02*
Y7880D01*
Y5820D02*
Y5940D01*
Y4550D02*
Y4980D01*
X3750Y10660D02*
Y10810D01*
Y10370D02*
Y10480D01*
Y7720D02*
Y7870D01*
Y5810D02*
Y5940D01*
Y4600D02*
Y5010D01*
X3760Y10660D02*
Y10800D01*
Y10370D02*
Y10480D01*
Y7740D02*
Y7860D01*
Y5800D02*
Y5930D01*
Y4630D02*
Y5080D01*
X3770Y10650D02*
Y10790D01*
Y10380D02*
Y10480D01*
Y7760D02*
Y7860D01*
Y5790D02*
Y5930D01*
Y4680D02*
Y5130D01*
X3780Y10650D02*
Y10790D01*
Y10370D02*
Y10480D01*
Y7780D02*
Y7850D01*
Y5790D02*
Y5930D01*
Y4690D02*
Y5170D01*
X3790Y10640D02*
Y10790D01*
Y10370D02*
Y10490D01*
Y5780D02*
Y5930D01*
Y4710D02*
Y5200D01*
X3800Y10630D02*
Y10790D01*
Y10370D02*
Y10490D01*
Y5770D02*
Y5920D01*
Y4790D02*
Y5240D01*
X3810Y10630D02*
Y10800D01*
Y10380D02*
Y10490D01*
Y5750D02*
Y5920D01*
Y4810D02*
Y5290D01*
X3820Y10620D02*
Y10800D01*
Y10380D02*
Y10490D01*
Y5730D02*
Y5910D01*
Y4850D02*
Y5330D01*
X3830Y10610D02*
Y10800D01*
Y10380D02*
Y10490D01*
Y5700D02*
Y5910D01*
Y4900D02*
Y5390D01*
X3840Y10600D02*
Y10790D01*
Y10380D02*
Y10490D01*
Y5640D02*
Y5900D01*
Y5480D02*
Y5490D01*
Y4920D02*
Y5440D01*
X3850Y10600D02*
Y10780D01*
Y10380D02*
Y10490D01*
Y5550D02*
Y5890D01*
Y4970D02*
Y5540D01*
X3860Y10590D02*
Y10780D01*
Y10380D02*
Y10490D01*
Y4980D02*
Y5880D01*
X3870Y10590D02*
Y10780D01*
Y10390D02*
Y10500D01*
Y5020D02*
Y5880D01*
X3880Y10580D02*
Y10780D01*
Y10380D02*
Y10500D01*
Y5050D02*
Y5860D01*
X3890Y10580D02*
Y10770D01*
Y10390D02*
Y10500D01*
Y5130D02*
Y5850D01*
Y5080D02*
Y5110D01*
X3900Y10570D02*
Y10770D01*
Y10390D02*
Y10500D01*
Y5180D02*
Y5840D01*
Y5150D02*
Y5160D01*
X3910Y10570D02*
Y10770D01*
Y10390D02*
Y10500D01*
Y5210D02*
Y5830D01*
X3920Y10560D02*
Y10760D01*
Y10390D02*
Y10490D01*
Y5250D02*
Y5800D01*
X3930Y10560D02*
Y10760D01*
Y10400D02*
Y10500D01*
Y5280D02*
Y5780D01*
X3940Y10550D02*
Y10760D01*
Y10390D02*
Y10500D01*
Y5350D02*
Y5770D01*
X3950Y10730D02*
Y10750D01*
Y10550D02*
Y10720D01*
Y10400D02*
Y10500D01*
Y5710D02*
Y5730D01*
Y5370D02*
Y5690D01*
X3960Y10550D02*
Y10720D01*
Y10410D02*
Y10510D01*
Y5640D02*
Y5650D01*
Y5440D02*
Y5600D01*
X3970Y10540D02*
Y10660D01*
Y10400D02*
Y10510D01*
Y5520D02*
Y5550D01*
Y5490D02*
Y5500D01*
X3980Y10540D02*
Y10650D01*
Y10400D02*
Y10510D01*
X3990Y10530D02*
Y10640D01*
Y10400D02*
Y10510D01*
X4000Y10530D02*
Y10630D01*
Y10400D02*
Y10520D01*
X4010Y10530D02*
Y10630D01*
Y10400D02*
Y10520D01*
X4020Y10530D02*
Y10620D01*
Y10400D02*
Y10520D01*
X4030Y10400D02*
Y10620D01*
X4040Y10400D02*
Y10620D01*
X4050Y10400D02*
Y10610D01*
X4060Y10400D02*
Y10600D01*
X4070Y10400D02*
Y10610D01*
X4080Y10400D02*
Y10600D01*
X4090Y10410D02*
Y10600D01*
X4100Y10410D02*
Y10590D01*
X4110Y10410D02*
Y10580D01*
X4120Y10410D02*
Y10570D01*
X4130Y10410D02*
Y10560D01*
X4140Y10410D02*
Y10560D01*
X4150Y10410D02*
Y10560D01*
X4160Y10410D02*
Y10560D01*
X4170Y10410D02*
Y10550D01*
X4180Y10420D02*
Y10540D01*
X4190Y10420D02*
Y10540D01*
X4200Y10420D02*
Y10540D01*
X4210Y10420D02*
Y10540D01*
X4220Y10420D02*
Y10540D01*
X4230Y10420D02*
Y10540D01*
X4240Y10430D02*
Y10520D01*
X4250Y10440D02*
Y10510D01*
X4260Y10460D02*
Y10500D01*
D40*
X-550Y6100D02*
X-235D01*
X4900Y11835D02*
Y12150D01*
X6450Y1200D02*
Y1515D01*
X11335Y7500D02*
X11650D01*
X10785D02*
X11100D01*
X4900Y12385D02*
Y12700D01*
X0Y6100D02*
X315D01*
X6450Y650D02*
Y965D01*
X5785Y7450D02*
X6100D01*
X7285Y4800D02*
X7600D01*
D44*
X9437Y2055D02*
X10812D01*
Y1555D02*
Y2055D01*
Y1555D02*
X11037D01*
Y2330D01*
X9687D02*
X11037D01*
X9687D02*
Y5255D01*
X11012D01*
Y5080D02*
Y5255D01*
X9787Y5080D02*
X11012D01*
X9787Y4780D02*
Y5080D01*
Y4780D02*
X9812D01*
Y4755D02*
Y4780D01*
Y4755D02*
X9887D01*
Y4730D02*
Y4755D01*
Y4730D02*
X9962D01*
Y4705D02*
Y4730D01*
Y4705D02*
X10012D01*
Y4680D02*
Y4705D01*
Y4680D02*
X10087D01*
Y4655D02*
Y4680D01*
Y4655D02*
X10162D01*
Y4630D02*
Y4655D01*
Y4630D02*
X10237D01*
Y4605D02*
Y4630D01*
Y4605D02*
X10312D01*
Y4580D02*
Y4605D01*
Y4580D02*
X10362D01*
Y4555D02*
Y4580D01*
Y4555D02*
X10437D01*
Y4530D02*
Y4555D01*
Y4530D02*
X10512D01*
Y4505D02*
Y4530D01*
Y4505D02*
X10587D01*
Y4480D02*
Y4505D01*
X9787Y4480D02*
X10587D01*
X9787Y4230D02*
Y4480D01*
Y4230D02*
X11037D01*
Y4530D01*
X11012D02*
X11037D01*
X11012D02*
Y4555D01*
X10937D02*
X11012D01*
X10937D02*
Y4580D01*
X10887D02*
X10937D01*
X10887D02*
Y4605D01*
X10812D02*
X10887D01*
X10812D02*
Y4630D01*
X10737D02*
X10812D01*
X10737D02*
Y4655D01*
X10662D02*
X10737D01*
X10662D02*
Y4680D01*
X10587D02*
X10662D01*
X10587D02*
Y4705D01*
X10537D02*
X10587D01*
X10537D02*
Y4730D01*
X10462D02*
X10537D01*
X10462D02*
Y4755D01*
X10387D02*
X10462D01*
X10387D02*
Y4780D01*
X10312D02*
X10387D01*
X10312D02*
Y4805D01*
X10237D02*
X10312D01*
X10237D02*
Y4830D01*
X11262D01*
Y5505D01*
X9437D02*
X11262D01*
X9437Y2055D02*
Y5505D01*
X9787Y3355D02*
X9987D01*
Y3805D01*
X10287D01*
Y3405D02*
Y3805D01*
Y3405D02*
X10487D01*
Y3805D01*
X10812D01*
Y3355D02*
Y3805D01*
Y3355D02*
X11037D01*
Y4080D01*
X9787D02*
X11037D01*
X9787Y3355D02*
Y4080D01*
X9762Y2705D02*
X9787D01*
Y2655D02*
Y2705D01*
Y2655D02*
X9812D01*
Y2605D02*
Y2655D01*
Y2605D02*
X9837D01*
Y2580D02*
Y2605D01*
Y2580D02*
X9862D01*
Y2555D02*
Y2580D01*
Y2555D02*
X9887D01*
Y2530D02*
Y2555D01*
Y2530D02*
X9937D01*
Y2505D02*
Y2530D01*
Y2505D02*
X10012D01*
Y2480D02*
Y2505D01*
Y2480D02*
X10137D01*
Y2730D01*
X10062D02*
X10137D01*
X10062D02*
Y2755D01*
X9987D02*
X10062D01*
X9987D02*
Y2780D01*
X9962D02*
X9987D01*
X9962D02*
Y2955D01*
X9987D01*
Y2980D01*
X10037D01*
Y3005D01*
X10162D01*
Y2980D02*
Y3005D01*
Y2980D02*
X10187D01*
Y2955D02*
Y2980D01*
Y2955D02*
X10212D01*
Y2930D02*
Y2955D01*
Y2930D02*
X10237D01*
Y2880D02*
Y2930D01*
Y2880D02*
X10262D01*
Y2830D02*
Y2880D01*
Y2830D02*
X10287D01*
Y2780D02*
Y2830D01*
Y2780D02*
X10312D01*
Y2705D02*
Y2780D01*
Y2705D02*
X10337D01*
Y2655D02*
Y2705D01*
Y2655D02*
X10362D01*
Y2605D02*
Y2655D01*
Y2605D02*
X10387D01*
Y2580D02*
Y2605D01*
Y2580D02*
X10412D01*
Y2530D02*
Y2580D01*
Y2530D02*
X10437D01*
Y2505D02*
Y2530D01*
Y2505D02*
X10487D01*
Y2480D02*
Y2505D01*
Y2480D02*
X10537D01*
Y2455D02*
Y2480D01*
Y2455D02*
X10812D01*
Y2480D01*
X10887D01*
Y2505D01*
X10912D01*
Y2530D01*
X10962D01*
Y2580D01*
X10987D01*
Y2630D01*
X11012D01*
Y2680D01*
X11037D01*
Y2805D01*
X11062D01*
Y2980D01*
X11037D02*
X11062D01*
X11037D02*
Y3080D01*
X11012D02*
X11037D01*
X11012D02*
Y3155D01*
X10987D02*
X11012D01*
X10987D02*
Y3180D01*
X10962D02*
X10987D01*
X10962D02*
Y3205D01*
X10937D02*
X10962D01*
X10937D02*
Y3230D01*
X10887D02*
X10937D01*
X10887D02*
Y3255D01*
X10837D02*
X10887D01*
X10837D02*
Y3280D01*
X10637D02*
X10837D01*
X10637Y3030D02*
Y3280D01*
Y3030D02*
X10737D01*
Y3005D02*
Y3030D01*
Y3005D02*
X10812D01*
Y2980D02*
Y3005D01*
Y2980D02*
X10837D01*
Y2930D02*
Y2980D01*
Y2930D02*
X10862D01*
Y2805D02*
Y2930D01*
X10837Y2805D02*
X10862D01*
X10837Y2755D02*
Y2805D01*
X10812Y2755D02*
X10837D01*
X10812Y2730D02*
Y2755D01*
X10612Y2730D02*
X10812D01*
X10612D02*
Y2755D01*
X10587D02*
X10612D01*
X10587D02*
Y2780D01*
X10562D02*
X10587D01*
X10562D02*
Y2830D01*
X10537D02*
X10562D01*
X10537D02*
Y2880D01*
X10512D02*
X10537D01*
X10512D02*
Y2955D01*
X10487D02*
X10512D01*
X10487D02*
Y3030D01*
X10462D02*
X10487D01*
X10462D02*
Y3080D01*
X10437D02*
X10462D01*
X10437D02*
Y3130D01*
X10412D02*
X10437D01*
X10412D02*
Y3155D01*
X10387D02*
X10412D01*
X10387D02*
Y3180D01*
X10362D02*
X10387D01*
X10362D02*
Y3205D01*
X10337D02*
X10362D01*
X10337D02*
Y3230D01*
X10287D02*
X10337D01*
X10287D02*
Y3255D01*
X9962D02*
X10287D01*
X9962Y3230D02*
Y3255D01*
X9912Y3230D02*
X9962D01*
X9912Y3205D02*
Y3230D01*
X9862Y3205D02*
X9912D01*
X9862Y3180D02*
Y3205D01*
X9837Y3180D02*
X9862D01*
X9837Y3130D02*
Y3180D01*
X9812Y3130D02*
X9837D01*
X9812Y3105D02*
Y3130D01*
X9787Y3105D02*
X9812D01*
X9787Y3030D02*
Y3105D01*
X9762Y3030D02*
X9787D01*
X9762Y2705D02*
Y3030D01*
D45*
X9447Y2065D02*
X10822D01*
Y1565D02*
Y2065D01*
Y1565D02*
X11027D01*
Y2320D01*
X9677D02*
X11027D01*
X9677D02*
Y5265D01*
X11022D01*
Y5070D02*
Y5265D01*
X9797Y5070D02*
X11022D01*
X9797Y4790D02*
Y5070D01*
Y4790D02*
X9822D01*
Y4765D02*
Y4790D01*
Y4765D02*
X9897D01*
Y4740D02*
Y4765D01*
Y4740D02*
X9972D01*
Y4715D02*
Y4740D01*
Y4715D02*
X10022D01*
Y4690D02*
Y4715D01*
Y4690D02*
X10097D01*
Y4665D02*
Y4690D01*
Y4665D02*
X10172D01*
Y4640D02*
Y4665D01*
Y4640D02*
X10247D01*
Y4615D02*
Y4640D01*
Y4615D02*
X10322D01*
Y4590D02*
Y4615D01*
Y4590D02*
X10372D01*
Y4565D02*
Y4590D01*
Y4565D02*
X10447D01*
Y4540D02*
Y4565D01*
Y4540D02*
X10522D01*
Y4515D02*
Y4540D01*
Y4515D02*
X10597D01*
Y4470D02*
Y4515D01*
X9797Y4470D02*
X10597D01*
X9797Y4240D02*
Y4470D01*
Y4240D02*
X11027D01*
Y4520D01*
X11002D02*
X11027D01*
X11002D02*
Y4545D01*
X10927D02*
X11002D01*
X10927D02*
Y4570D01*
X10877D02*
X10927D01*
X10877D02*
Y4595D01*
X10802D02*
X10877D01*
X10802D02*
Y4620D01*
X10727D02*
X10802D01*
X10727D02*
Y4645D01*
X10652D02*
X10727D01*
X10652D02*
Y4670D01*
X10577D02*
X10652D01*
X10577D02*
Y4695D01*
X10527D02*
X10577D01*
X10527D02*
Y4720D01*
X10452D02*
X10527D01*
X10452D02*
Y4745D01*
X10377D02*
X10452D01*
X10377D02*
Y4770D01*
X10302D02*
X10377D01*
X10302D02*
Y4795D01*
X10227D02*
X10302D01*
X10227D02*
Y4840D01*
X11252D01*
Y5495D01*
X9447D02*
X11252D01*
X9447Y2065D02*
Y5495D01*
X11242Y4842D02*
Y5494D01*
X11222Y4842D02*
Y5494D01*
X11202Y4842D02*
Y5494D01*
X11182Y4842D02*
Y5494D01*
X11162Y4842D02*
Y5494D01*
X11142Y4842D02*
Y5494D01*
X11122Y4842D02*
Y5494D01*
X11102Y4842D02*
Y5494D01*
X11082Y4842D02*
Y5494D01*
X11062Y4842D02*
Y5494D01*
X11042Y4842D02*
Y5494D01*
X11022Y5269D02*
Y5494D01*
Y4842D02*
Y5067D01*
Y4242D02*
Y4515D01*
Y1565D02*
Y2317D01*
X11002Y5269D02*
Y5494D01*
Y4842D02*
Y5067D01*
Y4242D02*
Y4544D01*
Y1565D02*
Y2317D01*
X10982Y5269D02*
Y5494D01*
Y4842D02*
Y5067D01*
Y4242D02*
Y4544D01*
Y1565D02*
Y2317D01*
X10962Y5269D02*
Y5494D01*
Y4842D02*
Y5067D01*
Y4242D02*
Y4544D01*
Y1565D02*
Y2317D01*
X10942Y5269D02*
Y5494D01*
Y4842D02*
Y5067D01*
Y4242D02*
Y4544D01*
Y1565D02*
Y2317D01*
X10922Y5269D02*
Y5494D01*
Y4842D02*
Y5067D01*
Y4242D02*
Y4568D01*
Y1565D02*
Y2317D01*
X10902Y5269D02*
Y5494D01*
Y4842D02*
Y5067D01*
Y4242D02*
Y4568D01*
Y1565D02*
Y2317D01*
X10882Y5269D02*
Y5494D01*
Y4842D02*
Y5067D01*
Y4242D02*
Y4568D01*
Y1565D02*
Y2317D01*
X10862Y5269D02*
Y5494D01*
Y4842D02*
Y5067D01*
Y4242D02*
Y4592D01*
Y1565D02*
Y2317D01*
X10842Y5269D02*
Y5494D01*
Y4842D02*
Y5067D01*
Y4242D02*
Y4592D01*
Y1565D02*
Y2317D01*
X10822Y5269D02*
Y5494D01*
Y4842D02*
Y5067D01*
Y4242D02*
Y4592D01*
Y2068D02*
Y2317D01*
X10802Y5269D02*
Y5494D01*
Y4842D02*
Y5067D01*
Y4242D02*
Y4616D01*
Y2068D02*
Y2317D01*
X10782Y5269D02*
Y5494D01*
Y4842D02*
Y5067D01*
Y4242D02*
Y4616D01*
Y2068D02*
Y2317D01*
X10762Y5269D02*
Y5494D01*
Y4842D02*
Y5067D01*
Y4242D02*
Y4616D01*
Y2068D02*
Y2317D01*
X10742Y5269D02*
Y5494D01*
Y4842D02*
Y5067D01*
Y4242D02*
Y4616D01*
Y2068D02*
Y2317D01*
X10722Y5269D02*
Y5494D01*
Y4842D02*
Y5067D01*
Y4242D02*
Y4640D01*
Y2068D02*
Y2317D01*
X10702Y5269D02*
Y5494D01*
Y4842D02*
Y5067D01*
Y4242D02*
Y4640D01*
Y2068D02*
Y2317D01*
X10682Y5269D02*
Y5494D01*
Y4842D02*
Y5067D01*
Y4242D02*
Y4640D01*
Y2068D02*
Y2317D01*
X10662Y5269D02*
Y5494D01*
Y4842D02*
Y5067D01*
Y4242D02*
Y4640D01*
Y2068D02*
Y2317D01*
X10642Y5269D02*
Y5494D01*
Y4842D02*
Y5067D01*
Y4242D02*
Y4669D01*
Y2068D02*
Y2317D01*
X10622Y5269D02*
Y5494D01*
Y4842D02*
Y5067D01*
Y4242D02*
Y4669D01*
Y2068D02*
Y2317D01*
X10602Y5269D02*
Y5494D01*
Y4842D02*
Y5067D01*
Y4242D02*
Y4669D01*
Y2068D02*
Y2317D01*
X10582Y5269D02*
Y5494D01*
Y4842D02*
Y5067D01*
Y4516D02*
Y4669D01*
Y4242D02*
Y4467D01*
Y2068D02*
Y2317D01*
X10562Y5269D02*
Y5494D01*
Y4842D02*
Y5067D01*
Y4516D02*
Y4693D01*
Y4242D02*
Y4467D01*
Y2068D02*
Y2317D01*
X10542Y5269D02*
Y5494D01*
Y4842D02*
Y5067D01*
Y4516D02*
Y4693D01*
Y4242D02*
Y4467D01*
Y2068D02*
Y2317D01*
X10522Y5269D02*
Y5494D01*
Y4842D02*
Y5067D01*
Y4544D02*
Y4717D01*
Y4242D02*
Y4467D01*
Y2068D02*
Y2317D01*
X10502Y5269D02*
Y5494D01*
Y4842D02*
Y5067D01*
Y4544D02*
Y4717D01*
Y4242D02*
Y4467D01*
Y2068D02*
Y2317D01*
X10482Y5269D02*
Y5494D01*
Y4842D02*
Y5067D01*
Y4544D02*
Y4717D01*
Y4242D02*
Y4467D01*
Y2068D02*
Y2317D01*
X10462Y5269D02*
Y5494D01*
Y4842D02*
Y5067D01*
Y4544D02*
Y4717D01*
Y4242D02*
Y4467D01*
Y2068D02*
Y2317D01*
X10442Y5269D02*
Y5494D01*
Y4842D02*
Y5067D01*
Y4568D02*
Y4741D01*
Y4242D02*
Y4467D01*
Y2068D02*
Y2317D01*
X10422Y5269D02*
Y5494D01*
Y4842D02*
Y5067D01*
Y4568D02*
Y4741D01*
Y4242D02*
Y4467D01*
Y2068D02*
Y2317D01*
X10402Y5269D02*
Y5494D01*
Y4842D02*
Y5067D01*
Y4568D02*
Y4741D01*
Y4242D02*
Y4467D01*
Y2068D02*
Y2317D01*
X10382Y5269D02*
Y5494D01*
Y4842D02*
Y5067D01*
Y4568D02*
Y4741D01*
Y4242D02*
Y4467D01*
Y2068D02*
Y2317D01*
X10362Y5269D02*
Y5494D01*
Y4842D02*
Y5067D01*
Y4592D02*
Y4765D01*
Y4242D02*
Y4467D01*
Y2068D02*
Y2317D01*
X10342Y5269D02*
Y5494D01*
Y4842D02*
Y5067D01*
Y4592D02*
Y4765D01*
Y4242D02*
Y4467D01*
Y2068D02*
Y2317D01*
X10322Y5269D02*
Y5494D01*
Y4842D02*
Y5067D01*
Y4616D02*
Y4765D01*
Y4242D02*
Y4467D01*
Y2068D02*
Y2317D01*
X10302Y5269D02*
Y5494D01*
Y4842D02*
Y5067D01*
Y4616D02*
Y4794D01*
Y4242D02*
Y4467D01*
Y2068D02*
Y2317D01*
X10282Y5269D02*
Y5494D01*
Y4842D02*
Y5067D01*
Y4616D02*
Y4794D01*
Y4242D02*
Y4467D01*
Y2068D02*
Y2317D01*
X10262Y5269D02*
Y5494D01*
Y4842D02*
Y5067D01*
Y4616D02*
Y4794D01*
Y4242D02*
Y4467D01*
Y2068D02*
Y2317D01*
X10242Y5269D02*
Y5494D01*
Y4842D02*
Y5067D01*
Y4640D02*
Y4794D01*
Y4242D02*
Y4467D01*
Y2068D02*
Y2317D01*
X10222Y5269D02*
Y5494D01*
Y4640D02*
Y5067D01*
Y4242D02*
Y4467D01*
Y2068D02*
Y2317D01*
X10202Y5269D02*
Y5494D01*
Y4640D02*
Y5067D01*
Y4242D02*
Y4467D01*
Y2068D02*
Y2317D01*
X10182Y5269D02*
Y5494D01*
Y4640D02*
Y5067D01*
Y4242D02*
Y4467D01*
Y2068D02*
Y2317D01*
X10162Y5269D02*
Y5494D01*
Y4669D02*
Y5067D01*
Y4242D02*
Y4467D01*
Y2068D02*
Y2317D01*
X10142Y5269D02*
Y5494D01*
Y4669D02*
Y5067D01*
Y4242D02*
Y4467D01*
Y2068D02*
Y2317D01*
X10122Y5269D02*
Y5494D01*
Y4669D02*
Y5067D01*
Y4242D02*
Y4467D01*
Y2068D02*
Y2317D01*
X10102Y5269D02*
Y5494D01*
Y4669D02*
Y5067D01*
Y4242D02*
Y4467D01*
Y2068D02*
Y2317D01*
X10082Y5269D02*
Y5494D01*
Y4693D02*
Y5067D01*
Y4242D02*
Y4467D01*
Y2068D02*
Y2317D01*
X10062Y5269D02*
Y5494D01*
Y4693D02*
Y5067D01*
Y4242D02*
Y4467D01*
Y2068D02*
Y2317D01*
X10042Y5269D02*
Y5494D01*
Y4693D02*
Y5067D01*
Y4242D02*
Y4467D01*
Y2068D02*
Y2317D01*
X10022Y5269D02*
Y5494D01*
Y4717D02*
Y5067D01*
Y4242D02*
Y4467D01*
Y2068D02*
Y2317D01*
X10002Y5269D02*
Y5494D01*
Y4717D02*
Y5067D01*
Y4242D02*
Y4467D01*
Y2068D02*
Y2317D01*
X9982Y5269D02*
Y5494D01*
Y4717D02*
Y5067D01*
Y4242D02*
Y4467D01*
Y2068D02*
Y2317D01*
X9962Y5269D02*
Y5494D01*
Y4741D02*
Y5067D01*
Y4242D02*
Y4467D01*
Y2068D02*
Y2317D01*
X9942Y5269D02*
Y5494D01*
Y4741D02*
Y5067D01*
Y4242D02*
Y4467D01*
Y2068D02*
Y2317D01*
X9922Y5269D02*
Y5494D01*
Y4741D02*
Y5067D01*
Y4242D02*
Y4467D01*
Y2068D02*
Y2317D01*
X9902Y5269D02*
Y5494D01*
Y4741D02*
Y5067D01*
Y4242D02*
Y4467D01*
Y2068D02*
Y2317D01*
X9882Y5269D02*
Y5494D01*
Y4765D02*
Y5067D01*
Y4242D02*
Y4467D01*
Y2068D02*
Y2317D01*
X9862Y5269D02*
Y5494D01*
Y4765D02*
Y5067D01*
Y4242D02*
Y4467D01*
Y2068D02*
Y2317D01*
X9842Y5269D02*
Y5494D01*
Y4765D02*
Y5067D01*
Y4242D02*
Y4467D01*
Y2068D02*
Y2317D01*
X9822Y5269D02*
Y5494D01*
Y4794D02*
Y5067D01*
Y4242D02*
Y4467D01*
Y2068D02*
Y2317D01*
X9802Y5269D02*
Y5494D01*
Y4794D02*
Y5067D01*
Y4242D02*
Y4467D01*
Y2068D02*
Y2317D01*
X9782Y5269D02*
Y5494D01*
Y2068D02*
Y2317D01*
X9762Y5269D02*
Y5494D01*
Y2068D02*
Y2317D01*
X9742Y5269D02*
Y5494D01*
Y2068D02*
Y2317D01*
X9722Y5269D02*
Y5494D01*
Y2068D02*
Y2317D01*
X9702Y5269D02*
Y5494D01*
Y2068D02*
Y2317D01*
X9682Y5269D02*
Y5494D01*
Y2068D02*
Y2317D01*
X9662Y2068D02*
Y5494D01*
X9642Y2068D02*
Y5494D01*
X9622Y2068D02*
Y5494D01*
X9602Y2068D02*
Y5494D01*
X9582Y2068D02*
Y5494D01*
X9562Y2068D02*
Y5494D01*
X9542Y2068D02*
Y5494D01*
X9522Y2068D02*
Y5494D01*
X9502Y2068D02*
Y5494D01*
X9482Y2068D02*
Y5494D01*
X9462Y2068D02*
Y5494D01*
X9797Y3365D02*
X9977D01*
Y3815D01*
X10297D01*
Y3415D02*
Y3815D01*
Y3415D02*
X10477D01*
Y3815D01*
X10822D01*
Y3365D02*
Y3815D01*
Y3365D02*
X11027D01*
Y4070D01*
X9797D02*
X11027D01*
X9797Y3365D02*
Y4070D01*
X9797Y4060D02*
X11026D01*
X9797Y4040D02*
X11026D01*
X9797Y4020D02*
X11026D01*
X9797Y4000D02*
X11026D01*
X9797Y3980D02*
X11026D01*
X9797Y3960D02*
X11026D01*
X9797Y3940D02*
X11026D01*
X9797Y3920D02*
X11026D01*
X9797Y3900D02*
X11026D01*
X9797Y3880D02*
X11026D01*
X9797Y3860D02*
X11026D01*
X9797Y3840D02*
X11026D01*
X9797Y3820D02*
X11026D01*
X10825Y3800D02*
X11026D01*
X10302D02*
X10474D01*
X9797D02*
X9975D01*
X10825Y3780D02*
X11026D01*
X10302D02*
X10474D01*
X9797D02*
X9975D01*
X10825Y3760D02*
X11026D01*
X10302D02*
X10474D01*
X9797D02*
X9975D01*
X10825Y3740D02*
X11026D01*
X10302D02*
X10474D01*
X9797D02*
X9975D01*
X10825Y3720D02*
X11026D01*
X10302D02*
X10474D01*
X9797D02*
X9975D01*
X10825Y3700D02*
X11026D01*
X10302D02*
X10474D01*
X9797D02*
X9975D01*
X10825Y3680D02*
X11026D01*
X10302D02*
X10474D01*
X9797D02*
X9975D01*
X10825Y3660D02*
X11026D01*
X10302D02*
X10474D01*
X9797D02*
X9975D01*
X10825Y3640D02*
X11026D01*
X10302D02*
X10474D01*
X9797D02*
X9975D01*
X10825Y3620D02*
X11026D01*
X10302D02*
X10474D01*
X9797D02*
X9975D01*
X10825Y3600D02*
X11026D01*
X10302D02*
X10474D01*
X9797D02*
X9975D01*
X10825Y3580D02*
X11026D01*
X10302D02*
X10474D01*
X9797D02*
X9975D01*
X10825Y3560D02*
X11026D01*
X10302D02*
X10474D01*
X9797D02*
X9975D01*
X10825Y3540D02*
X11026D01*
X10302D02*
X10474D01*
X9797D02*
X9975D01*
X10825Y3520D02*
X11026D01*
X10302D02*
X10474D01*
X9797D02*
X9975D01*
X10825Y3500D02*
X11026D01*
X10302D02*
X10474D01*
X9797D02*
X9975D01*
X10825Y3480D02*
X11026D01*
X10302D02*
X10474D01*
X9797D02*
X9975D01*
X10825Y3460D02*
X11026D01*
X10302D02*
X10474D01*
X9797D02*
X9975D01*
X10825Y3440D02*
X11026D01*
X10302D02*
X10474D01*
X9797D02*
X9975D01*
X10825Y3420D02*
X11026D01*
X10302D02*
X10474D01*
X9797D02*
X9975D01*
X10825Y3400D02*
X11026D01*
X9797D02*
X9975D01*
X10825Y3380D02*
X11026D01*
X9797D02*
X9975D01*
X9772Y2715D02*
X9797D01*
Y2665D02*
Y2715D01*
Y2665D02*
X9822D01*
Y2615D02*
Y2665D01*
Y2615D02*
X9847D01*
Y2590D02*
Y2615D01*
Y2590D02*
X9872D01*
Y2565D02*
Y2590D01*
Y2565D02*
X9897D01*
Y2540D02*
Y2565D01*
Y2540D02*
X9947D01*
Y2515D02*
Y2540D01*
Y2515D02*
X10022D01*
Y2490D02*
Y2515D01*
Y2490D02*
X10127D01*
Y2720D01*
X10052D02*
X10127D01*
X10052D02*
Y2745D01*
X9977D02*
X10052D01*
X9977D02*
Y2770D01*
X9952D02*
X9977D01*
X9952D02*
Y2965D01*
X9977D01*
Y2990D01*
X10027D01*
Y3015D01*
X10172D01*
Y2990D02*
Y3015D01*
Y2990D02*
X10197D01*
Y2965D02*
Y2990D01*
Y2965D02*
X10222D01*
Y2940D02*
Y2965D01*
Y2940D02*
X10247D01*
Y2890D02*
Y2940D01*
Y2890D02*
X10272D01*
Y2840D02*
Y2890D01*
Y2840D02*
X10297D01*
Y2790D02*
Y2840D01*
Y2790D02*
X10322D01*
Y2715D02*
Y2790D01*
Y2715D02*
X10347D01*
Y2665D02*
Y2715D01*
Y2665D02*
X10372D01*
Y2615D02*
Y2665D01*
Y2615D02*
X10397D01*
Y2590D02*
Y2615D01*
Y2590D02*
X10422D01*
Y2540D02*
Y2590D01*
Y2540D02*
X10447D01*
Y2515D02*
Y2540D01*
Y2515D02*
X10497D01*
Y2490D02*
Y2515D01*
Y2490D02*
X10547D01*
Y2465D02*
Y2490D01*
Y2465D02*
X10802D01*
Y2490D01*
X10877D01*
Y2515D01*
X10902D01*
Y2540D01*
X10952D01*
Y2590D01*
X10977D01*
Y2640D01*
X11002D01*
Y2690D01*
X11027D01*
Y2815D01*
X11052D01*
Y2970D01*
X11027D02*
X11052D01*
X11027D02*
Y3070D01*
X11002D02*
X11027D01*
X11002D02*
Y3145D01*
X10977D02*
X11002D01*
X10977D02*
Y3170D01*
X10952D02*
X10977D01*
X10952D02*
Y3195D01*
X10927D02*
X10952D01*
X10927D02*
Y3220D01*
X10877D02*
X10927D01*
X10877D02*
Y3245D01*
X10827D02*
X10877D01*
X10827D02*
Y3270D01*
X10647D02*
X10827D01*
X10647Y3040D02*
Y3270D01*
Y3040D02*
X10747D01*
Y3015D02*
Y3040D01*
Y3015D02*
X10822D01*
Y2990D02*
Y3015D01*
Y2990D02*
X10847D01*
Y2940D02*
Y2990D01*
Y2940D02*
X10872D01*
Y2795D02*
Y2940D01*
X10847Y2795D02*
X10872D01*
X10847Y2745D02*
Y2795D01*
X10822Y2745D02*
X10847D01*
X10822Y2720D02*
Y2745D01*
X10602Y2720D02*
X10822D01*
X10602D02*
Y2745D01*
X10577D02*
X10602D01*
X10577D02*
Y2770D01*
X10552D02*
X10577D01*
X10552D02*
Y2820D01*
X10527D02*
X10552D01*
X10527D02*
Y2870D01*
X10502D02*
X10527D01*
X10502D02*
Y2945D01*
X10477D02*
X10502D01*
X10477D02*
Y3020D01*
X10452D02*
X10477D01*
X10452D02*
Y3070D01*
X10427D02*
X10452D01*
X10427D02*
Y3120D01*
X10402D02*
X10427D01*
X10402D02*
Y3145D01*
X10377D02*
X10402D01*
X10377D02*
Y3170D01*
X10352D02*
X10377D01*
X10352D02*
Y3195D01*
X10327D02*
X10352D01*
X10327D02*
Y3220D01*
X10277D02*
X10327D01*
X10277D02*
Y3245D01*
X9972D02*
X10277D01*
X9972Y3220D02*
Y3245D01*
X9922Y3220D02*
X9972D01*
X9922Y3195D02*
Y3220D01*
X9872Y3195D02*
X9922D01*
X9872Y3170D02*
Y3195D01*
X9847Y3170D02*
X9872D01*
X9847Y3120D02*
Y3170D01*
X9822Y3120D02*
X9847D01*
X9822Y3095D02*
Y3120D01*
X9797Y3095D02*
X9822D01*
X9797Y3020D02*
Y3095D01*
X9772Y3020D02*
X9797D01*
X9772Y2715D02*
Y3020D01*
X10648Y3260D02*
X10826D01*
X10648Y3240D02*
X10874D01*
X9976D02*
X10274D01*
X10648Y3220D02*
X10922D01*
X9924D02*
X10326D01*
X10648Y3200D02*
X10922D01*
X9924D02*
X10326D01*
X10648Y3180D02*
X10950D01*
X9876D02*
X10350D01*
X10648Y3160D02*
X10974D01*
X9852D02*
X10374D01*
X10648Y3140D02*
X10998D01*
X9852D02*
X10398D01*
X10648Y3120D02*
X10998D01*
X9823D02*
X10422D01*
X10648Y3100D02*
X10998D01*
X9823D02*
X10422D01*
X10648Y3080D02*
X10998D01*
X9799D02*
X10422D01*
X10648Y3060D02*
X11022D01*
X9799D02*
X10451D01*
X10749Y3040D02*
X11022D01*
X9799D02*
X10451D01*
X10749Y3020D02*
X11022D01*
X9772D02*
X10475D01*
X10826Y3000D02*
X11022D01*
X10173D02*
X10475D01*
X9772D02*
X10024D01*
X10850Y2980D02*
X11022D01*
X10197D02*
X10475D01*
X9772D02*
X9976D01*
X10850Y2960D02*
X11051D01*
X10226D02*
X10475D01*
X9772D02*
X9947D01*
X10874Y2940D02*
X11051D01*
X10250D02*
X10499D01*
X9772D02*
X9947D01*
X10874Y2920D02*
X11051D01*
X10250D02*
X10499D01*
X9772D02*
X9947D01*
X10874Y2900D02*
X11051D01*
X10250D02*
X10499D01*
X9772D02*
X9947D01*
X10874Y2880D02*
X11051D01*
X10274D02*
X10499D01*
X9772D02*
X9947D01*
X10874Y2860D02*
X11051D01*
X10274D02*
X10523D01*
X9772D02*
X9947D01*
X10874Y2840D02*
X11051D01*
X10298D02*
X10523D01*
X9772D02*
X9947D01*
X10874Y2820D02*
X11051D01*
X10298D02*
X10547D01*
X9772D02*
X9947D01*
X10874Y2800D02*
X11022D01*
X10298D02*
X10547D01*
X9772D02*
X9947D01*
X10850Y2780D02*
X11022D01*
X10322D02*
X10547D01*
X9772D02*
X9947D01*
X10850Y2760D02*
X11022D01*
X10322D02*
X10576D01*
X9772D02*
X9976D01*
X10826Y2740D02*
X11022D01*
X10322D02*
X10600D01*
X9772D02*
X10048D01*
X10322Y2720D02*
X11022D01*
X9772D02*
X10125D01*
X10351Y2700D02*
X11022D01*
X9799D02*
X10125D01*
X10351Y2680D02*
X10998D01*
X9799D02*
X10125D01*
X10375Y2660D02*
X10998D01*
X9823D02*
X10125D01*
X10375Y2640D02*
X10974D01*
X9823D02*
X10125D01*
X10375Y2620D02*
X10974D01*
X9823D02*
X10125D01*
X10399Y2600D02*
X10974D01*
X9852D02*
X10125D01*
X10423Y2580D02*
X10950D01*
X9876D02*
X10125D01*
X10423Y2560D02*
X10950D01*
X9900D02*
X10125D01*
X10447Y2540D02*
X10898D01*
X9948D02*
X10125D01*
X10447Y2520D02*
X10898D01*
X9948D02*
X10125D01*
X10500Y2500D02*
X10874D01*
X10024D02*
X10125D01*
X10548Y2480D02*
X10797D01*
D46*
X9437Y2055D02*
X10812D01*
Y1555D02*
Y2055D01*
Y1555D02*
X11037D01*
Y2330D01*
X9687D02*
X11037D01*
X9687D02*
Y5255D01*
X11012D01*
Y5080D02*
Y5255D01*
X9787Y5080D02*
X11012D01*
X9787Y4780D02*
Y5080D01*
Y4780D02*
X9812D01*
Y4755D02*
Y4780D01*
Y4755D02*
X9887D01*
Y4730D02*
Y4755D01*
Y4730D02*
X9962D01*
Y4705D02*
Y4730D01*
Y4705D02*
X10012D01*
Y4680D02*
Y4705D01*
Y4680D02*
X10087D01*
Y4655D02*
Y4680D01*
Y4655D02*
X10162D01*
Y4630D02*
Y4655D01*
Y4630D02*
X10237D01*
Y4605D02*
Y4630D01*
Y4605D02*
X10312D01*
Y4580D02*
Y4605D01*
Y4580D02*
X10362D01*
Y4555D02*
Y4580D01*
Y4555D02*
X10437D01*
Y4530D02*
Y4555D01*
Y4530D02*
X10512D01*
Y4505D02*
Y4530D01*
Y4505D02*
X10587D01*
Y4480D02*
Y4505D01*
X9787Y4480D02*
X10587D01*
X9787Y4230D02*
Y4480D01*
Y4230D02*
X11037D01*
Y4530D01*
X11012D02*
X11037D01*
X11012D02*
Y4555D01*
X10937D02*
X11012D01*
X10937D02*
Y4580D01*
X10887D02*
X10937D01*
X10887D02*
Y4605D01*
X10812D02*
X10887D01*
X10812D02*
Y4630D01*
X10737D02*
X10812D01*
X10737D02*
Y4655D01*
X10662D02*
X10737D01*
X10662D02*
Y4680D01*
X10587D02*
X10662D01*
X10587D02*
Y4705D01*
X10537D02*
X10587D01*
X10537D02*
Y4730D01*
X10462D02*
X10537D01*
X10462D02*
Y4755D01*
X10387D02*
X10462D01*
X10387D02*
Y4780D01*
X10312D02*
X10387D01*
X10312D02*
Y4805D01*
X10237D02*
X10312D01*
X10237D02*
Y4830D01*
X11262D01*
Y5505D01*
X9437D02*
X11262D01*
X9437Y2055D02*
Y5505D01*
X9787Y3355D02*
X9987D01*
Y3805D01*
X10287D01*
Y3405D02*
Y3805D01*
Y3405D02*
X10487D01*
Y3805D01*
X10812D01*
Y3355D02*
Y3805D01*
Y3355D02*
X11037D01*
Y4080D01*
X9787D02*
X11037D01*
X9787Y3355D02*
Y4080D01*
X9762Y2705D02*
X9787D01*
Y2655D02*
Y2705D01*
Y2655D02*
X9812D01*
Y2605D02*
Y2655D01*
Y2605D02*
X9837D01*
Y2580D02*
Y2605D01*
Y2580D02*
X9862D01*
Y2555D02*
Y2580D01*
Y2555D02*
X9887D01*
Y2530D02*
Y2555D01*
Y2530D02*
X9937D01*
Y2505D02*
Y2530D01*
Y2505D02*
X10012D01*
Y2480D02*
Y2505D01*
Y2480D02*
X10137D01*
Y2730D01*
X10062D02*
X10137D01*
X10062D02*
Y2755D01*
X9987D02*
X10062D01*
X9987D02*
Y2780D01*
X9962D02*
X9987D01*
X9962D02*
Y2955D01*
X9987D01*
Y2980D01*
X10037D01*
Y3005D01*
X10162D01*
Y2980D02*
Y3005D01*
Y2980D02*
X10187D01*
Y2955D02*
Y2980D01*
Y2955D02*
X10212D01*
Y2930D02*
Y2955D01*
Y2930D02*
X10237D01*
Y2880D02*
Y2930D01*
Y2880D02*
X10262D01*
Y2830D02*
Y2880D01*
Y2830D02*
X10287D01*
Y2780D02*
Y2830D01*
Y2780D02*
X10312D01*
Y2705D02*
Y2780D01*
Y2705D02*
X10337D01*
Y2655D02*
Y2705D01*
Y2655D02*
X10362D01*
Y2605D02*
Y2655D01*
Y2605D02*
X10387D01*
Y2580D02*
Y2605D01*
Y2580D02*
X10412D01*
Y2530D02*
Y2580D01*
Y2530D02*
X10437D01*
Y2505D02*
Y2530D01*
Y2505D02*
X10487D01*
Y2480D02*
Y2505D01*
Y2480D02*
X10537D01*
Y2455D02*
Y2480D01*
Y2455D02*
X10812D01*
Y2480D01*
X10887D01*
Y2505D01*
X10912D01*
Y2530D01*
X10962D01*
Y2580D01*
X10987D01*
Y2630D01*
X11012D01*
Y2680D01*
X11037D01*
Y2805D01*
X11062D01*
Y2980D01*
X11037D02*
X11062D01*
X11037D02*
Y3080D01*
X11012D02*
X11037D01*
X11012D02*
Y3155D01*
X10987D02*
X11012D01*
X10987D02*
Y3180D01*
X10962D02*
X10987D01*
X10962D02*
Y3205D01*
X10937D02*
X10962D01*
X10937D02*
Y3230D01*
X10887D02*
X10937D01*
X10887D02*
Y3255D01*
X10837D02*
X10887D01*
X10837D02*
Y3280D01*
X10637D02*
X10837D01*
X10637Y3030D02*
Y3280D01*
Y3030D02*
X10737D01*
Y3005D02*
Y3030D01*
Y3005D02*
X10812D01*
Y2980D02*
Y3005D01*
Y2980D02*
X10837D01*
Y2930D02*
Y2980D01*
Y2930D02*
X10862D01*
Y2805D02*
Y2930D01*
X10837Y2805D02*
X10862D01*
X10837Y2755D02*
Y2805D01*
X10812Y2755D02*
X10837D01*
X10812Y2730D02*
Y2755D01*
X10612Y2730D02*
X10812D01*
X10612D02*
Y2755D01*
X10587D02*
X10612D01*
X10587D02*
Y2780D01*
X10562D02*
X10587D01*
X10562D02*
Y2830D01*
X10537D02*
X10562D01*
X10537D02*
Y2880D01*
X10512D02*
X10537D01*
X10512D02*
Y2955D01*
X10487D02*
X10512D01*
X10487D02*
Y3030D01*
X10462D02*
X10487D01*
X10462D02*
Y3080D01*
X10437D02*
X10462D01*
X10437D02*
Y3130D01*
X10412D02*
X10437D01*
X10412D02*
Y3155D01*
X10387D02*
X10412D01*
X10387D02*
Y3180D01*
X10362D02*
X10387D01*
X10362D02*
Y3205D01*
X10337D02*
X10362D01*
X10337D02*
Y3230D01*
X10287D02*
X10337D01*
X10287D02*
Y3255D01*
X9962D02*
X10287D01*
X9962Y3230D02*
Y3255D01*
X9912Y3230D02*
X9962D01*
X9912Y3205D02*
Y3230D01*
X9862Y3205D02*
X9912D01*
X9862Y3180D02*
Y3205D01*
X9837Y3180D02*
X9862D01*
X9837Y3130D02*
Y3180D01*
X9812Y3130D02*
X9837D01*
X9812Y3105D02*
Y3130D01*
X9787Y3105D02*
X9812D01*
X9787Y3030D02*
Y3105D01*
X9762Y3030D02*
X9787D01*
X9762Y2705D02*
Y3030D01*
M02*
