M48
;Layer_Color=9474304
;FILE_FORMAT=2:4
INCH,LZ
;TYPE=PLATED
T1F00S00C0.0160
T2F00S00C0.0360
%
T01
X02125Y03625
Y03675
X02175
Y03725
Y03775
X02225
Y03725
Y03675
Y03625
X02175
X0245Y036
Y03675
Y0375
X02575
Y03675
Y036
X02775Y03675
Y03725
Y03775
X0285
Y03725
Y03675
X02845Y03485
X0289
Y0339
X02845
T02
X0205Y0345
Y0355
Y0365
Y0385
Y0395
Y0405
Y0415
X0215
X0225
Y0405
X0215
Y0395
X0225
Y0385
X0215
X0235
X0245
X0255
Y0395
X0245
Y0405
X0255
Y0415
X0245
X0235
Y0405
Y0395
X0265
X0275
Y0385
X0285
X0295
Y0395
Y0405
Y0415
X0285
Y0405
Y0395
X0275Y0405
Y0415
X0265
Y0405
Y0385
X0295Y037
Y036
Y035
Y034
M30
