%FSLAX24Y24*%
%MOIN*%
G70*
G01*
G75*
G04 Layer_Physical_Order=2*
G04 Layer_Color=16711680*
%ADD10R,0.0433X0.0394*%
%ADD11R,0.0394X0.0433*%
%ADD12O,0.0807X0.0236*%
%ADD13C,0.0150*%
%ADD14C,0.0080*%
%ADD15C,0.0100*%
%ADD16R,0.0591X0.0591*%
%ADD17C,0.0591*%
%ADD18C,0.0320*%
%ADD19R,0.1000X0.2300*%
G36*
X30550Y32783D02*
X30515Y32748D01*
X25950Y32750D01*
Y32460D01*
X24950D01*
Y32750D01*
X19685Y32748D01*
X19650Y32783D01*
Y42450D01*
X30550D01*
Y32783D01*
D02*
G37*
%LPC*%
G36*
X29460Y38460D02*
X29145D01*
Y38145D01*
X29460D01*
Y38460D01*
D02*
G37*
G36*
X29855D02*
X29540D01*
Y38145D01*
X29855D01*
Y38460D01*
D02*
G37*
G36*
X29460Y38855D02*
X29145D01*
Y38540D01*
X29460D01*
Y38855D01*
D02*
G37*
G36*
X20855D02*
X20145D01*
Y38145D01*
X20855D01*
Y38855D01*
D02*
G37*
G36*
X26500Y38858D02*
X26407Y38846D01*
X26321Y38810D01*
X26247Y38753D01*
X26190Y38679D01*
X26154Y38593D01*
X26142Y38500D01*
X26154Y38407D01*
X26190Y38321D01*
X26247Y38247D01*
X26321Y38190D01*
X26407Y38154D01*
X26500Y38142D01*
X26593Y38154D01*
X26679Y38190D01*
X26753Y38247D01*
X26810Y38321D01*
X26846Y38407D01*
X26858Y38500D01*
X26846Y38593D01*
X26810Y38679D01*
X26753Y38753D01*
X26679Y38810D01*
X26593Y38846D01*
X26500Y38858D01*
D02*
G37*
G36*
X27500D02*
X27407Y38846D01*
X27321Y38810D01*
X27247Y38753D01*
X27190Y38679D01*
X27154Y38593D01*
X27142Y38500D01*
X27154Y38407D01*
X27190Y38321D01*
X27247Y38247D01*
X27321Y38190D01*
X27407Y38154D01*
X27500Y38142D01*
X27593Y38154D01*
X27679Y38190D01*
X27753Y38247D01*
X27810Y38321D01*
X27846Y38407D01*
X27858Y38500D01*
X27846Y38593D01*
X27810Y38679D01*
X27753Y38753D01*
X27679Y38810D01*
X27593Y38846D01*
X27500Y38858D01*
D02*
G37*
G36*
X28500D02*
X28407Y38846D01*
X28321Y38810D01*
X28247Y38753D01*
X28190Y38679D01*
X28154Y38593D01*
X28142Y38500D01*
X28154Y38407D01*
X28190Y38321D01*
X28247Y38247D01*
X28321Y38190D01*
X28407Y38154D01*
X28500Y38142D01*
X28593Y38154D01*
X28679Y38190D01*
X28753Y38247D01*
X28810Y38321D01*
X28846Y38407D01*
X28858Y38500D01*
X28846Y38593D01*
X28810Y38679D01*
X28753Y38753D01*
X28679Y38810D01*
X28593Y38846D01*
X28500Y38858D01*
D02*
G37*
G36*
X29855Y38855D02*
X29540D01*
Y38540D01*
X29855D01*
Y38855D01*
D02*
G37*
G36*
X25500Y39858D02*
X25407Y39846D01*
X25321Y39810D01*
X25247Y39753D01*
X25190Y39679D01*
X25154Y39593D01*
X25142Y39500D01*
X25154Y39407D01*
X25190Y39321D01*
X25247Y39247D01*
X25321Y39190D01*
X25407Y39154D01*
X25500Y39142D01*
X25593Y39154D01*
X25679Y39190D01*
X25753Y39247D01*
X25810Y39321D01*
X25846Y39407D01*
X25858Y39500D01*
X25846Y39593D01*
X25810Y39679D01*
X25753Y39753D01*
X25679Y39810D01*
X25593Y39846D01*
X25500Y39858D01*
D02*
G37*
G36*
X26500D02*
X26407Y39846D01*
X26321Y39810D01*
X26247Y39753D01*
X26190Y39679D01*
X26154Y39593D01*
X26142Y39500D01*
X26154Y39407D01*
X26190Y39321D01*
X26247Y39247D01*
X26321Y39190D01*
X26407Y39154D01*
X26500Y39142D01*
X26593Y39154D01*
X26679Y39190D01*
X26753Y39247D01*
X26810Y39321D01*
X26846Y39407D01*
X26858Y39500D01*
X26846Y39593D01*
X26810Y39679D01*
X26753Y39753D01*
X26679Y39810D01*
X26593Y39846D01*
X26500Y39858D01*
D02*
G37*
G36*
X27500D02*
X27407Y39846D01*
X27321Y39810D01*
X27247Y39753D01*
X27190Y39679D01*
X27154Y39593D01*
X27142Y39500D01*
X27154Y39407D01*
X27190Y39321D01*
X27247Y39247D01*
X27321Y39190D01*
X27407Y39154D01*
X27500Y39142D01*
X27593Y39154D01*
X27679Y39190D01*
X27753Y39247D01*
X27810Y39321D01*
X27846Y39407D01*
X27858Y39500D01*
X27846Y39593D01*
X27810Y39679D01*
X27753Y39753D01*
X27679Y39810D01*
X27593Y39846D01*
X27500Y39858D01*
D02*
G37*
G36*
X24500D02*
X24407Y39846D01*
X24321Y39810D01*
X24247Y39753D01*
X24190Y39679D01*
X24154Y39593D01*
X24142Y39500D01*
X24154Y39407D01*
X24190Y39321D01*
X24247Y39247D01*
X24321Y39190D01*
X24407Y39154D01*
X24500Y39142D01*
X24593Y39154D01*
X24679Y39190D01*
X24753Y39247D01*
X24810Y39321D01*
X24846Y39407D01*
X24858Y39500D01*
X24846Y39593D01*
X24810Y39679D01*
X24753Y39753D01*
X24679Y39810D01*
X24593Y39846D01*
X24500Y39858D01*
D02*
G37*
G36*
X21500D02*
X21407Y39846D01*
X21321Y39810D01*
X21247Y39753D01*
X21190Y39679D01*
X21154Y39593D01*
X21142Y39500D01*
X21154Y39407D01*
X21190Y39321D01*
X21247Y39247D01*
X21321Y39190D01*
X21407Y39154D01*
X21500Y39142D01*
X21593Y39154D01*
X21679Y39190D01*
X21753Y39247D01*
X21810Y39321D01*
X21846Y39407D01*
X21858Y39500D01*
X21846Y39593D01*
X21810Y39679D01*
X21753Y39753D01*
X21679Y39810D01*
X21593Y39846D01*
X21500Y39858D01*
D02*
G37*
G36*
X22500D02*
X22407Y39846D01*
X22321Y39810D01*
X22247Y39753D01*
X22190Y39679D01*
X22154Y39593D01*
X22142Y39500D01*
X22154Y39407D01*
X22190Y39321D01*
X22247Y39247D01*
X22321Y39190D01*
X22407Y39154D01*
X22500Y39142D01*
X22593Y39154D01*
X22679Y39190D01*
X22753Y39247D01*
X22810Y39321D01*
X22846Y39407D01*
X22858Y39500D01*
X22846Y39593D01*
X22810Y39679D01*
X22753Y39753D01*
X22679Y39810D01*
X22593Y39846D01*
X22500Y39858D01*
D02*
G37*
G36*
X23500D02*
X23407Y39846D01*
X23321Y39810D01*
X23247Y39753D01*
X23190Y39679D01*
X23154Y39593D01*
X23142Y39500D01*
X23154Y39407D01*
X23190Y39321D01*
X23247Y39247D01*
X23321Y39190D01*
X23407Y39154D01*
X23500Y39142D01*
X23593Y39154D01*
X23679Y39190D01*
X23753Y39247D01*
X23810Y39321D01*
X23846Y39407D01*
X23858Y39500D01*
X23846Y39593D01*
X23810Y39679D01*
X23753Y39753D01*
X23679Y39810D01*
X23593Y39846D01*
X23500Y39858D01*
D02*
G37*
G36*
X29500Y36358D02*
X29407Y36346D01*
X29321Y36310D01*
X29247Y36253D01*
X29190Y36179D01*
X29154Y36093D01*
X29142Y36000D01*
X29154Y35907D01*
X29190Y35821D01*
X29247Y35747D01*
X29321Y35690D01*
X29407Y35654D01*
X29500Y35642D01*
X29593Y35654D01*
X29679Y35690D01*
X29753Y35747D01*
X29810Y35821D01*
X29846Y35907D01*
X29858Y36000D01*
X29846Y36093D01*
X29810Y36179D01*
X29753Y36253D01*
X29679Y36310D01*
X29593Y36346D01*
X29500Y36358D01*
D02*
G37*
G36*
X20500Y36858D02*
X20407Y36846D01*
X20321Y36810D01*
X20247Y36753D01*
X20190Y36679D01*
X20154Y36593D01*
X20142Y36500D01*
X20154Y36407D01*
X20190Y36321D01*
X20247Y36247D01*
X20321Y36190D01*
X20407Y36154D01*
X20500Y36142D01*
X20593Y36154D01*
X20679Y36190D01*
X20753Y36247D01*
X20810Y36321D01*
X20846Y36407D01*
X20858Y36500D01*
X20846Y36593D01*
X20810Y36679D01*
X20753Y36753D01*
X20679Y36810D01*
X20593Y36846D01*
X20500Y36858D01*
D02*
G37*
G36*
X29460Y36960D02*
X29145D01*
Y36645D01*
X29460D01*
Y36960D01*
D02*
G37*
G36*
X20500Y35858D02*
X20407Y35846D01*
X20321Y35810D01*
X20247Y35753D01*
X20190Y35679D01*
X20154Y35593D01*
X20142Y35500D01*
X20154Y35407D01*
X20190Y35321D01*
X20247Y35247D01*
X20321Y35190D01*
X20407Y35154D01*
X20500Y35142D01*
X20593Y35154D01*
X20679Y35190D01*
X20753Y35247D01*
X20810Y35321D01*
X20846Y35407D01*
X20858Y35500D01*
X20846Y35593D01*
X20810Y35679D01*
X20753Y35753D01*
X20679Y35810D01*
X20593Y35846D01*
X20500Y35858D01*
D02*
G37*
G36*
X29500Y34358D02*
X29407Y34346D01*
X29321Y34310D01*
X29247Y34253D01*
X29190Y34179D01*
X29154Y34093D01*
X29142Y34000D01*
X29154Y33907D01*
X29190Y33821D01*
X29247Y33747D01*
X29321Y33690D01*
X29407Y33654D01*
X29500Y33642D01*
X29593Y33654D01*
X29679Y33690D01*
X29753Y33747D01*
X29810Y33821D01*
X29846Y33907D01*
X29858Y34000D01*
X29846Y34093D01*
X29810Y34179D01*
X29753Y34253D01*
X29679Y34310D01*
X29593Y34346D01*
X29500Y34358D01*
D02*
G37*
G36*
X20855Y34855D02*
X20145D01*
Y34145D01*
X20855D01*
Y34855D01*
D02*
G37*
G36*
X29500Y35358D02*
X29407Y35346D01*
X29321Y35310D01*
X29247Y35253D01*
X29190Y35179D01*
X29154Y35093D01*
X29142Y35000D01*
X29154Y34907D01*
X29190Y34821D01*
X29247Y34747D01*
X29321Y34690D01*
X29407Y34654D01*
X29500Y34642D01*
X29593Y34654D01*
X29679Y34690D01*
X29753Y34747D01*
X29810Y34821D01*
X29846Y34907D01*
X29858Y35000D01*
X29846Y35093D01*
X29810Y35179D01*
X29753Y35253D01*
X29679Y35310D01*
X29593Y35346D01*
X29500Y35358D01*
D02*
G37*
G36*
X29855Y36960D02*
X29540D01*
Y36645D01*
X29855D01*
Y36960D01*
D02*
G37*
G36*
X23500Y38858D02*
X23407Y38846D01*
X23321Y38810D01*
X23247Y38753D01*
X23190Y38679D01*
X23154Y38593D01*
X23142Y38500D01*
X23154Y38407D01*
X23190Y38321D01*
X23247Y38247D01*
X23321Y38190D01*
X23407Y38154D01*
X23500Y38142D01*
X23593Y38154D01*
X23679Y38190D01*
X23753Y38247D01*
X23810Y38321D01*
X23846Y38407D01*
X23858Y38500D01*
X23846Y38593D01*
X23810Y38679D01*
X23753Y38753D01*
X23679Y38810D01*
X23593Y38846D01*
X23500Y38858D01*
D02*
G37*
G36*
X24500D02*
X24407Y38846D01*
X24321Y38810D01*
X24247Y38753D01*
X24190Y38679D01*
X24154Y38593D01*
X24142Y38500D01*
X24154Y38407D01*
X24190Y38321D01*
X24247Y38247D01*
X24321Y38190D01*
X24407Y38154D01*
X24500Y38142D01*
X24593Y38154D01*
X24679Y38190D01*
X24753Y38247D01*
X24810Y38321D01*
X24846Y38407D01*
X24858Y38500D01*
X24846Y38593D01*
X24810Y38679D01*
X24753Y38753D01*
X24679Y38810D01*
X24593Y38846D01*
X24500Y38858D01*
D02*
G37*
G36*
X25500D02*
X25407Y38846D01*
X25321Y38810D01*
X25247Y38753D01*
X25190Y38679D01*
X25154Y38593D01*
X25142Y38500D01*
X25154Y38407D01*
X25190Y38321D01*
X25247Y38247D01*
X25321Y38190D01*
X25407Y38154D01*
X25500Y38142D01*
X25593Y38154D01*
X25679Y38190D01*
X25753Y38247D01*
X25810Y38321D01*
X25846Y38407D01*
X25858Y38500D01*
X25846Y38593D01*
X25810Y38679D01*
X25753Y38753D01*
X25679Y38810D01*
X25593Y38846D01*
X25500Y38858D01*
D02*
G37*
G36*
X22500D02*
X22407Y38846D01*
X22321Y38810D01*
X22247Y38753D01*
X22190Y38679D01*
X22154Y38593D01*
X22142Y38500D01*
X22154Y38407D01*
X22190Y38321D01*
X22247Y38247D01*
X22321Y38190D01*
X22407Y38154D01*
X22500Y38142D01*
X22593Y38154D01*
X22679Y38190D01*
X22753Y38247D01*
X22810Y38321D01*
X22846Y38407D01*
X22858Y38500D01*
X22846Y38593D01*
X22810Y38679D01*
X22753Y38753D01*
X22679Y38810D01*
X22593Y38846D01*
X22500Y38858D01*
D02*
G37*
G36*
X29460Y37355D02*
X29145D01*
Y37040D01*
X29460D01*
Y37355D01*
D02*
G37*
G36*
X29855D02*
X29540D01*
Y37040D01*
X29855D01*
Y37355D01*
D02*
G37*
G36*
X21500Y38858D02*
X21407Y38846D01*
X21321Y38810D01*
X21247Y38753D01*
X21190Y38679D01*
X21154Y38593D01*
X21142Y38500D01*
X21154Y38407D01*
X21190Y38321D01*
X21247Y38247D01*
X21321Y38190D01*
X21407Y38154D01*
X21500Y38142D01*
X21593Y38154D01*
X21679Y38190D01*
X21753Y38247D01*
X21810Y38321D01*
X21846Y38407D01*
X21858Y38500D01*
X21846Y38593D01*
X21810Y38679D01*
X21753Y38753D01*
X21679Y38810D01*
X21593Y38846D01*
X21500Y38858D01*
D02*
G37*
G36*
X28500Y39858D02*
X28407Y39846D01*
X28321Y39810D01*
X28247Y39753D01*
X28190Y39679D01*
X28154Y39593D01*
X28142Y39500D01*
X28154Y39407D01*
X28190Y39321D01*
X28247Y39247D01*
X28321Y39190D01*
X28407Y39154D01*
X28500Y39142D01*
X28593Y39154D01*
X28679Y39190D01*
X28753Y39247D01*
X28810Y39321D01*
X28846Y39407D01*
X28858Y39500D01*
X28846Y39593D01*
X28810Y39679D01*
X28753Y39753D01*
X28679Y39810D01*
X28593Y39846D01*
X28500Y39858D01*
D02*
G37*
G36*
X23500Y41858D02*
X23407Y41846D01*
X23321Y41810D01*
X23247Y41753D01*
X23190Y41679D01*
X23154Y41593D01*
X23142Y41500D01*
X23154Y41407D01*
X23190Y41321D01*
X23247Y41247D01*
X23321Y41190D01*
X23407Y41154D01*
X23500Y41142D01*
X23593Y41154D01*
X23679Y41190D01*
X23753Y41247D01*
X23810Y41321D01*
X23846Y41407D01*
X23858Y41500D01*
X23846Y41593D01*
X23810Y41679D01*
X23753Y41753D01*
X23679Y41810D01*
X23593Y41846D01*
X23500Y41858D01*
D02*
G37*
G36*
X24500D02*
X24407Y41846D01*
X24321Y41810D01*
X24247Y41753D01*
X24190Y41679D01*
X24154Y41593D01*
X24142Y41500D01*
X24154Y41407D01*
X24190Y41321D01*
X24247Y41247D01*
X24321Y41190D01*
X24407Y41154D01*
X24500Y41142D01*
X24593Y41154D01*
X24679Y41190D01*
X24753Y41247D01*
X24810Y41321D01*
X24846Y41407D01*
X24858Y41500D01*
X24846Y41593D01*
X24810Y41679D01*
X24753Y41753D01*
X24679Y41810D01*
X24593Y41846D01*
X24500Y41858D01*
D02*
G37*
G36*
X25500D02*
X25407Y41846D01*
X25321Y41810D01*
X25247Y41753D01*
X25190Y41679D01*
X25154Y41593D01*
X25142Y41500D01*
X25154Y41407D01*
X25190Y41321D01*
X25247Y41247D01*
X25321Y41190D01*
X25407Y41154D01*
X25500Y41142D01*
X25593Y41154D01*
X25679Y41190D01*
X25753Y41247D01*
X25810Y41321D01*
X25846Y41407D01*
X25858Y41500D01*
X25846Y41593D01*
X25810Y41679D01*
X25753Y41753D01*
X25679Y41810D01*
X25593Y41846D01*
X25500Y41858D01*
D02*
G37*
G36*
X22500D02*
X22407Y41846D01*
X22321Y41810D01*
X22247Y41753D01*
X22190Y41679D01*
X22154Y41593D01*
X22142Y41500D01*
X22154Y41407D01*
X22190Y41321D01*
X22247Y41247D01*
X22321Y41190D01*
X22407Y41154D01*
X22500Y41142D01*
X22593Y41154D01*
X22679Y41190D01*
X22753Y41247D01*
X22810Y41321D01*
X22846Y41407D01*
X22858Y41500D01*
X22846Y41593D01*
X22810Y41679D01*
X22753Y41753D01*
X22679Y41810D01*
X22593Y41846D01*
X22500Y41858D01*
D02*
G37*
G36*
X29460Y40855D02*
X29145D01*
Y40540D01*
X29460D01*
Y40855D01*
D02*
G37*
G36*
X29855D02*
X29540D01*
Y40540D01*
X29855D01*
Y40855D01*
D02*
G37*
G36*
X21500Y41858D02*
X21407Y41846D01*
X21321Y41810D01*
X21247Y41753D01*
X21190Y41679D01*
X21154Y41593D01*
X21142Y41500D01*
X21154Y41407D01*
X21190Y41321D01*
X21247Y41247D01*
X21321Y41190D01*
X21407Y41154D01*
X21500Y41142D01*
X21593Y41154D01*
X21679Y41190D01*
X21753Y41247D01*
X21810Y41321D01*
X21846Y41407D01*
X21858Y41500D01*
X21846Y41593D01*
X21810Y41679D01*
X21753Y41753D01*
X21679Y41810D01*
X21593Y41846D01*
X21500Y41858D01*
D02*
G37*
G36*
X26500D02*
X26407Y41846D01*
X26321Y41810D01*
X26247Y41753D01*
X26190Y41679D01*
X26154Y41593D01*
X26142Y41500D01*
X26154Y41407D01*
X26190Y41321D01*
X26247Y41247D01*
X26321Y41190D01*
X26407Y41154D01*
X26500Y41142D01*
X26593Y41154D01*
X26679Y41190D01*
X26753Y41247D01*
X26810Y41321D01*
X26846Y41407D01*
X26858Y41500D01*
X26846Y41593D01*
X26810Y41679D01*
X26753Y41753D01*
X26679Y41810D01*
X26593Y41846D01*
X26500Y41858D01*
D02*
G37*
G36*
X29855Y41460D02*
X29540D01*
Y41145D01*
X29855D01*
Y41460D01*
D02*
G37*
G36*
X29460Y41855D02*
X29145D01*
Y41540D01*
X29460D01*
Y41855D01*
D02*
G37*
G36*
X29855D02*
X29540D01*
Y41540D01*
X29855D01*
Y41855D01*
D02*
G37*
G36*
X29460Y41460D02*
X29145D01*
Y41145D01*
X29460D01*
Y41460D01*
D02*
G37*
G36*
X27500Y41858D02*
X27407Y41846D01*
X27321Y41810D01*
X27247Y41753D01*
X27190Y41679D01*
X27154Y41593D01*
X27142Y41500D01*
X27154Y41407D01*
X27190Y41321D01*
X27247Y41247D01*
X27321Y41190D01*
X27407Y41154D01*
X27500Y41142D01*
X27593Y41154D01*
X27679Y41190D01*
X27753Y41247D01*
X27810Y41321D01*
X27846Y41407D01*
X27858Y41500D01*
X27846Y41593D01*
X27810Y41679D01*
X27753Y41753D01*
X27679Y41810D01*
X27593Y41846D01*
X27500Y41858D01*
D02*
G37*
G36*
X28500D02*
X28407Y41846D01*
X28321Y41810D01*
X28247Y41753D01*
X28190Y41679D01*
X28154Y41593D01*
X28142Y41500D01*
X28154Y41407D01*
X28190Y41321D01*
X28247Y41247D01*
X28321Y41190D01*
X28407Y41154D01*
X28500Y41142D01*
X28593Y41154D01*
X28679Y41190D01*
X28753Y41247D01*
X28810Y41321D01*
X28846Y41407D01*
X28858Y41500D01*
X28846Y41593D01*
X28810Y41679D01*
X28753Y41753D01*
X28679Y41810D01*
X28593Y41846D01*
X28500Y41858D01*
D02*
G37*
G36*
X20855Y41855D02*
X20145D01*
Y41145D01*
X20855D01*
Y41855D01*
D02*
G37*
G36*
X29855Y40460D02*
X29540D01*
Y40145D01*
X29855D01*
Y40460D01*
D02*
G37*
G36*
Y39855D02*
X29540D01*
Y39540D01*
X29855D01*
Y39855D01*
D02*
G37*
G36*
X21500Y40858D02*
X21407Y40846D01*
X21321Y40810D01*
X21247Y40753D01*
X21190Y40679D01*
X21154Y40593D01*
X21142Y40500D01*
X21154Y40407D01*
X21190Y40321D01*
X21247Y40247D01*
X21321Y40190D01*
X21407Y40154D01*
X21500Y40142D01*
X21593Y40154D01*
X21679Y40190D01*
X21753Y40247D01*
X21810Y40321D01*
X21846Y40407D01*
X21858Y40500D01*
X21846Y40593D01*
X21810Y40679D01*
X21753Y40753D01*
X21679Y40810D01*
X21593Y40846D01*
X21500Y40858D01*
D02*
G37*
G36*
X22500D02*
X22407Y40846D01*
X22321Y40810D01*
X22247Y40753D01*
X22190Y40679D01*
X22154Y40593D01*
X22142Y40500D01*
X22154Y40407D01*
X22190Y40321D01*
X22247Y40247D01*
X22321Y40190D01*
X22407Y40154D01*
X22500Y40142D01*
X22593Y40154D01*
X22679Y40190D01*
X22753Y40247D01*
X22810Y40321D01*
X22846Y40407D01*
X22858Y40500D01*
X22846Y40593D01*
X22810Y40679D01*
X22753Y40753D01*
X22679Y40810D01*
X22593Y40846D01*
X22500Y40858D01*
D02*
G37*
G36*
X29460Y39855D02*
X29145D01*
Y39540D01*
X29460D01*
Y39855D01*
D02*
G37*
G36*
X20855D02*
X20145D01*
Y39145D01*
X20855D01*
Y39855D01*
D02*
G37*
G36*
X29460Y39460D02*
X29145D01*
Y39145D01*
X29460D01*
Y39460D01*
D02*
G37*
G36*
X29855D02*
X29540D01*
Y39145D01*
X29855D01*
Y39460D01*
D02*
G37*
G36*
X23500Y40858D02*
X23407Y40846D01*
X23321Y40810D01*
X23247Y40753D01*
X23190Y40679D01*
X23154Y40593D01*
X23142Y40500D01*
X23154Y40407D01*
X23190Y40321D01*
X23247Y40247D01*
X23321Y40190D01*
X23407Y40154D01*
X23500Y40142D01*
X23593Y40154D01*
X23679Y40190D01*
X23753Y40247D01*
X23810Y40321D01*
X23846Y40407D01*
X23858Y40500D01*
X23846Y40593D01*
X23810Y40679D01*
X23753Y40753D01*
X23679Y40810D01*
X23593Y40846D01*
X23500Y40858D01*
D02*
G37*
G36*
X28500D02*
X28407Y40846D01*
X28321Y40810D01*
X28247Y40753D01*
X28190Y40679D01*
X28154Y40593D01*
X28142Y40500D01*
X28154Y40407D01*
X28190Y40321D01*
X28247Y40247D01*
X28321Y40190D01*
X28407Y40154D01*
X28500Y40142D01*
X28593Y40154D01*
X28679Y40190D01*
X28753Y40247D01*
X28810Y40321D01*
X28846Y40407D01*
X28858Y40500D01*
X28846Y40593D01*
X28810Y40679D01*
X28753Y40753D01*
X28679Y40810D01*
X28593Y40846D01*
X28500Y40858D01*
D02*
G37*
G36*
X20855Y40855D02*
X20145D01*
Y40145D01*
X20855D01*
Y40855D01*
D02*
G37*
G36*
X29460Y40460D02*
X29145D01*
Y40145D01*
X29460D01*
Y40460D01*
D02*
G37*
G36*
X27500Y40858D02*
X27407Y40846D01*
X27321Y40810D01*
X27247Y40753D01*
X27190Y40679D01*
X27154Y40593D01*
X27142Y40500D01*
X27154Y40407D01*
X27190Y40321D01*
X27247Y40247D01*
X27321Y40190D01*
X27407Y40154D01*
X27500Y40142D01*
X27593Y40154D01*
X27679Y40190D01*
X27753Y40247D01*
X27810Y40321D01*
X27846Y40407D01*
X27858Y40500D01*
X27846Y40593D01*
X27810Y40679D01*
X27753Y40753D01*
X27679Y40810D01*
X27593Y40846D01*
X27500Y40858D01*
D02*
G37*
G36*
X24500D02*
X24407Y40846D01*
X24321Y40810D01*
X24247Y40753D01*
X24190Y40679D01*
X24154Y40593D01*
X24142Y40500D01*
X24154Y40407D01*
X24190Y40321D01*
X24247Y40247D01*
X24321Y40190D01*
X24407Y40154D01*
X24500Y40142D01*
X24593Y40154D01*
X24679Y40190D01*
X24753Y40247D01*
X24810Y40321D01*
X24846Y40407D01*
X24858Y40500D01*
X24846Y40593D01*
X24810Y40679D01*
X24753Y40753D01*
X24679Y40810D01*
X24593Y40846D01*
X24500Y40858D01*
D02*
G37*
G36*
X25500D02*
X25407Y40846D01*
X25321Y40810D01*
X25247Y40753D01*
X25190Y40679D01*
X25154Y40593D01*
X25142Y40500D01*
X25154Y40407D01*
X25190Y40321D01*
X25247Y40247D01*
X25321Y40190D01*
X25407Y40154D01*
X25500Y40142D01*
X25593Y40154D01*
X25679Y40190D01*
X25753Y40247D01*
X25810Y40321D01*
X25846Y40407D01*
X25858Y40500D01*
X25846Y40593D01*
X25810Y40679D01*
X25753Y40753D01*
X25679Y40810D01*
X25593Y40846D01*
X25500Y40858D01*
D02*
G37*
G36*
X26500D02*
X26407Y40846D01*
X26321Y40810D01*
X26247Y40753D01*
X26190Y40679D01*
X26154Y40593D01*
X26142Y40500D01*
X26154Y40407D01*
X26190Y40321D01*
X26247Y40247D01*
X26321Y40190D01*
X26407Y40154D01*
X26500Y40142D01*
X26593Y40154D01*
X26679Y40190D01*
X26753Y40247D01*
X26810Y40321D01*
X26846Y40407D01*
X26858Y40500D01*
X26846Y40593D01*
X26810Y40679D01*
X26753Y40753D01*
X26679Y40810D01*
X26593Y40846D01*
X26500Y40858D01*
D02*
G37*
%LPD*%
D13*
X25050Y32350D02*
Y32500D01*
X25850Y32300D02*
Y32500D01*
X25600Y32350D02*
Y32500D01*
X25300Y32350D02*
Y32500D01*
D16*
X29500Y37000D02*
D03*
X20500Y34500D02*
D03*
X29500Y41500D02*
D03*
Y40500D02*
D03*
Y39500D02*
D03*
Y38500D02*
D03*
X20500Y40500D02*
D03*
Y39500D02*
D03*
Y38500D02*
D03*
Y41500D02*
D03*
D17*
X29500Y36000D02*
D03*
Y35000D02*
D03*
Y34000D02*
D03*
X20500Y36500D02*
D03*
Y35500D02*
D03*
X21500Y41500D02*
D03*
X22500D02*
D03*
X21500Y40500D02*
D03*
X22500D02*
D03*
Y39500D02*
D03*
X21500D02*
D03*
Y38500D02*
D03*
X22500D02*
D03*
X25500D02*
D03*
X24500D02*
D03*
Y39500D02*
D03*
X25500D02*
D03*
Y40500D02*
D03*
X24500D02*
D03*
X25500Y41500D02*
D03*
X24500D02*
D03*
X23500D02*
D03*
Y38500D02*
D03*
Y39500D02*
D03*
Y40500D02*
D03*
X28500Y38500D02*
D03*
X27500D02*
D03*
Y39500D02*
D03*
X28500D02*
D03*
Y40500D02*
D03*
X27500D02*
D03*
X28500Y41500D02*
D03*
X27500D02*
D03*
X26500D02*
D03*
Y38500D02*
D03*
Y39500D02*
D03*
Y40500D02*
D03*
D18*
X21750Y37750D02*
D03*
X22250D02*
D03*
Y37250D02*
D03*
X21750D02*
D03*
Y36750D02*
D03*
X22250D02*
D03*
X21250D02*
D03*
Y36250D02*
D03*
X21750D02*
D03*
X22250D02*
D03*
X27750Y37750D02*
D03*
X28500D02*
D03*
Y37250D02*
D03*
X27750D02*
D03*
Y36750D02*
D03*
X28500D02*
D03*
X24500Y37500D02*
D03*
X25750D02*
D03*
Y36750D02*
D03*
X24500D02*
D03*
Y36000D02*
D03*
X25750D02*
D03*
X28450Y34850D02*
D03*
Y33900D02*
D03*
X28900D02*
D03*
Y34850D02*
D03*
D19*
X25450Y31250D02*
D03*
M02*
