M48
;Layer_Color=9474304
;FILE_FORMAT=2:4
INCH,LZ
;TYPE=PLATED
T1F00S00C0.0080
T2F00S00C0.0300
T3F00S00C0.0330
T4F00S00C0.0354
T5F00S00C0.0370
T6F00S00C0.0535
T7F00S00C0.0670
T8F00S00C0.1259
T9F00S00C0.2510
%
T01
X03245Y02725
X0328
Y0276
X03245
X032056Y0282
X03305Y0289
X03285Y0291
X03315Y0305
X03365Y030509
X03404
X0328Y030789
X0316Y03115
X0373Y0307
X0385
Y0293
X0373
X03015Y0286
X02965
X02942Y03033
Y03078
X03001Y03077
X03002Y03034
X02881Y03035
Y03078
X02554Y03055
X025
X02464
X02424
Y03105
X02464
X02499
X022Y0311
X0219Y03035
X02155
X0196Y0305
Y0302
X02Y02935
Y0288
X0201Y02835
X01945Y0276
X01895
X0178Y02815
Y02847
X01775Y02675
X0181
X0191Y0292
X0184Y0305
X0178Y0311
X0166Y03055
X016
X0163Y0288
X021044Y0274
X0222Y027
X0228
X0234
X024
X0246
X02565
X02765Y02695
X02815Y02691
X02865
X0291
X02725Y0318
Y03305
X02765Y03345
X02725Y03415
X0284Y03385
X0263Y03531
Y03571
X0251Y0362
X02505Y03475
X02257Y03441
X02255Y03405
X02215
X0218Y0358
X0224Y03771
Y03816
X0235
Y03771
X02425Y03786
Y03816
X0246
X0259Y03885
X026481Y03881
X026467Y038367
X02644Y0413
X0269
X0258Y0442
X0249Y04395
X02495Y0445
X02155Y04191
X0211
Y04151
Y04111
X01958Y04273
X01895Y0427
X01825Y04275
Y04325
X01775
Y04375
X01825
X01775Y04275
X01805Y0397
Y0394
Y0391
X0185
Y0394
Y0397
X0171Y03955
Y03925
Y03895
X01675
Y03925
Y03955
X0174Y03745
X0185
Y03705
X019
Y03745
Y03785
X0161Y0348
X0162Y03375
X0315Y0331
Y0326
X032
X0325
X033
Y0331
X0335
X034
X0345
Y0326
X035
Y0331
X0325
X032
X0316Y0318
X0338Y031569
X036Y0397
X0358Y0402
X036Y0408
X0358Y0414
X036Y0419
T02
X01405Y0269
X0148
Y0279
T03
X017013Y0346
X0178
Y035387
Y036175
X017013
Y035387
Y036962
X0178
T04
X0378Y0334
X0388
X0369Y0435
X0359
X0349
X0339
X0329
Y0445
X0339
X0349
X0359
X0369
T05
X01495Y035
Y036
Y037
Y038
Y039
Y04
Y041
Y042
Y043
X01595Y0425
Y0415
Y0405
Y0395
Y0385
Y0375
Y0365
Y0355
X01845Y033
X01945
X02045
X02145
X02245
X02345
X02445
X02545
X02495Y032
X02395
X02295
X02195
X02095
X01995
X01895
X01795
X02595
X02795Y0355
Y0365
Y0375
Y0385
Y0395
Y0405
Y0415
Y0425
X02895Y042
Y041
Y04
Y039
Y038
Y037
Y036
Y035
X0309Y0379
X02895Y043
X0309Y0459
X02595Y046
X02495
X02395
X02295
X02195
X02095
X01995
X01895
X01795
X01845Y045
X01945
X02045
X02145
X02245
X02345
X02445
X02545
X0319Y0459
X0329
X0339
X0349
X0359
X0369
X0379
X0389
Y0379
X0379
X0369
X0359
X0349
X0339
X0329
X0319
T06
X037968Y028031
X038953Y028031
X036Y03
X037968Y031969
X038953Y031969
T07
X036Y028031
Y029016
Y030984
X037968Y03
X036Y031969
T08
X02875Y0322
T09
X03805Y0357
M30
