M48
;Layer_Color=9474304
;FILE_FORMAT=2:4
INCH,LZ
;TYPE=PLATED
T1F00S00C0.0080
T2F00S00C0.0200
T3F00S00C0.0290
T4F00S00C0.0330
T5F00S00C0.0354
T6F00S00C0.1260
%
T01
X000783Y-002217
Y-001917
Y-001617
X0014Y0018
X0017Y0015
X0011Y0022
X0008Y0029
X0005Y0026
X0015Y0066
X0018
X0021
X0024
X0027
X003
X0033
X0036
X0039
X0042
X0045
X0048
X0051
X0048Y-0004
Y-001
X005193Y-001707
X-0019Y0055
X-0023
Y0059
X-0019
X-0018Y0077
X-0024
X00595Y00765
X0067Y0062
X007
X0073
X0076
X0079
X0082
X0085
X0088
X0091
X0094
X0097
X01
X0104
X01295Y00625
X0128Y0045
X0124
Y0041
X0128
X0123Y0078
X00837Y00881
X00859Y00903
X00881Y00925
X00858Y00948
X00836Y00926
X00814Y00904
X00789Y00929
X00811Y00951
X00833Y00973
X0081Y009957
X00788Y00974
X00766Y00952
X009043Y0109
X0098Y010243
X00745Y00505
X0066Y-0005
Y-0009
X009917Y-001417
X0074Y012527
X0065Y0143
Y0149
X0047Y0148
X0042
Y0142
X0047
X00245Y01425
X000535Y014165
X-000385Y012315
T02
X005115Y003715
X0051Y0043
T03
X0008Y-001
X0099
T04
X-0022Y001338
Y002125
Y002913
Y0037
X-001413
Y002913
Y002125
Y001338
T05
X-001987Y01285
Y013637
Y014425
X-0012
Y013637
Y01285
T06
X0Y0
Y01102
X01102
Y0
M30
