%FSLAX24Y24*%
%MOIN*%
G70*
G01*
G75*
G04 Layer_Color=8388736*
%ADD10C,0.0140*%
%ADD11C,0.0060*%
%ADD12C,0.0100*%
%ADD13C,0.0160*%
G04:AMPARAMS|DCode=14|XSize=39.4mil|YSize=43.3mil|CornerRadius=0mil|HoleSize=0mil|Usage=FLASHONLY|Rotation=45.000|XOffset=0mil|YOffset=0mil|HoleType=Round|Shape=Rectangle|*
%AMROTATEDRECTD14*
4,1,4,0.0014,-0.0292,-0.0292,0.0014,-0.0014,0.0292,0.0292,-0.0014,0.0014,-0.0292,0.0*
%
%ADD14ROTATEDRECTD14*%

%ADD15R,0.0433X0.0394*%
%ADD16R,0.0394X0.0433*%
G04:AMPARAMS|DCode=17|XSize=31.5mil|YSize=74.8mil|CornerRadius=0mil|HoleSize=0mil|Usage=FLASHONLY|Rotation=45.000|XOffset=0mil|YOffset=0mil|HoleType=Round|Shape=Round|*
%AMOVALD17*
21,1,0.0433,0.0315,0.0000,0.0000,135.0*
1,1,0.0315,0.0153,-0.0153*
1,1,0.0315,-0.0153,0.0153*
%
%ADD17OVALD17*%

G04:AMPARAMS|DCode=18|XSize=31.5mil|YSize=74.8mil|CornerRadius=0mil|HoleSize=0mil|Usage=FLASHONLY|Rotation=135.000|XOffset=0mil|YOffset=0mil|HoleType=Round|Shape=Round|*
%AMOVALD18*
21,1,0.0433,0.0315,0.0000,0.0000,225.0*
1,1,0.0315,0.0153,0.0153*
1,1,0.0315,-0.0153,-0.0153*
%
%ADD18OVALD18*%

%ADD19R,0.0400X0.1000*%
%ADD20R,0.0197X0.1417*%
%ADD21R,0.0571X0.0276*%
%ADD22C,0.0460*%
%ADD23R,0.0500X0.0500*%
%ADD24C,0.0500*%
%ADD25C,0.0530*%
%ADD26R,0.0530X0.0530*%
%ADD27C,0.0240*%
%ADD28C,0.1500*%
%ADD29C,0.0400*%
%ADD30C,0.0400*%
G04:AMPARAMS|DCode=31|XSize=69mil|YSize=69mil|CornerRadius=0mil|HoleSize=0mil|Usage=FLASHONLY|Rotation=0.000|XOffset=0mil|YOffset=0mil|HoleType=Round|Shape=Relief|Width=8mil|Gap=10mil|Entries=4|*
%AMTHD31*
7,0,0,0.0690,0.0490,0.0080,45*
%
%ADD31THD31*%
%ADD32C,0.0570*%
G04:AMPARAMS|DCode=33|XSize=72.992mil|YSize=72.992mil|CornerRadius=0mil|HoleSize=0mil|Usage=FLASHONLY|Rotation=0.000|XOffset=0mil|YOffset=0mil|HoleType=Round|Shape=Relief|Width=8mil|Gap=10mil|Entries=4|*
%AMTHD33*
7,0,0,0.0730,0.0530,0.0080,45*
%
%ADD33THD33*%
%ADD34C,0.0594*%
G04:AMPARAMS|DCode=35|XSize=75.433mil|YSize=75.433mil|CornerRadius=0mil|HoleSize=0mil|Usage=FLASHONLY|Rotation=0.000|XOffset=0mil|YOffset=0mil|HoleType=Round|Shape=Relief|Width=8mil|Gap=10mil|Entries=4|*
%AMTHD35*
7,0,0,0.0754,0.0554,0.0080,45*
%
%ADD35THD35*%
%ADD36C,0.0320*%
%ADD37C,0.0440*%
%ADD38R,0.0669X0.0827*%
%ADD39C,0.0098*%
%ADD40C,0.0197*%
%ADD41C,0.0010*%
%ADD42C,0.0018*%
%ADD43C,0.0020*%
%ADD44C,0.0002*%
%ADD45C,0.0079*%
%ADD46C,0.0060*%
%ADD47R,0.0257X0.1477*%
%ADD48C,0.0520*%
%ADD49C,0.1560*%
G36*
X10350Y-3764D02*
X10114Y-4000D01*
X626D01*
X389Y-3764D01*
Y-2307D01*
X10350D01*
Y-3764D01*
D02*
G37*
D14*
X7213Y13287D02*
D03*
X7687Y12813D02*
D03*
X-887Y9887D02*
D03*
X-413Y9413D02*
D03*
X-913Y8913D02*
D03*
X-1387Y9387D02*
D03*
X-1887Y8887D02*
D03*
X-1413Y8413D02*
D03*
D15*
X5985Y-1000D02*
D03*
X5315D02*
D03*
X5315Y14300D02*
D03*
X5985D02*
D03*
X5315Y14900D02*
D03*
X5985D02*
D03*
X5985Y-400D02*
D03*
X5315D02*
D03*
X585Y13650D02*
D03*
X-85D02*
D03*
X-1215Y12000D02*
D03*
X-1885D02*
D03*
D16*
X-2400Y6465D02*
D03*
Y7135D02*
D03*
X100Y12315D02*
D03*
Y12985D02*
D03*
X12950Y5065D02*
D03*
Y5735D02*
D03*
X12350Y5065D02*
D03*
Y5735D02*
D03*
X-1800Y6465D02*
D03*
Y7135D02*
D03*
X-1200Y10665D02*
D03*
Y11335D02*
D03*
X-1800Y10665D02*
D03*
Y11335D02*
D03*
X-2400Y10665D02*
D03*
Y11335D02*
D03*
D17*
X-463Y7257D02*
D03*
X-110Y7610D02*
D03*
X244Y7964D02*
D03*
X597Y8317D02*
D03*
X951Y8671D02*
D03*
X1304Y9024D02*
D03*
X1658Y9378D02*
D03*
X2011Y9731D02*
D03*
X2365Y10085D02*
D03*
X2719Y10439D02*
D03*
X3072Y10792D02*
D03*
X3426Y11146D02*
D03*
X3779Y11499D02*
D03*
X4133Y11853D02*
D03*
X4486Y12206D02*
D03*
X4840Y12560D02*
D03*
X5193Y12913D02*
D03*
X11763Y6343D02*
D03*
X11410Y5990D02*
D03*
X11056Y5636D02*
D03*
X10703Y5283D02*
D03*
X10349Y4929D02*
D03*
X9996Y4576D02*
D03*
X9642Y4222D02*
D03*
X9289Y3869D02*
D03*
X8935Y3515D02*
D03*
X8581Y3161D02*
D03*
X8228Y2808D02*
D03*
X7874Y2454D02*
D03*
X7521Y2101D02*
D03*
X7167Y1747D02*
D03*
X6814Y1394D02*
D03*
X6460Y1040D02*
D03*
X6107Y687D02*
D03*
D18*
Y12913D02*
D03*
X6460Y12560D02*
D03*
X6814Y12206D02*
D03*
X7167Y11853D02*
D03*
X7521Y11499D02*
D03*
X7874Y11146D02*
D03*
X8228Y10792D02*
D03*
X8581Y10439D02*
D03*
X8935Y10085D02*
D03*
X9289Y9731D02*
D03*
X9642Y9378D02*
D03*
X9996Y9024D02*
D03*
X10349Y8671D02*
D03*
X10703Y8317D02*
D03*
X11056Y7964D02*
D03*
X11410Y7610D02*
D03*
X11763Y7257D02*
D03*
X5193Y687D02*
D03*
X4840Y1040D02*
D03*
X4486Y1394D02*
D03*
X4133Y1747D02*
D03*
X3779Y2101D02*
D03*
X3426Y2454D02*
D03*
X3072Y2808D02*
D03*
X2719Y3161D02*
D03*
X2365Y3515D02*
D03*
X2011Y3869D02*
D03*
X1658Y4222D02*
D03*
X1304Y4576D02*
D03*
X951Y4929D02*
D03*
X597Y5283D02*
D03*
X244Y5636D02*
D03*
X-110Y5990D02*
D03*
X-463Y6343D02*
D03*
D19*
X9500Y14700D02*
D03*
X12100D02*
D03*
D21*
X3500Y15037D02*
D03*
X1492D02*
D03*
Y14250D02*
D03*
X3500D02*
D03*
D23*
X-2200Y3700D02*
D03*
D24*
X-1413D02*
D03*
X-2200Y2913D02*
D03*
X-1413D02*
D03*
X-2200Y2125D02*
D03*
X-1413D02*
D03*
X-2200Y1338D02*
D03*
X-1413D02*
D03*
D25*
X-1987Y14425D02*
D03*
X-1200D02*
D03*
X-1987Y13637D02*
D03*
X-1200D02*
D03*
X-1987Y12850D02*
D03*
D26*
X-1200D02*
D03*
D47*
X2043Y-3213D02*
D03*
X1413D02*
D03*
X1728D02*
D03*
X783D02*
D03*
X1098D02*
D03*
X3933D02*
D03*
X3618D02*
D03*
X2988D02*
D03*
X3303D02*
D03*
X2358D02*
D03*
X2673D02*
D03*
X5822D02*
D03*
X5507D02*
D03*
X4878D02*
D03*
X5193D02*
D03*
X4248D02*
D03*
X4563D02*
D03*
X7712D02*
D03*
X7397D02*
D03*
X6767D02*
D03*
X7082D02*
D03*
X6137D02*
D03*
X6452D02*
D03*
X8027D02*
D03*
X8657D02*
D03*
X8342D02*
D03*
X9287D02*
D03*
X8972D02*
D03*
X9602D02*
D03*
X9917D02*
D03*
D48*
X9900Y-1000D02*
D03*
X800D02*
D03*
D49*
X0Y0D02*
D03*
X11020D02*
D03*
Y11020D02*
D03*
X0D02*
D03*
M02*
